<svg xmlns="http://www.w3.org/2000/svg" viewBox="0 0 73.55 72.3"><defs><style>.cls-1{fill:#fff;}.cls-2{fill:#725fa9;}</style></defs><title>logo_2</title><g id="Capa_2" data-name="Capa 2"><g id="Layer_1" data-name="Layer 1"><path class="cls-1" d="M21.11,0h-20A1.07,1.07,0,0,0,0,1.07V71.24A1.06,1.06,0,0,0,1.07,72.3H72.49a1.05,1.05,0,0,0,1.06-1.06V1.07A1.06,1.06,0,0,0,72.49,0Z"/><path class="cls-2" d="M21.11,0h-20A1.07,1.07,0,0,0,0,1.07V71.24A1.06,1.06,0,0,0,1.07,72.3H72.49a1.05,1.05,0,0,0,1.06-1.06V1.07A1.06,1.06,0,0,0,72.49,0Zm0,68.93V48.52a1.07,1.07,0,0,1,1.07-1.07H35.75a1.09,1.09,0,0,0,1-.56,1.07,1.07,0,0,0-1-1.57H22.18a1.07,1.07,0,0,1-1.07-1.07V3.37A1.07,1.07,0,0,1,22.18,2.3h48a1.07,1.07,0,0,1,1.07,1.07V15.93A1.07,1.07,0,0,1,70.18,17H47.13a1.07,1.07,0,0,0,0,2.13H70.18a1.07,1.07,0,0,1,1.07,1.07V68.93A1.07,1.07,0,0,1,70.18,70h-48a1.07,1.07,0,0,1-1.07-1.07"/><path class="cls-1" d="M5.55,58.09a3.57,3.57,0,0,1,2.82-1.15,3.91,3.91,0,0,1,3,1.15,4.6,4.6,0,0,1,1.07,3.24v1.94h3v2.85H4.55V61.33a4.78,4.78,0,0,1,1-3.24m4.18,2a1.64,1.64,0,0,0-1.26-.47,1.57,1.57,0,0,0-1.22.47,1.94,1.94,0,0,0-.43,1.35v1.8h3.34v-1.8a1.94,1.94,0,0,0-.43-1.35"/><path class="cls-1" d="M7.32,52.11a3.16,3.16,0,0,1-.39-1.58H9.46c0,.09,0,.23,0,.42a2.56,2.56,0,0,0,.46,1.59,1.75,1.75,0,0,0,1.25.7h4.29V56H7V53.24h1.4a3,3,0,0,1-1.12-1.13"/><path class="cls-1" d="M7,41.57h8.41v2.77H14.08A3,3,0,0,1,15.58,47a2.85,2.85,0,0,1-.88,2.19,3.33,3.33,0,0,1-2.34.81H7V47.26h4.52a1.62,1.62,0,0,0,1.12-.36,1.26,1.26,0,0,0,.41-1,1.43,1.43,0,0,0-.54-1.15,2.1,2.1,0,0,0-1.36-.42H7Z"/><path class="cls-1" d="M8.16,33.06A4.75,4.75,0,0,1,11.49,32L12,32v5.85a2,2,0,0,0,1.1-.7,1.9,1.9,0,0,0,.38-1.21,2.5,2.5,0,0,0-.22-1,2.84,2.84,0,0,0-.63-.93l1.44-1.45a4.43,4.43,0,0,1,1.12,1.58,5.56,5.56,0,0,1,.38,2.09A5.05,5.05,0,0,1,15,38.52a3.68,3.68,0,0,1-1.5,1.55,4.5,4.5,0,0,1-2.24.53A4.69,4.69,0,0,1,9,40.06a3.82,3.82,0,0,1-1.52-1.54,4.74,4.74,0,0,1-.54-2.3,4.06,4.06,0,0,1,1.22-3.16m2.35,1.59a1.65,1.65,0,0,0-1.18.42,1.65,1.65,0,0,0,0,2.23,2.19,2.19,0,0,0,1.19.58Z"/><path class="cls-1" d="M7.48,23.63A3.66,3.66,0,0,1,9,22.25a5.09,5.09,0,0,1,2.27-.49,5,5,0,0,1,2.24.48A3.46,3.46,0,0,1,15,23.59a3.89,3.89,0,0,1,.53,2,3.24,3.24,0,0,1-.31,1.44,2.92,2.92,0,0,1-.88,1.1h1.09v2.77H3.91V28.16H8.13a3,3,0,0,1-1.19-2.48,3.87,3.87,0,0,1,.54-2.05m5.25,1.42a2.24,2.24,0,0,0-1.51-.5,2.28,2.28,0,0,0-1.52.5,1.7,1.7,0,0,0-.58,1.32,1.64,1.64,0,0,0,.58,1.29,2.28,2.28,0,0,0,1.52.5,2.24,2.24,0,0,0,1.51-.5,1.64,1.64,0,0,0,.58-1.29,1.7,1.7,0,0,0-.58-1.32"/><path class="cls-1" d="M7.73,14.29a2.8,2.8,0,0,1,2.25-1h5.47V16H14.5a3,3,0,0,1,1.08,2.53,2.91,2.91,0,0,1-.73,2.11,2.49,2.49,0,0,1-1.9.77,2.28,2.28,0,0,1-1.87-.83,3.84,3.84,0,0,1-.68-2.39V16h-.1a1.11,1.11,0,0,0-.93.41A1.85,1.85,0,0,0,9,17.64a4.59,4.59,0,0,0,.18,1.19,6.73,6.73,0,0,0,.49,1.33l-1.86.76a10.17,10.17,0,0,1-.7-2A8.27,8.27,0,0,1,6.93,17a4.11,4.11,0,0,1,.8-2.71m5.66,2.34a1.29,1.29,0,0,0-.78-.59h-.73v1.65c0,.77.29,1.16.87,1.16a.86.86,0,0,0,.69-.3,1.25,1.25,0,0,0,.26-.83,2,2,0,0,0-.31-1.09"/><path class="cls-1" d="M8.84,9A1.21,1.21,0,0,0,9,9.55a.45.45,0,0,0,.4.22.51.51,0,0,0,.45-.35,5.42,5.42,0,0,0,.37-1.08,12.18,12.18,0,0,1,.53-1.51,2.77,2.77,0,0,1,.77-1,2.09,2.09,0,0,1,1.37-.44,2.35,2.35,0,0,1,2,1,4.28,4.28,0,0,1,.72,2.58A6.65,6.65,0,0,1,15.27,11a5.51,5.51,0,0,1-.89,1.74l-1.79-.87a6.27,6.27,0,0,0,.77-1.5,4.57,4.57,0,0,0,.27-1.49,1.32,1.32,0,0,0-.13-.64A.41.41,0,0,0,13.12,8a.51.51,0,0,0-.48.35,6.49,6.49,0,0,0-.38,1.09,11.48,11.48,0,0,1-.52,1.47,2.64,2.64,0,0,1-.77,1,2,2,0,0,1-1.33.43,2.33,2.33,0,0,1-2-1,4,4,0,0,1-.73-2.49,6.8,6.8,0,0,1,1-3.5L9.7,6.3A6.19,6.19,0,0,0,8.84,9"/><path class="cls-2" d="M62.6,54.24H53.3a.71.71,0,0,0-.78.68v9.66a.71.71,0,0,0,.78.68h9.3a.72.72,0,0,0,.79-.68V54.92a.72.72,0,0,0-.79-.68m-.18,10.14H53.48V55.12h8.94Z"/><path class="cls-2" d="M56.86,63.91c-.89-.17-1.38-5.81-2-7a1.34,1.34,0,0,1-.15-.55c.11-.73,1.56-.9,2.19.44a19.55,19.55,0,0,1,.81,3.76,5.51,5.51,0,0,1,.59-1.16A23,23,0,0,1,66,51.86c.89-.56,1.81-.44,1.71,0,0,.16-.12.31-.78.57s-5.48,4.74-7.93,9a3.83,3.83,0,0,0-.51,1,1.91,1.91,0,0,1-.63,1.3.89.89,0,0,1-1,.19"/><path class="cls-2" d="M28.33,61.19a1.9,1.9,0,0,1-1.76-1.34,4.23,4.23,0,0,1-.37-1.66,9,9,0,0,1,.22-1.75c.17-.74.48-1.72,1.25-1.72a.72.72,0,0,1,.8.75,1.9,1.9,0,0,1-.31.85A4.91,4.91,0,0,0,27.78,58a5.86,5.86,0,0,1,0,.71l.23.87c.15.35.31.38.39.38a1.37,1.37,0,0,1,.43-.24.37.37,0,0,1,.34,0,.7.7,0,0,1,.36.56c0,.2-.09.48-.55.68a1.52,1.52,0,0,1-.66.16"/><path class="cls-2" d="M27.74,53.64a.88.88,0,0,1-.62-.24.76.76,0,0,1-.26-.53.78.78,0,0,1,.25-.56.91.91,0,0,1,.65-.26.78.78,0,0,1,.88.79.79.79,0,0,1-.9.8"/><path class="cls-2" d="M31.17,60.94a2.35,2.35,0,0,1-1.82-.7,2.07,2.07,0,0,1-.52-1.42,5,5,0,0,1,1.37-3,4.56,4.56,0,0,1,3.45-2,2.94,2.94,0,0,1,1,.22c.23.07.94.32,1,.89a.6.6,0,0,1-.34.6,1,1,0,0,1-.48.13,1.29,1.29,0,0,1-.79-.36.68.68,0,0,0-.43-.19c-.68,0-1.41.53-2.17,1.59a4.32,4.32,0,0,0-1.05,2.19c0,.37.12.61.68.61a4,4,0,0,0,1.87-.49,4.93,4.93,0,0,0,1.49-1.19.52.52,0,0,1,.44-.23.69.69,0,0,1,.51.25.5.5,0,0,1,.14.54c0,.17-.21.43-1.22,1.2a7.57,7.57,0,0,1-1.22.84,4,4,0,0,1-1.36.44l-.22,0-.28,0"/><path class="cls-2" d="M36.41,62a.81.81,0,0,1-.64-.25.86.86,0,0,1-.19-.67v-.15c0-.83,0-2.67,0-3.73a.57.57,0,0,1-.5-.51.73.73,0,0,1,.49-.84h0l.12,0c.16-1.36.8-4.32,3.23-4.32a1.8,1.8,0,0,1,1.38.67,1.78,1.78,0,0,1,.53,1.2c0,.7-.32,1-.59,1a.34.34,0,0,1-.2,0,.71.71,0,0,1-.53-.55v0l-.06-.39a1,1,0,0,0-.25-.47c-.15-.17-.29-.26-.42-.25-1,.06-1.39,2-1.45,2.71h.08a3.15,3.15,0,0,1,.61-.07,1.53,1.53,0,0,1,1.47.7.74.74,0,0,1,.09.36.55.55,0,0,1-.41.55h0l-.15,0a.87.87,0,0,1-.56-.25.6.6,0,0,0-.45-.17,2.49,2.49,0,0,0-.6.09,1.5,1.5,0,0,0-.28.1,1.1,1.1,0,0,0,0,.21c0,.08,0,.22,0,.42a18.71,18.71,0,0,0,0,2.37c.15,1.21.15,1.35.15,1.41a.82.82,0,0,1-.9.86"/><path class="cls-2" d="M40.8,61.64A2.74,2.74,0,0,1,38.9,61a1.87,1.87,0,0,1-.59-1.61,5.56,5.56,0,0,1,1.92-3.12c1.32-1.32,2.51-2,3.64-2a1.33,1.33,0,0,1,1.07.46,1.13,1.13,0,0,1,.29.73,3.06,3.06,0,0,1-1,2,3.77,3.77,0,0,1-2.82,1.31,2.89,2.89,0,0,1-1-.15c0,.09-.11.23-.19.44a2.93,2.93,0,0,0-.21,1c0,.23.56.25.81.25a5.06,5.06,0,0,0,2.45-.84,1.64,1.64,0,0,1,.85-.28.6.6,0,0,1,.63.42c.1.37-.19.78-.77,1.11a6.35,6.35,0,0,1-3.13.88m2.89-6a1.3,1.3,0,0,0-.51.26c-1.12.9-1.68,1.41-2,1.69a2.7,2.7,0,0,0,1.59-.78,2.51,2.51,0,0,0,.89-1.17"/><path class="cls-2" d="M46.86,61.67a2.7,2.7,0,0,1-1.22-.28,1.12,1.12,0,0,1-.76-1,1,1,0,0,1,.32-.66,1.1,1.1,0,0,1,.82-.39l.26,0a.38.38,0,0,1,.26.4,1.67,1.67,0,0,1-.17.52l.23,0a6.26,6.26,0,0,0,2-.4c1.07-.37,1.1-.64,1.1-.65s-.09-.13-.25-.2a1.81,1.81,0,0,0-.72-.16l-2.18,0a4.92,4.92,0,0,1-1.15-.17q-1-.26-1-.84c0-.66.61-1.37,1.93-2.25a6,6,0,0,1,3.19-1.24,2.79,2.79,0,0,1,1,.2c.2.08.81.31.81.82a.68.68,0,0,1-.76.69,1.72,1.72,0,0,1-.58-.16,1.66,1.66,0,0,0-.46-.13H49.5a4.07,4.07,0,0,0-1.89.72,3.17,3.17,0,0,0-1.22,1,5.73,5.73,0,0,0,1.26.09c.89,0,3.57,0,3.57,1.58,0,.72-.54,1.35-1.62,1.87a6.27,6.27,0,0,1-2.74.66"/><path class="cls-2" d="M26.23,63.51c0-.14,0-.22.14-.29a2.38,2.38,0,0,1,.93-.17,1.15,1.15,0,0,1,.88.25,1.38,1.38,0,0,1,.93-.25c1,0,.95.45.95.68V65.2c0,.06,0,.08-.1.08h-.31c-.08,0-.11,0-.11-.08V63.83c0-.22,0-.54-.57-.54a.8.8,0,0,0-.4.09.34.34,0,0,0-.17.35V65.2c0,.06,0,.08-.1.08H28c-.08,0-.12,0-.12-.07V63.79c0-.15,0-.52-.56-.52s-.57.31-.57.46V65.2c0,.07,0,.08-.12.08h-.3c-.08,0-.1,0-.1-.08Z"/><path class="cls-2" d="M30.8,64.12a.88.88,0,0,0,.91.87,1,1,0,0,0,.8-.37c.09-.1.1-.13.17-.13a.11.11,0,0,1,.12.11c0,.11-.26.73-1.17.73a1.28,1.28,0,0,1-1.09-.49,1.1,1.1,0,0,1-.19-.64,1.12,1.12,0,0,1,.2-.68,1.29,1.29,0,0,1,1.09-.47c.92,0,1.12.58,1.12.75s-.1.13-.17.13Zm1.4-.36a.59.59,0,0,0-.63-.47.7.7,0,0,0-.77.63Z"/><path class="cls-2" d="M33.62,64.64a1.83,1.83,0,0,1-.21,1,1.38,1.38,0,0,1-1,.69c-.07,0-.13,0-.13-.09s0-.07.08-.09c.64-.3.66-.8.68-1.4V63.19c0-.07,0-.09.12-.09h.31c.09,0,.11,0,.11.08Zm-.27-1.92c-.2,0-.31-.1-.31-.21s.13-.23.31-.23.31.1.31.21-.1.23-.31.23"/><path class="cls-2" d="M35.35,65.33A1.2,1.2,0,0,1,34,64.2a1.35,1.35,0,0,1,2.67,0,1.2,1.2,0,0,1-1.33,1.15m0-2a.76.76,0,0,0-.76.85.87.87,0,0,0,.83.94.78.78,0,0,0,.75-.93.83.83,0,0,0-.82-.86"/><path class="cls-2" d="M37.51,65.21c0,.07,0,.07-.11.07h-.29c-.09,0-.12,0-.12-.07V63.45c0-.15,0-.2.15-.25a2.63,2.63,0,0,1,.93-.15c.29,0,.61.05.61.24s-.1.18-.24.18a.34.34,0,0,1-.25-.11.5.5,0,0,0-.32-.1c-.35,0-.35.18-.36.29Z"/><path class="cls-2" d="M40.61,64.05c.31.11.72.25.72.65a.56.56,0,0,1-.28.47,1.4,1.4,0,0,1-.71.16c-.78,0-1-.35-1-.47s.12-.18.24-.18a.32.32,0,0,1,.24.11l.07.09a.6.6,0,0,0,.5.21c.32,0,.46-.16.46-.32s-.31-.36-.57-.44c-.48-.17-.88-.31-.88-.69s.29-.59.93-.59.91.29.91.42-.1.17-.21.17a.29.29,0,0,1-.26-.15.5.5,0,0,0-.45-.23c-.32,0-.44.19-.44.31s.28.33.49.4Z"/><path class="cls-2" d="M43.7,64.84a.35.35,0,0,1-.25.38,2.87,2.87,0,0,1-.83.11c-.16,0-1,0-1-.57s.65-.62,1.59-.82v-.22c0-.16,0-.45-.44-.45a.49.49,0,0,0-.49.28.26.26,0,0,1-.26.18c-.09,0-.24,0-.24-.18s.44-.5,1.07-.5c.86,0,.86.45.87.67Zm-.51-.7c-.64.14-1.06.24-1.06.56,0,0,0,.41.6.41s.46-.2.46-.31Z"/><path class="cls-2" d="M44.61,63.32a1.68,1.68,0,0,1,.92-.27,1,1,0,0,1,1.09,1c0,.88-.72,1.24-1.5,1.24a1.67,1.67,0,0,1-.85-.19c-.17-.11-.18-.18-.18-.43V62.14c0-.06,0-.08.11-.08h.28c.11,0,.13,0,.13.08Zm0,1.34c0,.11,0,.42.56.42a.85.85,0,0,0,.94-.88.79.79,0,0,0-.82-.87,1.18,1.18,0,0,0-.68.23Z"/><path class="cls-2" d="M47.35,64.12a.89.89,0,0,0,.91.87,1,1,0,0,0,.81-.37c.08-.1.1-.13.17-.13a.12.12,0,0,1,.12.11c0,.11-.26.73-1.17.73a1.27,1.27,0,0,1-1.09-.49,1,1,0,0,1-.19-.64,1.06,1.06,0,0,1,.2-.68,1.24,1.24,0,0,1,1.08-.47c.93,0,1.13.58,1.13.75s-.1.13-.17.13Zm1.4-.36a.58.58,0,0,0-.62-.47.71.71,0,0,0-.78.63Z"/><path class="cls-2" d="M50.16,65.21c0,.07,0,.07-.1.07h-.3c-.08,0-.12,0-.12-.07V63.45c0-.15,0-.2.16-.25a2.59,2.59,0,0,1,.93-.15c.28,0,.6.05.6.24s-.09.18-.24.18a.34.34,0,0,1-.25-.11.48.48,0,0,0-.32-.1c-.34,0-.35.18-.36.29Z"/><path class="cls-2" d="M31.18,7.45A4.19,4.19,0,0,0,29.9,7.2a1.23,1.23,0,0,0-.65.15.5.5,0,0,0-.23.44.63.63,0,0,0,.2.47,1.81,1.81,0,0,0,.51.3l.89.29a12,12,0,0,1,1.46.51,2.54,2.54,0,0,1,1,.78,2.17,2.17,0,0,1,.41,1.37A2.33,2.33,0,0,1,33,13a2.63,2.63,0,0,1-1.22.9,4.8,4.8,0,0,1-1.73.3A6.35,6.35,0,0,1,28,13.78a5.78,5.78,0,0,1-1.81-1L27,11.05a5.33,5.33,0,0,0,1.51.93,4.18,4.18,0,0,0,1.55.36,1.45,1.45,0,0,0,.78-.18.59.59,0,0,0,.28-.53.64.64,0,0,0-.21-.49,1.6,1.6,0,0,0-.53-.3,8.86,8.86,0,0,0-.9-.27,13.64,13.64,0,0,1-1.43-.49,2.62,2.62,0,0,1-1-.75A2.05,2.05,0,0,1,26.7,8a2.32,2.32,0,0,1,.42-1.38,2.67,2.67,0,0,1,1.18-.91,4.67,4.67,0,0,1,1.78-.32,6.6,6.6,0,0,1,1.81.26,5.92,5.92,0,0,1,1.57.69l-.83,1.77a7.32,7.32,0,0,0-1.45-.66"/><path class="cls-2" d="M40.23,14l-.57-1.5H36L35.41,14H33.14l3.63-8.46H39L42.59,14Zm-3.57-3.19H39l-1.15-3Z"/><path class="cls-2" d="M48.78,5.82a2.43,2.43,0,0,1,1.09.74,1.86,1.86,0,0,1,0,2.29,1.94,1.94,0,0,1-1.06.68,2.07,2.07,0,0,1,1.27.73,2.18,2.18,0,0,1,.46,1.4,2.07,2.07,0,0,1-.39,1.25,2.51,2.51,0,0,1-1.14.82,4.73,4.73,0,0,1-1.72.29H43.1V5.56h4a4.86,4.86,0,0,1,1.66.26M47.72,8.7A.75.75,0,0,0,48,8.08a.72.72,0,0,0-.27-.6,1.1,1.1,0,0,0-.72-.2H45.31V8.93H47a1.05,1.05,0,0,0,.72-.23m.2,3.36a.79.79,0,0,0,.34-.67.76.76,0,0,0-.34-.64,1.57,1.57,0,0,0-.92-.22H45.31V12.3H47a1.57,1.57,0,0,0,.92-.24"/><polygon class="cls-2" points="51.02 5.56 57.69 5.56 57.69 7.32 53.22 7.32 53.22 8.9 57.25 8.9 57.25 10.65 53.22 10.66 53.22 12.25 57.81 12.25 57.81 14.02 51.02 14.02 51.02 5.56"/><path class="cls-2" d="M63.51,14l-1.23-2.34H60.64V14H58.43V5.56h3.8a3.9,3.9,0,0,1,2.6.78,2.69,2.69,0,0,1,.92,2.19,3.29,3.29,0,0,1-.38,1.64,2.6,2.6,0,0,1-1.12,1.08L66,14Zm-2.87-4.1h1.6a1.52,1.52,0,0,0,1-.33,1.29,1.29,0,0,0,.37-1,1.23,1.23,0,0,0-.37-.95,1.52,1.52,0,0,0-1-.33h-1.6Z"/><path class="cls-2" d="M30.37,34.15a14.84,14.84,0,0,1,.37-3.33,21.76,21.76,0,0,1,1-3.26,30.59,30.59,0,0,1,1.48-3.21c.56-1.08,1.09-2.18,1.77-3.25a1,1,0,0,1,1.39-.38,1,1,0,0,1,.37,1.22c-.51.83-.91,1.48-1.41,2.46A28.58,28.58,0,0,0,34,27.51a26.73,26.73,0,0,0-1.05,3.4,14.31,14.31,0,0,0-.41,3.34,16.49,16.49,0,0,0,1.12,5.65A29.4,29.4,0,0,0,36.71,46L35,46.85a33.38,33.38,0,0,1-3.37-6.32A17.12,17.12,0,0,1,30.37,34.15Z"/><path class="cls-2" d="M54.25,31.78v3.91H49.33v5.36h-4.4V35.69H40V31.78h4.92V26.41h4.4v5.37Z"/><path class="cls-2" d="M63.85,34.15a17.29,17.29,0,0,1-1.26,6.38,48.11,48.11,0,0,1-3.38,6.32,1.11,1.11,0,0,1-1.43.25A.89.89,0,0,1,57.55,46a32.48,32.48,0,0,0,1.74-3,27.53,27.53,0,0,0,1.33-3A20.71,20.71,0,0,0,61.46,37a13.24,13.24,0,0,0,.3-2.72,14.31,14.31,0,0,0-.41-3.34,28.45,28.45,0,0,0-1.05-3.4,33.06,33.06,0,0,0-1.37-3.11c-.5-1-1-1.66-1.45-2.46a1.12,1.12,0,0,1,.37-1.36,1.16,1.16,0,0,1,1.44.33,25.22,25.22,0,0,1,1.86,3.29c.49,1.11,1,2.29,1.36,3.36a24.32,24.32,0,0,1,1,3.26A15.44,15.44,0,0,1,63.85,34.15Z"/></g></g></svg>