<svg id="Icons" enable-background="new 0 0 512 512" height="512" viewBox="0 0 512 512" width="512" xmlns="http://www.w3.org/2000/svg"><g><circle cx="256" cy="256" fill="#ea792e" r="256"/><g><g><g><g><path d="m234.74 389.72c-.099 19.022 30.038 20.305 30 48.55.075 28.151-30.132 29.587-30 48.54-.295 9.84-14.64 10.004-15 0-.005-28.3 30.075-29.46 30-48.54.154-18.94-30.085-20.414-30-48.55.014-28.291 30.245-29.691 30-48.55.133-18.983-30.002-20.256-30-48.54.319-18.983 12.781-25.32 22.83-34.37 4.63-4.2 7.17-7.98 7.17-14.17.333-9.863 14.608-10.002 15 0 .077 14.297-8.29 22.642-17.78 30.1-7.81 6.31-12.22 10.28-12.22 18.44s4.42 12.13 12.22 18.44c8.066 6.365 18.335 15.239 17.76 31-.36 15.13-9.99 22.92-17.76 29.21-7.076 5.648-12.434 10.388-12.22 18.44z" fill="#dd5273"/></g><g><path d="m279.01 295.63c-.109 19.017 30.069 20.372 30 48.55.384 13.749-8.887 23.395-17.79 30.11-5.37 4.35-9.14 7.59-10.96 11.85-.82 1.92-1.25 4.05-1.25 6.59 0 4.14-3.36 7.5-7.5 7.5-4.15 0-7.5-3.36-7.5-7.5-.336-13.661 8.583-23.13 17.78-30.11 7.602-6.283 12.099-9.79 12.22-18.44 0-8.16-4.42-12.13-12.22-18.44-7.92-6.41-17.78-14.39-17.78-30.11 0-11.45 5.24-18.8 11.15-24.42 7.86-7.441 19.538-13.539 18.85-24.12v-56.24c0-4.14 3.35-7.5 7.5-7.5 4.14 0 7.5 3.36 7.5 7.5v56.24c-.14 16.708-10.543 24.132-19.25 31.29-6.89 5.65-10.75 9.62-10.75 17.25z" fill="#dd5273"/></g><g><path d="m190.47 295.63c-.153 19.001 29.966 20.187 30 48.55.203 13.992-8.36 22.814-17.78 30.11-7.8 6.31-12.22 10.28-12.22 18.44 0 4.14-3.35 7.5-7.5 7.5-4.14 0-7.5-3.36-7.5-7.5 0-15.72 9.86-23.69 17.79-30.11 6.284-5.109 12.417-9.859 12.21-18.44.147-19.515-31.977-20.532-29.899-51.16 1.71-25.672 30.099-27.633 29.9-45.93v-64.14c0-4.15 3.36-7.5 7.5-7.5 4.15 0 7.5 3.35 7.5 7.5v64.14c.039 28.191-30.161 29.618-30.001 48.54z" fill="#dd5273"/></g></g><g fill="#c0405c"><g><path d="m220.15 251.8c-2.983 23.631-29.905 26.097-29.68 43.83 0 5.87 2.28 9.57 6.47 13.53-8.17-5.36-15.36-10.81-21.37-16.14 1.71-24.946 28.257-27.404 29.83-44.21 4.7.76 9.63 1.76 14.75 2.99z"/><path d="m264.74 341.17c0 .3 0 .6-.02.9-5.14-1.78-10.37-3.74-15.66-5.9-1.51-5.08-5.51-8.56-11.54-13.44-7.92-6.41-17.78-14.38-17.78-30.1.318-18.991 12.782-25.315 22.83-34.37 5.02 1.68 10.14 3.54 15.32 5.58-7.51 10.108-23.784 15.971-23.15 28.79-.105 18.999 30.061 20.354 30 48.54z"/><path d="m309.01 344.18c0 3.25-.42 6.18-1.17 8.82-4.72-.68-9.69-1.61-14.86-2.78 3.435-10.606-1.463-17.041-11.19-24.48-7.92-6.41-17.78-14.39-17.78-30.11 0-11.45 5.24-18.8 11.15-24.42 5.03 2.32 9.91 4.71 14.6 7.17-6.89 5.65-10.75 9.62-10.75 17.25 0 8.16 4.41 12.13 12.21 18.45 7.93 6.41 17.79 14.38 17.79 30.1z"/></g><g><path d="m198.87 357.84c5.26 1.37 10.59 2.85 15.99 4.45-3.49 4.98-8.09 8.7-12.17 12-7.8 6.31-12.22 10.28-12.22 18.44 0 4.14-3.35 7.5-7.5 7.5-4.14 0-7.5-3.36-7.5-7.5.318-19.326 13.225-25.533 23.4-34.89z"/><path d="m264.74 438.27c0 15.71-9.86 23.69-17.78 30.1-7.8 6.31-12.22 10.28-12.22 18.44-.327 9.906-14.657 9.946-15 0-.039-28.234 30.094-29.505 30-48.54 0-8.17-4.41-12.13-12.22-18.45-7.92-6.41-17.78-14.39-17.78-30.1 0-10.46 4.37-17.49 9.63-22.92 5.37 1.75 10.79 3.61 16.25 5.58-6.97 5.69-10.88 9.66-10.88 17.34 0 8.16 4.42 12.13 12.22 18.44 7.92 6.41 17.78 14.39 17.78 30.11z"/><path d="m280.26 386.14c-.82 1.92-1.25 4.05-1.25 6.59 0 4.14-3.36 7.5-7.5 7.5-4.15 0-7.5-3.36-7.5-7.5 0-4.79.92-8.86 2.42-12.39 4.68 1.89 9.29 3.83 13.83 5.8z"/></g></g></g><g><path d="m316.37 170.53v13.19c0 33.34-27.03 60.37-60.37 60.37-16.67 0-31.76-6.76-42.69-17.68-10.92-10.93-17.68-26.02-17.68-42.69v-13.19z" fill="#f39e22"/><path d="m316.37 170.53v13.19c0 33.34-27.03 60.37-60.37 60.37v-73.56z" fill="#f9c744"/><g><path d="m263.17 170.53v49.47c0 3.96-3.21 7.17-7.17 7.17s-7.17-3.21-7.17-7.17v-49.47z" fill="#dd5e26"/><path d="m290.338 211.169c-3.959 0-7.169-3.21-7.169-7.169v-33.467h14.338v33.467c-.001 3.959-3.21 7.169-7.169 7.169z" fill="#ea792e"/><path d="m221.662 211.169c-3.959 0-7.169-3.21-7.169-7.169v-33.467h14.338v33.467c0 3.959-3.209 7.169-7.169 7.169z" fill="#dd5e26"/><path d="m263.17 170.53v49.47c0 3.96-3.21 7.17-7.17 7.17v-56.64z" fill="#ea792e"/></g></g><g><g><path d="m366.07 121.28v17.62c0 1.02-.05 2.03-.14 3.03-1.04 10.91-7.61 20.2-16.88 25.03-4.37 2.28-9.34 3.57-14.61 3.57h-156.88c-5.27 0-10.24-1.29-14.61-3.57-9.27-4.83-15.84-14.13-16.88-25.03-.09-1-.14-2.01-.14-3.03v-17.62c0-14.65 3.42-28.5 9.5-40.79 4.22-8.51 9.7-16.28 16.22-23.06 11.71-12.19 26.74-21.16 43.64-25.44 7.29-1.87 14.92-2.85 22.78-2.85h35.86c43.66 0 80.22 30.36 89.73 71.12 1.58 6.75 2.41 13.79 2.41 21.02z" fill="#f9c744"/><g fill="#fbcb74"><path d="m221.66 160.53c0 3.39-.21 6.73-.61 10h-43.49c-5.27 0-10.24-1.29-14.61-3.57-9.27-4.83-15.84-14.13-16.88-25.03-.09-1-.14-2.01-.14-3.03v-17.62c0-14.65 3.42-28.5 9.5-40.79 37.72 7.13 66.23 40.25 66.23 80.04z"/><path d="m366.07 121.28v17.62c0 1.02-.05 2.03-.14 3.03-1.53 16.05-15.04 28.6-31.49 28.6h-78.44v-141.39h17.93c43.66 0 80.22 30.36 89.73 71.12 1.58 6.75 2.41 13.79 2.41 21.02z"/><path d="m363.66 100.26c-15.67 12.84-35.71 20.55-57.55 20.55-49.49 0-89.75-39.58-90.82-88.82 7.29-1.87 14.92-2.85 22.78-2.85h35.86c43.66 0 80.22 30.36 89.73 71.12z"/></g><path d="m363.66 100.26c-15.67 12.84-35.71 20.55-57.55 20.55-18.52 0-35.75-5.54-50.11-15.06v-76.61h17.93c11.17 0 21.88 1.99 31.78 5.63 11.55 4.24 22.01 10.73 30.86 18.94 13.23 12.27 22.84 28.37 27.09 46.55z" fill="#fbd9a3"/><path d="m338.03 62.66c0 15.58-12.63 28.2-28.2 28.2s-28.2-12.62-28.2-28.2c0-14.17 10.46-25.9 24.08-27.89 11.55 4.24 22.01 10.73 30.86 18.94.95 2.81 1.46 5.82 1.46 8.95z" fill="#faefdc"/></g><g><g fill="#dd5273"><path d="m280.382 141.93h-5.823c-6.291 0-11.39 5.099-11.39 11.39v17.213h28.603v-17.213c0-6.291-5.099-11.39-11.39-11.39z"/><path d="m365.93 141.93c-1.04 10.91-7.61 20.2-16.88 25.03v-13.64c0-6.29 5.1-11.39 11.39-11.39z"/><path d="m323.323 141.93h-5.823c-6.291 0-11.39 5.099-11.39 11.39v17.213h28.603v-17.213c0-6.291-5.099-11.39-11.39-11.39z"/></g><g fill="#c0405c"><path d="m237.441 141.93h-5.823c-6.291 0-11.39 5.099-11.39 11.39v17.213h28.603v-17.213c0-6.291-5.099-11.39-11.39-11.39z"/><path d="m162.95 153.32v13.64c-9.27-4.83-15.84-14.13-16.88-25.03h5.49c6.29 0 11.39 5.1 11.39 11.39z"/><path d="m194.5 141.93h-5.823c-6.291 0-11.39 5.099-11.39 11.39v17.213h28.603v-17.213c0-6.291-5.099-11.39-11.39-11.39z"/></g></g></g></g></g></svg>