<svg id="Icons" enable-background="new 0 0 512 512" height="512" viewBox="0 0 512 512" width="512" xmlns="http://www.w3.org/2000/svg"><g><circle cx="256" cy="256" fill="#6c53a2" r="256"/><g><g><g><path d="m401.947 367.852c-1.1 1.1-2.63 1.79-4.32 1.78l-32.96.01c-4.97-.06-7.1-5.01-5.57-8.61.63-1.52 1.92-2.8 3.92-3.38.52-.14 1.08-.22 1.65-.23l32.96-.01c2.65-.05 4.68 1.61 5.58 3.75.92 2.17.67 4.84-1.26 6.69z" fill="#2e3140"/><path d="m403.207 361.163c-.28.65-.7 1.25-1.26 1.79-1.1 1.1-2.63 1.79-4.32 1.78l-32.96.01c-2.84-.03-4.75-1.65-5.57-3.71.63-1.52 1.92-2.8 3.92-3.38.52-.14 1.08-.22 1.65-.23l32.96-.01c2.65-.051 4.68 1.609 5.58 3.75z" fill="#334353"/><path d="m393.105 359.574h-23.905c-1.426 0-2.582 1.156-2.582 2.582 0 1.426 1.156 2.582 2.582 2.582h23.905c1.426 0 2.582-1.156 2.582-2.582-.001-1.426-1.156-2.582-2.582-2.582z" fill="#3e4e60"/></g><g><path d="m401.947 404.884c-1.1 1.1-2.63 1.79-4.32 1.78l-32.96.01c-4.97-.06-7.1-5.01-5.57-8.61.63-1.52 1.92-2.8 3.92-3.38.52-.14 1.08-.22 1.65-.23l32.96-.01c2.65-.05 4.68 1.61 5.58 3.75.92 2.17.67 4.84-1.26 6.69z" fill="#2e3140"/><path d="m403.207 398.194c-.28.65-.7 1.25-1.26 1.79-1.1 1.1-2.63 1.79-4.32 1.78l-32.96.01c-2.84-.03-4.75-1.65-5.57-3.71.63-1.52 1.92-2.8 3.92-3.38.52-.14 1.08-.22 1.65-.23l32.96-.01c2.65-.05 4.68 1.61 5.58 3.75z" fill="#334353"/><path d="m393.105 396.606h-23.905c-1.426 0-2.582 1.156-2.582 2.582 0 1.426 1.156 2.582 2.582 2.582h23.905c1.426 0 2.582-1.156 2.582-2.582-.001-1.426-1.156-2.582-2.582-2.582z" fill="#3e4e60"/></g><g><path d="m401.947 330.744c-1.1 1.1-2.63 1.79-4.32 1.78l-32.96.01c-4.97-.06-7.1-5.01-5.57-8.61.63-1.52 1.92-2.8 3.92-3.38.52-.14 1.08-.22 1.65-.23l32.96-.01c2.65-.05 4.68 1.61 5.58 3.75.92 2.17.67 4.84-1.26 6.69z" fill="#2e3140"/><path d="m403.207 324.054c-.28.65-.7 1.25-1.26 1.79-1.1 1.1-2.63 1.79-4.32 1.78l-32.96.01c-2.84-.03-4.75-1.65-5.57-3.71.63-1.52 1.92-2.8 3.92-3.38.52-.14 1.08-.22 1.65-.23l32.96-.01c2.65-.05 4.68 1.61 5.58 3.75z" fill="#334353"/><path d="m393.105 322.466h-23.905c-1.426 0-2.582 1.156-2.582 2.582 0 1.426 1.156 2.582 2.582 2.582h23.905c1.426 0 2.582-1.156 2.582-2.582-.001-1.426-1.156-2.582-2.582-2.582z" fill="#3e4e60"/></g><g><path d="m401.947 293.717c-1.1 1.1-2.63 1.79-4.32 1.78l-32.96.01c-4.97-.06-7.1-5.01-5.57-8.61.63-1.52 1.92-2.8 3.92-3.38.52-.14 1.08-.22 1.65-.23l32.96-.01c2.65-.05 4.68 1.61 5.58 3.75.92 2.17.67 4.84-1.26 6.69z" fill="#2e3140"/><path d="m403.207 287.027c-.28.65-.7 1.25-1.26 1.79-1.1 1.1-2.63 1.79-4.32 1.78l-32.96.01c-2.84-.03-4.75-1.65-5.57-3.71.63-1.52 1.92-2.8 3.92-3.38.52-.14 1.08-.22 1.65-.23l32.96-.01c2.65-.05 4.68 1.61 5.58 3.75z" fill="#334353"/><path d="m393.105 285.439h-23.905c-1.426 0-2.582 1.156-2.582 2.582 0 1.426 1.156 2.582 2.582 2.582h23.905c1.426 0 2.582-1.156 2.582-2.582-.001-1.427-1.156-2.582-2.582-2.582z" fill="#3e4e60"/></g><g><path d="m151.615 190.121c-1.1 1.1-2.63 1.79-4.32 1.78l-32.96.01c-4.97-.06-7.1-5.01-5.57-8.61.63-1.52 1.92-2.8 3.92-3.38.52-.14 1.08-.22 1.65-.23l32.96-.01c2.65-.05 4.68 1.61 5.58 3.75.92 2.17.67 4.84-1.26 6.69z" fill="#2e3140"/><path d="m152.875 183.431c-.28.65-.7 1.25-1.26 1.79-1.1 1.1-2.63 1.79-4.32 1.78l-32.96.01c-2.84-.03-4.75-1.65-5.57-3.71.63-1.52 1.92-2.8 3.92-3.38.52-.14 1.08-.22 1.65-.23l32.96-.01c2.65-.051 4.68 1.61 5.58 3.75z" fill="#334353"/><path d="m142.773 181.842h-23.905c-1.426 0-2.582 1.156-2.582 2.582 0 1.426 1.156 2.582 2.582 2.582h23.905c1.426 0 2.582-1.156 2.582-2.582-.001-1.426-1.157-2.582-2.582-2.582z" fill="#3e4e60"/></g><g><path d="m151.615 227.152c-1.1 1.1-2.63 1.79-4.32 1.78l-32.96.01c-4.97-.06-7.1-5.01-5.57-8.61.63-1.52 1.92-2.8 3.92-3.38.52-.14 1.08-.22 1.65-.23l32.96-.01c2.65-.05 4.68 1.61 5.58 3.75.92 2.17.67 4.84-1.26 6.69z" fill="#2e3140"/><path d="m152.875 220.462c-.28.65-.7 1.25-1.26 1.79-1.1 1.1-2.63 1.79-4.32 1.78l-32.96.01c-2.84-.03-4.75-1.65-5.57-3.71.63-1.52 1.92-2.8 3.92-3.38.52-.14 1.08-.22 1.65-.23l32.96-.01c2.65-.05 4.68 1.61 5.58 3.75z" fill="#334353"/><path d="m142.773 218.874h-23.905c-1.426 0-2.582 1.156-2.582 2.582 0 1.426 1.156 2.582 2.582 2.582h23.905c1.426 0 2.582-1.156 2.582-2.582-.001-1.426-1.157-2.582-2.582-2.582z" fill="#3e4e60"/></g><g><path d="m289.578 367.852c-1.1 1.1-2.63 1.79-4.32 1.78l-32.96.01c-4.97-.06-7.1-5.01-5.57-8.61.63-1.52 1.92-2.8 3.92-3.38.52-.14 1.08-.22 1.65-.23l32.96-.01c2.65-.05 4.68 1.61 5.58 3.75.919 2.17.669 4.84-1.26 6.69z" fill="#2e3140"/><path d="m290.838 361.163c-.28.65-.7 1.25-1.26 1.79-1.1 1.1-2.63 1.79-4.32 1.78l-32.96.01c-2.84-.03-4.75-1.65-5.57-3.71.63-1.52 1.92-2.8 3.92-3.38.52-.14 1.08-.22 1.65-.23l32.96-.01c2.65-.051 4.68 1.609 5.58 3.75z" fill="#334353"/><path d="m280.735 359.574h-23.905c-1.426 0-2.582 1.156-2.582 2.582 0 1.426 1.156 2.582 2.582 2.582h23.905c1.426 0 2.582-1.156 2.582-2.582 0-1.426-1.156-2.582-2.582-2.582z" fill="#3e4e60"/></g><g><path d="m289.578 404.884c-1.1 1.1-2.63 1.79-4.32 1.78l-32.96.01c-4.97-.06-7.1-5.01-5.57-8.61.63-1.52 1.92-2.8 3.92-3.38.52-.14 1.08-.22 1.65-.23l32.96-.01c2.65-.05 4.68 1.61 5.58 3.75.919 2.17.669 4.84-1.26 6.69z" fill="#2e3140"/><path d="m290.838 398.194c-.28.65-.7 1.25-1.26 1.79-1.1 1.1-2.63 1.79-4.32 1.78l-32.96.01c-2.84-.03-4.75-1.65-5.57-3.71.63-1.52 1.92-2.8 3.92-3.38.52-.14 1.08-.22 1.65-.23l32.96-.01c2.65-.05 4.68 1.61 5.58 3.75z" fill="#334353"/><path d="m280.735 396.606h-23.905c-1.426 0-2.582 1.156-2.582 2.582 0 1.426 1.156 2.582 2.582 2.582h23.905c1.426 0 2.582-1.156 2.582-2.582 0-1.426-1.156-2.582-2.582-2.582z" fill="#3e4e60"/></g><g><path d="m226.893 299.336c1.1 1.1 1.79 2.63 1.78 4.32l.01 32.96c-.06 4.97-5.01 7.1-8.61 5.57-1.52-.63-2.8-1.92-3.38-3.92-.14-.52-.22-1.08-.23-1.65l-.01-32.96c-.05-2.65 1.61-4.68 3.75-5.58 2.17-.92 4.84-.67 6.69 1.26z" fill="#2e3140"/><path d="m220.203 298.076c.65.28 1.25.7 1.79 1.26 1.1 1.1 1.79 2.63 1.78 4.32l.01 32.96c-.03 2.84-1.65 4.75-3.71 5.57-1.52-.63-2.8-1.92-3.38-3.92-.14-.52-.22-1.08-.23-1.65l-.01-32.96c-.05-2.65 1.61-4.68 3.75-5.58z" fill="#334353"/><path d="m218.615 308.178v23.905c0 1.426 1.156 2.582 2.582 2.582 1.426 0 2.582-1.156 2.582-2.582v-23.905c0-1.426-1.156-2.582-2.582-2.582-1.426.001-2.582 1.156-2.582 2.582z" fill="#3e4e60"/></g><g><path d="m263.925 299.336c1.1 1.1 1.79 2.63 1.78 4.32l.01 32.96c-.06 4.97-5.01 7.1-8.61 5.57-1.52-.63-2.8-1.92-3.38-3.92-.14-.52-.22-1.08-.23-1.65l-.01-32.96c-.05-2.65 1.61-4.68 3.75-5.58 2.17-.92 4.84-.67 6.69 1.26z" fill="#2e3140"/><path d="m257.235 298.076c.65.28 1.25.7 1.79 1.26 1.1 1.1 1.79 2.63 1.78 4.32l.01 32.96c-.03 2.84-1.65 4.75-3.71 5.57-1.52-.63-2.8-1.92-3.38-3.92-.14-.52-.22-1.08-.23-1.65l-.01-32.96c-.051-2.65 1.61-4.68 3.75-5.58z" fill="#334353"/><path d="m255.646 308.178v23.905c0 1.426 1.156 2.582 2.582 2.582 1.426 0 2.582-1.156 2.582-2.582v-23.905c0-1.426-1.156-2.582-2.582-2.582-1.426.001-2.582 1.156-2.582 2.582z" fill="#3e4e60"/></g><g><path d="m254.025 186.345c1.1 1.1 1.79 2.63 1.78 4.32l.01 32.96c-.06 4.97-5.01 7.1-8.61 5.57-1.52-.63-2.8-1.92-3.38-3.92-.14-.52-.22-1.08-.23-1.65l-.01-32.96c-.05-2.65 1.61-4.68 3.75-5.58 2.17-.92 4.84-.67 6.69 1.26z" fill="#2e3140"/><path d="m247.335 185.085c.65.28 1.25.7 1.79 1.26 1.1 1.1 1.79 2.63 1.78 4.32l.01 32.96c-.03 2.84-1.65 4.75-3.71 5.57-1.52-.63-2.8-1.92-3.38-3.92-.14-.52-.22-1.08-.23-1.65l-.01-32.96c-.05-2.65 1.61-4.68 3.75-5.58z" fill="#334353"/><path d="m245.747 195.187v23.905c0 1.426 1.156 2.582 2.582 2.582 1.426 0 2.582-1.156 2.582-2.582v-23.905c0-1.426-1.156-2.582-2.582-2.582-1.426.001-2.582 1.157-2.582 2.582z" fill="#3e4e60"/></g><g><path d="m291.057 186.345c1.1 1.1 1.79 2.63 1.78 4.32l.01 32.96c-.06 4.97-5.01 7.1-8.61 5.57-1.52-.63-2.8-1.92-3.38-3.92-.14-.52-.22-1.08-.23-1.65l-.01-32.96c-.05-2.65 1.61-4.68 3.75-5.58 2.17-.92 4.84-.67 6.69 1.26z" fill="#2e3140"/><path d="m284.367 185.085c.65.28 1.25.7 1.79 1.26 1.1 1.1 1.79 2.63 1.78 4.32l.01 32.96c-.03 2.84-1.65 4.75-3.71 5.57-1.52-.63-2.8-1.92-3.38-3.92-.14-.52-.22-1.08-.23-1.65l-.01-32.96c-.05-2.65 1.61-4.68 3.75-5.58z" fill="#334353"/><path d="m282.779 195.187v23.905c0 1.426 1.156 2.582 2.582 2.582 1.426 0 2.582-1.156 2.582-2.582v-23.905c0-1.426-1.156-2.582-2.582-2.582-1.427.001-2.582 1.157-2.582 2.582z" fill="#3e4e60"/></g><g><path d="m333.498 191.216c.846 1.305 1.202 2.946.839 4.596l-6.868 32.236c-1.096 4.848-6.382 5.898-9.583 3.65-1.355-.933-2.337-2.462-2.487-4.539-.029-.538.01-1.102.119-1.662l6.869-32.236c.504-2.602 2.551-4.241 4.832-4.675 2.313-.445 4.872.356 6.279 2.63z" fill="#2e3140"/><path d="m327.218 188.588c.577.409 1.076.945 1.487 1.606.846 1.305 1.202 2.946.84 4.596l-6.869 32.236c-.622 2.771-2.605 4.301-4.791 4.673-1.355-.933-2.337-2.462-2.487-4.539-.029-.538.01-1.102.119-1.662l6.869-32.236c.504-2.602 2.551-4.241 4.832-4.674z" fill="#334353"/><path d="m323.556 198.136-4.989 23.379c-.298 1.394.592 2.766 1.986 3.064 1.394.298 2.766-.592 3.064-1.986l4.989-23.379c.298-1.394-.592-2.766-1.986-3.064-1.395-.297-2.766.592-3.064 1.986z" fill="#3e4e60"/></g><g><path d="m373.748 213.885c.145 1.549-.3 3.167-1.387 4.462l-21.028 25.381c-3.218 3.788-8.388 2.268-10.183-1.207-.768-1.455-.93-3.265-.1-5.175.224-.49.52-.972.876-1.417l21.029-25.38c1.653-2.072 4.226-2.576 6.448-1.902 2.257.675 4.152 2.571 4.345 5.238z" fill="#2e3140"/><path d="m369.402 208.645c.322.63.516 1.337.573 2.112.145 1.549-.3 3.167-1.387 4.462l-21.028 25.381c-1.835 2.167-4.302 2.604-6.411 1.92-.768-1.455-.93-3.265-.1-5.175.224-.49.52-.972.876-1.417l21.029-25.38c1.652-2.073 4.226-2.576 6.448-1.903z" fill="#334353"/><path d="m361.731 215.409-15.257 18.403c-.91 1.098-.758 2.725.34 3.635 1.098.91 2.725.758 3.635-.34l15.257-18.403c.91-1.098.758-2.725-.34-3.635-1.097-.91-2.725-.758-3.635.34z" fill="#3e4e60"/></g><g><path d="m397.323 252.621c-.587 1.44-1.729 2.67-3.291 3.317l-30.373 12.799c-4.604 1.873-8.488-1.863-8.475-5.774-.009-1.645.683-3.325 2.301-4.636.425-.331.91-.622 1.431-.852l30.374-12.799c2.423-1.075 4.938-.332 6.598 1.291 1.69 1.642 2.496 4.2 1.435 6.654z" fill="#2e3140"/><path d="m395.888 245.966c-.006.708-.16 1.424-.467 2.138-.587 1.441-1.729 2.67-3.291 3.317l-30.374 12.799c-2.629 1.075-5.018.323-6.573-1.258-.009-1.645.683-3.325 2.301-4.636.425-.331.91-.622 1.431-.852l30.374-12.799c2.424-1.074 4.94-.332 6.599 1.291z" fill="#334353"/><path d="m385.961 248.422-22.032 9.276c-1.314.553-1.931 2.067-1.378 3.381.553 1.314 2.067 1.931 3.381 1.378l22.032-9.276c1.314-.553 1.931-2.067 1.378-3.381-.553-1.314-2.067-1.931-3.381-1.378z" fill="#3e4e60"/></g><g><path d="m154.167 259.143c-.844 1.307-2.194 2.304-3.848 2.65l-32.218 6.954c-4.871.988-7.996-3.402-7.259-7.244.296-1.619 1.287-3.141 3.12-4.13.479-.247 1.01-.442 1.564-.572l32.218-6.953c2.58-.607 4.914.588 6.245 2.49 1.357 1.927 1.675 4.59.178 6.805z" fill="#2e3140"/><path d="m153.989 252.338c-.137.694-.421 1.369-.855 2.015-.843 1.307-2.194 2.304-3.848 2.65l-32.218 6.953c-2.782.569-4.991-.612-6.226-2.453.296-1.619 1.287-3.141 3.12-4.13.479-.247 1.01-.442 1.564-.572l32.218-6.953c2.581-.608 4.915.587 6.245 2.49z" fill="#334353"/><path d="m143.779 252.913-23.368 5.036c-1.394.3-2.28 1.674-1.98 3.068.3 1.394 1.674 2.28 3.068 1.98l23.368-5.036c1.394-.3 2.28-1.674 1.98-3.068-.301-1.394-1.674-2.28-3.068-1.98z" fill="#3e4e60"/></g><g><path d="m168.368 285.786c-.26 1.533-1.108 2.982-2.492 3.952l-26.868 19.091c-4.087 2.828-8.69.025-9.526-3.796-.366-1.604-.056-3.394 1.239-5.025.343-.415.753-.804 1.212-1.143l26.869-19.09c2.132-1.575 4.748-1.397 6.721-.173 2.005 1.237 3.347 3.558 2.845 6.184z" fill="#2e3140"/><path d="m165.522 279.602c.148.692.153 1.424.009 2.189-.26 1.534-1.108 2.982-2.492 3.953l-26.869 19.09c-2.333 1.62-4.828 1.405-6.689.2-.366-1.604-.056-3.394 1.239-5.025.343-.415.753-.804 1.212-1.143l26.869-19.09c2.132-1.576 4.748-1.398 6.721-.174z" fill="#334353"/><path d="m156.365 284.156-19.491 13.84c-1.163.826-1.436 2.437-.61 3.6.826 1.163 2.437 1.436 3.6.61l19.491-13.84c1.163-.826 1.436-2.437.61-3.6-.826-1.163-2.437-1.436-3.6-.61z" fill="#3e4e60"/></g><g><path d="m195.83 298.91c.546 1.456.541 3.135-.168 4.669l-13.633 30.008c-2.112 4.499-7.5 4.389-10.144 1.506-1.123-1.203-1.754-2.907-1.454-4.967.088-.531.247-1.074.474-1.597l13.634-30.008c1.051-2.433 3.403-3.594 5.723-3.527 2.355.061 4.682 1.394 5.568 3.916z" fill="#2e3140"/><path d="m190.261 294.994c.476.524.848 1.155 1.108 1.888.546 1.457.541 3.135-.168 4.67l-13.634 30.008c-1.203 2.573-3.468 3.641-5.683 3.535-1.123-1.203-1.754-2.907-1.454-4.967.088-.531.247-1.074.474-1.597l13.634-30.008c1.051-2.435 3.403-3.595 5.723-3.529z" fill="#334353"/><path d="m184.634 303.533-9.895 21.761c-.59 1.298-.016 2.829 1.282 3.419 1.298.59 2.829.016 3.419-1.282l9.895-21.761c.59-1.298.016-2.829-1.282-3.419-1.298-.589-2.829-.016-3.419 1.282z" fill="#3e4e60"/></g></g><g><g><g><path d="m364.837 281.706v119.35c0 .9-.03 1.8-.09 2.68-.66 9.93-4.96 18.87-11.58 25.48-7.14 7.15-16.993 11.595-27.884 11.669-22.059.15-40.106-18.474-40.106-40.534v-83.175c0-7.738-6.272-14.01-14.01-14.01h-65.511c-32.143 0-58.199-26.057-58.199-58.199v-119.35c0-11 4.46-20.96 11.67-28.16 6.61-6.62 15.55-10.92 25.48-11.58.88-.06 1.78-.09 2.68-.09 22 0 39.83 17.83 39.83 39.83v83.88c0 7.737 6.272 14.01 14.01 14.01h65.511c32.143 0 58.199 26.057 58.199 58.199z" fill="#dd5e26"/><path d="m364.837 281.707v119.35c-3.81 0-7.5-.54-10.99-1.53-1.43-.41-2.82-.9-4.17-1.46-8.49-3.49-15.5-9.84-19.85-17.83-.53-.97-1.02-1.97-1.47-3-2.15-4.9-3.35-10.32-3.35-16.01v-64.19c0-4.02-.7-7.88-2-11.45-2.47-6.83-7.08-12.64-13.02-16.6-5.35-3.57-11.77-5.65-18.68-5.65h-74.35c-.57 0-1.14-.02-1.7-.05-7.94-.45-15.04-4.01-20.1-9.5-4.89-5.29-7.87-12.36-7.87-20.12v-147.88c22 0 39.83 17.83 39.83 39.83v83.88c0 7.74 6.27 14.01 14.01 14.01h65.51c32.14 0 58.2 26.06 58.2 58.2z" fill="#ea792e"/></g><g><g><path d="m227.117 125.617v40.02h-79.66v-40.02c0-11 4.46-20.96 11.67-28.16 6.59-6.6 15.49-10.89 25.39-11.57.91-.07 1.84-.1 2.77-.1 22.001 0 39.83 17.83 39.83 39.83z" fill="#bf5e39"/></g><path d="m227.117 125.617v40.02h-39.83v-79.85c22.001 0 39.83 17.83 39.83 39.83z" fill="#dd5e26"/></g></g><g><g><path d="m236.197 130.753v5.21c.031 4.976-4.117 9.049-9.013 9.019-4.98 0-9.012-4.039-9.012-9.019v-5.21c.419-11.901 17.561-11.978 18.025 0z" fill="#334353"/><path d="m236.197 130.753v5.21c-.011 3.615-2.101 6.758-5.273 8.202-3.11-1.415-5.273-4.556-5.273-8.202v-5.21c0-3.646 2.163-6.781 5.273-8.196 3.11 1.415 5.273 4.55 5.273 8.196z" fill="#3e4e60"/></g><g><path d="m138.378 135.97v-5.21c-.031-4.976 4.117-9.049 9.013-9.019 4.98 0 9.012 4.039 9.012 9.019v5.21c-.419 11.901-17.561 11.978-18.025 0z" fill="#2e3140"/><path d="m138.378 135.97v-5.21c.011-3.615 2.101-6.758 5.273-8.202 3.11 1.415 5.273 4.556 5.273 8.202v5.21c0 3.646-2.163 6.781-5.273 8.196-3.111-1.415-5.273-4.55-5.273-8.196z" fill="#334353"/></g></g><g><g><path d="m228.232 77.22c0 1.559-.595 3.126-1.792 4.315l-23.304 23.312c-5.054 4.949-13.029-1.182-9.643-7.304.265-.474.603-.924 1.004-1.334l23.304-23.312c3.701-3.845 10.545-.995 10.431 4.323z" fill="#ea792e"/><path d="m227.444 74.231c-.265.474-.603.924-1.004 1.326l-23.304 23.312c-2.774 2.862-7.751 2.16-9.643-1.326.265-.474.603-.924 1.004-1.334l23.304-23.312c2.765-2.848 7.769-2.16 9.643 1.334z" fill="#f39e22"/></g><g><path d="m180.065 104.847c-2.379 2.387-6.252 2.387-8.638 0l-23.304-23.312c-2.411-2.382-2.339-6.33 0-8.638 2.391-2.38 6.256-2.378 8.638 0 0 0 23.304 23.312 23.304 23.312 2.332 2.317 2.417 6.246 0 8.638z" fill="#dd5e26"/><path d="m181.07 97.543c-1.895 3.485-6.867 4.189-9.643 1.326 0 0-23.304-23.311-23.304-23.311-.402-.402-.739-.852-1.004-1.326 1.877-3.495 6.882-4.182 9.643-1.334 0 0 23.304 23.311 23.304 23.311.401.41.739.86 1.004 1.334z" fill="#ea792e"/></g></g><g><g><g><path d="m210.471 175.324h-23.183v20.943h23.183c5.783 0 10.471-4.688 10.471-10.471 0-5.784-4.688-10.472-10.471-10.472z" fill="#f39e22"/><path d="m164.104 196.266h23.183v-20.943h-23.183c-5.783 0-10.471 4.688-10.471 10.471 0 5.784 4.688 10.472 10.471 10.472z" fill="#ea792e"/></g><g><path d="m210.471 212.356h-23.183v20.943h23.183c5.783 0 10.471-4.688 10.471-10.471 0-5.784-4.688-10.472-10.471-10.472z" fill="#f39e22"/><path d="m164.104 233.298h23.183v-20.943h-23.183c-5.783 0-10.471 4.688-10.471 10.471 0 5.784 4.688 10.472 10.471 10.472z" fill="#ea792e"/></g></g><g><g><path d="m234.019 240.154v23.183h20.943v-23.183c0-5.783-4.688-10.471-10.471-10.471-5.784-.001-10.472 4.687-10.472 10.471z" fill="#f39e22"/><path d="m254.961 286.52v-23.183h-20.943v23.183c0 5.783 4.688 10.471 10.471 10.471 5.784.001 10.472-4.688 10.472-10.471z" fill="#ea792e"/></g><g><path d="m271.05 240.154v23.183h20.943v-23.183c0-5.783-4.688-10.471-10.471-10.471-5.783-.001-10.472 4.687-10.472 10.471z" fill="#f39e22"/><path d="m291.993 286.52v-23.183h-20.943v23.183c0 5.783 4.688 10.471 10.471 10.471 5.784.001 10.472-4.688 10.472-10.471z" fill="#ea792e"/></g></g><g><g><path d="m348.191 377.238h-46.367c-5.783 0-10.471 4.688-10.471 10.471s4.688 10.471 10.471 10.471h46.367c5.783 0 10.471-4.688 10.471-10.471s-4.688-10.471-10.471-10.471z" fill="#ea792e"/><path d="m358.657 387.707c0 5.28-3.9 9.64-8.98 10.36-8.49-3.49-15.5-9.84-19.85-17.83-.53-.97-1.02-1.97-1.47-3h19.83c5.79 0 10.47 4.69 10.47 10.47z" fill="#f39e22"/></g><g><path d="m348.191 340.206h-23.183v20.943h23.183c5.783 0 10.471-4.688 10.471-10.471 0-5.784-4.688-10.472-10.471-10.472z" fill="#f39e22"/><path d="m301.824 361.149h23.183v-20.943h-23.183c-5.783 0-10.471 4.688-10.471 10.471 0 5.783 4.688 10.472 10.471 10.472z" fill="#ea792e"/></g><g><path d="m348.191 303.174h-23.183v20.943h23.183c5.783 0 10.471-4.688 10.471-10.471 0-5.784-4.688-10.472-10.471-10.472z" fill="#f39e22"/><path d="m301.824 324.117h23.183v-20.943h-23.183c-5.783 0-10.471 4.688-10.471 10.471 0 5.784 4.688 10.472 10.471 10.472z" fill="#ea792e"/></g></g><g><path d="m330.497 248.477-27.933 27.933c-4.089 4.089-4.09 10.719 0 14.809 4.089 4.089 10.719 4.089 14.809 0l27.933-27.933c4.089-4.089 4.09-10.719 0-14.809s-10.72-4.09-14.809 0z" fill="#ea792e"/><path d="m345.307 263.287-22.3 22.3c-2.47-6.83-7.08-12.64-13.02-16.6l20.51-20.51c4.09-4.09 10.72-4.09 14.81 0s4.09 10.72 0 14.81z" fill="#f39e22"/></g><g><path d="m205.313 243.623-27.231 27.231c-4.089 4.089-4.09 10.719 0 14.809 4.089 4.089 10.719 4.089 14.809 0l27.231-27.231c4.089-4.089 4.09-10.719 0-14.809-4.089-4.089-10.719-4.089-14.809 0z" fill="#ea792e"/><path d="m220.117 258.427-4.86 4.86c-7.94-.45-15.04-4.01-20.1-9.5l10.16-10.16c4.09-4.09 10.72-4.09 14.8 0 4.09 4.09 4.09 10.72 0 14.8z" fill="#f39e22"/></g></g></g></g></g></svg>