<svg id="Icons" enable-background="new 0 0 512 512" height="512" viewBox="0 0 512 512" width="512" xmlns="http://www.w3.org/2000/svg"><g><circle cx="256" cy="256" fill="#ee6781" r="256"/><g><g><g><g><path d="m287.79 309.82c0 1.94-.39 3.78-1.08 5.47-.47 1.13-1.09 2.18-1.81 3.15-2.61 3.45-6.75 5.68-11.41 5.68h-34.98c-3.95 0-7.53-1.6-10.11-4.19-2.59-2.59-4.19-6.16-4.19-10.11 0-7.38 5.6-13.46 12.79-14.22.49-.05 1-.08 1.51-.08h34.98c3.95 0 7.53 1.6 10.11 4.19 2.59 2.59 4.19 6.17 4.19 10.11z" fill="#c44a1a"/><path d="m287.79 309.82c0 1.94-.39 3.78-1.08 5.47h-34.25c-3.95 0-7.53-1.6-10.11-4.19-2.59-2.59-4.19-6.16-4.19-10.11 0-1.94.39-3.78 1.09-5.47h34.24c3.95 0 7.53 1.6 10.11 4.19 2.59 2.59 4.19 6.17 4.19 10.11z" fill="#dd5e26"/><path d="m275.718 309.82h-23.336c-2.876 0-5.207-2.331-5.207-5.207 0-2.876 2.331-5.207 5.207-5.207h23.336c2.876 0 5.207 2.331 5.207 5.207 0 2.876-2.331 5.207-5.207 5.207z" fill="#ea792e"/></g><g><path d="m283.557 336.516c0 1.682-.338 3.277-.936 4.742-.407.979-.945 1.889-1.569 2.73-2.262 2.991-5.851 4.924-9.891 4.924h-30.322c-3.424 0-6.527-1.387-8.764-3.632-2.245-2.245-3.632-5.34-3.632-8.764 0-6.397 4.854-11.668 11.087-12.326.425-.044.867-.069 1.309-.069h30.322c3.424 0 6.527 1.387 8.764 3.632 2.245 2.244 3.632 5.348 3.632 8.763z" fill="#c44a1a"/><path d="m283.557 336.516c0 1.682-.338 3.277-.936 4.742h-29.689c-3.424 0-6.527-1.387-8.764-3.632-2.245-2.245-3.632-5.34-3.632-8.764 0-1.682.338-3.277.945-4.742h29.681c3.424 0 6.527 1.387 8.764 3.632 2.244 2.245 3.631 5.349 3.631 8.764z" fill="#dd5e26"/><path d="m273.092 336.516h-20.229c-2.493 0-4.514-2.021-4.514-4.514 0-2.493 2.021-4.514 4.514-4.514h20.229c2.493 0 4.514 2.021 4.514 4.514 0 2.493-2.021 4.514-4.514 4.514z" fill="#ea792e"/></g><g><path d="m280.799 360.067c0 1.513-.304 2.949-.843 4.267-.367.881-.85 1.7-1.412 2.457-2.036 2.691-5.266 4.431-8.901 4.431h-27.287c-3.081 0-5.874-1.248-7.887-3.269-2.02-2.021-3.269-4.805-3.269-7.887 0-5.757 4.369-10.5 9.977-11.093.382-.039.78-.062 1.178-.062h27.287c3.081 0 5.874 1.248 7.887 3.269 2.022 2.021 3.27 4.814 3.27 7.887z" fill="#c44a1a"/><path d="m280.799 360.067c0 1.513-.304 2.949-.843 4.267h-26.718c-3.081 0-5.874-1.248-7.887-3.269-2.02-2.021-3.269-4.805-3.269-7.887 0-1.514.304-2.949.85-4.267h26.71c3.081 0 5.874 1.248 7.887 3.269 2.022 2.021 3.27 4.814 3.27 7.887z" fill="#dd5e26"/><path d="m271.382 360.067h-18.204c-2.243 0-4.062-1.819-4.062-4.062 0-2.243 1.819-4.062 4.062-4.062h18.204c2.243 0 4.062 1.819 4.062 4.062 0 2.244-1.819 4.062-4.062 4.062z" fill="#ea792e"/></g><g><path d="m277.73 380.997c0 1.326-.267 2.584-.738 3.739-.321.772-.745 1.49-1.237 2.153-1.784 2.358-4.614 3.883-7.799 3.883h-23.911c-2.7 0-5.147-1.094-6.911-2.864-1.77-1.771-2.864-4.211-2.864-6.911 0-5.045 3.828-9.201 8.743-9.72.335-.034.684-.055 1.032-.055h23.911c2.7 0 5.147 1.094 6.911 2.864 1.77 1.771 2.863 4.218 2.863 6.911z" fill="#c44a1a"/><path d="m277.73 380.997c0 1.326-.267 2.584-.738 3.739h-23.412c-2.7 0-5.147-1.094-6.911-2.864-1.77-1.771-2.864-4.211-2.864-6.911 0-1.326.267-2.584.745-3.739h23.405c2.7 0 5.147 1.094 6.911 2.864 1.771 1.771 2.864 4.218 2.864 6.911z" fill="#dd5e26"/><path d="m269.478 380.997h-15.951c-1.966 0-3.559-1.594-3.559-3.56 0-1.966 1.594-3.56 3.559-3.56h15.951c1.966 0 3.56 1.594 3.56 3.56 0 1.967-1.594 3.56-3.56 3.56z" fill="#ea792e"/></g><g><path d="m275.64 399.607c0 1.199-.241 2.336-.667 3.38-.29.698-.673 1.347-1.118 1.946-1.612 2.132-4.17 3.509-7.049 3.509h-21.611c-2.44 0-4.652-.989-6.246-2.589-1.6-1.6-2.589-3.806-2.589-6.246 0-4.559 3.46-8.316 7.902-8.785.303-.031.618-.049.933-.049h21.611c2.44 0 4.652.989 6.246 2.589 1.6 1.599 2.588 3.811 2.588 6.245z" fill="#c44a1a"/><path d="m275.64 399.607c0 1.199-.241 2.336-.667 3.38h-21.16c-2.44 0-4.652-.989-6.246-2.589-1.6-1.6-2.589-3.806-2.589-6.246 0-1.199.241-2.335.673-3.38h21.154c2.44 0 4.652.989 6.246 2.589 1.601 1.6 2.589 3.812 2.589 6.246z" fill="#dd5e26"/><path d="m268.182 399.607h-14.417c-1.777 0-3.217-1.44-3.217-3.217 0-1.777 1.44-3.217 3.217-3.217h14.417c1.777 0 3.217 1.44 3.217 3.217 0 1.777-1.44 3.217-3.217 3.217z" fill="#ea792e"/></g></g><g><path d="m228.884 471.117 37.045-46.902c2.829-3.578 3.472-8.252 2.022-12.318-.615-1.761-1.633-3.401-3.026-4.794-4.625-4.625-11.985-5.056-17.112-1.004l-46.902 37.045c-6.053 4.78-6.583 13.781-1.124 19.24l9.857 9.857c5.459 5.459 14.46 4.929 19.24-1.124z" fill="#c44a1a"/><path d="m228.884 471.117 37.045-46.902c2.829-3.578 3.472-8.252 2.022-12.318-4.066-1.45-8.733-.799-12.318 2.022l-46.902 37.045c-6.053 4.78-6.576 13.789-1.117 19.247l2.029 2.029c5.46 5.46 14.461 4.93 19.241-1.123z" fill="#dd5e26"/><path d="m213.536 466.265c2.546 2.546 6.743 2.3 8.975-.525l27.279-30.272c1.221-1.546 1.092-3.762-.302-5.155-1.393-1.393-3.609-1.523-5.155-.302l-30.272 27.279c-2.825 2.231-3.071 6.429-.525 8.975z" fill="#ea792e"/></g><g><path d="m323.79 452.3c-.06.08-.14.16-.21.23l-10.01 10.01c-14.88 14.88-35.06 23.24-56.1 23.24h-27.42c-9.09 0-16.46-7.37-16.46-16.46 0-7.7 5.33-14.29 12.71-16.02.48-.11.97-.2 1.47-.27l14.89-2.08 74.9-10.48c1.56-.22 2.98.05 4.18.65 3.91 1.97 5.49 7.47 2.05 11.18z" fill="#c44a1a"/><path d="m323.79 452.3c-12.16 9.46-27.18 14.68-42.75 14.68h-24.05c-7.97 0-14.43-6.46-14.43-14.43 0-.54.03-1.07.1-1.6l74.9-10.48c1.56-.22 2.98.05 4.18.65 3.91 1.97 5.49 7.47 2.05 11.18z" fill="#dd5e26"/><path d="m269.219 461.771 29.047-4.063c2.446-.342 4.266-2.434 4.266-4.904 0-3.008-2.659-5.321-5.638-4.904l-29.047 4.063c-2.446.342-4.266 2.434-4.266 4.904 0 3.008 2.66 5.321 5.638 4.904z" fill="#ea792e"/></g><g><path d="m325.58 442.19c0 1.09-.22 2.16-.65 3.15-.87 2.09-2.62 3.81-4.97 4.57-.83.27-1.67.4-2.5.4-3.63 0-6.96-2.46-7.88-6.19-2.34-9.55-.53-19.64 4.97-27.78l4.89-7.23c.8-1.19 2.25-1.15 3.12-.42.54.45.86 1.18.67 2.04l-1.14 5.24c-1.54 7.09-.83 14.47 2.02 21.14l.81 1.89c.45 1.04.66 2.13.66 3.19z" fill="#2e3140"/><path d="m325.58 442.19c0 1.09-.22 2.16-.65 3.15-4.13.7-8.21-1.88-9.23-6.07v-.01c-2.34-9.54-.54-19.63 4.97-27.77l1.89-2.8c.54.45.86 1.18.67 2.04l-1.14 5.24c-1.54 7.09-.83 14.47 2.02 21.14l.81 1.89c.45 1.04.66 2.13.66 3.19z" fill="#334353"/><path d="m318.288 430.724c1.914-.045 3.413-1.704 3.208-3.608-.399-3.7-.206-7.462.594-11.146l1.14-5.24c.19-.86-.13-1.59-.67-2.04l-1.89 2.8c-3.181 4.699-5.126 10.049-5.751 15.567-.225 1.987 1.371 3.713 3.369 3.667z" fill="#3f5d77"/></g></g><g><g><g><g><path d="m334.01 302.638c-3.683 3.679-9.646 3.683-13.326 0l-30.007-30.007 13.326-13.326 30.007 30.007c3.729 3.706 3.613 9.744 0 13.326z" fill="#2e3140"/><path d="m336.128 299.385c-3.441 1.329-7.362.58-10.073-2.118l-30.007-30.007 7.955-7.955 30.007 30.007c2.727 2.727 3.429 6.705 2.118 10.073z" fill="#334353"/><path d="m321.005 292.217-16.563-16.563c-3.6-3.825 1.789-9.229 5.624-5.624 0 0 16.563 16.563 16.563 16.563 3.6 3.825-1.788 9.229-5.624 5.624z" fill="#3e4e60"/></g><g><path d="m334.483 311.816v30.788c0 2.604-1.586 4.842-3.837 5.801-4.01 1.783-8.849-1.377-8.751-5.801v-30.788c0-1.736.705-3.308 1.847-4.444 3.776-3.918 10.798-1.153 10.741 4.444z" fill="#3e4e60"/><path d="m334.483 311.816v30.788c0 2.604-1.586 4.842-3.837 5.801-2.251-.959-3.837-3.197-3.837-5.801v-30.788c.004-2.584 1.55-4.804 3.837-5.795 2.251.96 3.837 3.192 3.837 5.795z" fill="#3f5d77"/><path d="m329.308 340.181c-1.38 0-2.499-1.119-2.499-2.499v-21.358c0-1.38 1.119-2.499 2.499-2.499s2.499 1.119 2.499 2.499v21.358c0 1.38-1.119 2.499-2.499 2.499z" fill="#3f6c8e"/></g><g><g fill="#3e4e60"><path d="m365.786 382.378c.715-.715.715-1.874 0-2.588l-7.5-7.5-2.588 2.588 7.5 7.5c.715.714 1.874.714 2.588 0z"/><path d="m361.04 387.124c.715-.715.715-1.874 0-2.588l-7.5-7.5-2.588 2.588 7.5 7.5c.715.714 1.874.714 2.588 0z"/></g><g fill="#c44a1a"><path d="m358.544 375.082c-.873.882-3.813 3.82-4.738 4.744-1.233 1.233-3.23 1.233-4.463 0l-2.343-2.342c-5.824-6.255 2.831-14.991 9.149-9.149 0 0 2.343 2.343 2.343 2.343 1.214 1.213 1.233 3.171.052 4.404z"/><path d="m349.343 365.992c-1.304 1.311-3.366 3.361-4.685 4.685-1.233 1.233-3.23 1.233-4.464 0l-2.343-2.343c-5.823-6.253 2.831-14.988 9.149-9.142 0 0 2.343 2.343 2.343 2.343 1.233 1.227 1.233 3.224 0 4.457z"/><path d="m340.194 356.844c-1.305 1.318-3.362 3.363-4.685 4.692-1.233 1.227-3.23 1.227-4.457 0l-2.349-2.343c-5.822-6.254 2.828-14.997 9.149-9.148 0 0 2.343 2.343 2.343 2.343 1.232 1.232 1.232 3.228-.001 4.456z"/></g><path d="m357.226 376.411c-1.232 1.223-3.235 1.223-4.457 0l-2.349-2.349c-1.92-1.92-2.386-4.748-1.375-7.106 2.359-1.037 5.265-.479 7.101 1.38l2.344 2.344c1.207 1.214 1.233 3.164.055 4.402 0 0-.041.041-.041.041z" fill="#dd5e26"/><path d="m349.345 365.992-1.269 1.269c-1.227 1.227-3.225 1.232-4.457 0l-2.344-2.344c-1.92-1.92-2.381-4.753-1.38-7.111 2.359-1.021 5.272-.48 7.106 1.384 0 0 2.344 2.344 2.344 2.344 1.235 1.233 1.223 3.237 0 4.458z" fill="#dd5e26"/><path d="m338.936 358.111c-1.236 1.22-3.225 1.245-4.467 0l-2.344-2.344c-1.915-1.915-2.376-4.748-1.38-7.111 2.361-1.014 5.273-.476 7.106 1.384 0 0 2.344 2.344 2.344 2.344 1.23 1.229 1.228 3.233 0 4.457z" fill="#dd5e26"/><g fill="#ea792e"><path d="m340.491 355.55c-1.481 1.481-3.89 1.481-5.376-.004-2.071-1.959-1.055-5.683 1.689-6.349.807.45 2.692 2.539 3.392 3.188.839.877 1.383 2.32.295 3.165z"/><path d="m349.636 364.695c-1.481 1.481-3.89 1.481-5.371 0-2.076-1.965-1.062-5.686 1.684-6.354.808.45 2.695 2.543 3.396 3.193.848.887 1.378 2.313.291 3.161z"/><path d="m358.782 373.841c-1.481 1.481-3.885 1.486-5.371 0-2.071-1.959-1.055-5.683 1.689-6.349.808.45 2.692 2.539 3.392 3.188.843.883 1.376 2.313.29 3.161z"/></g></g></g><g><g><path d="m177.99 302.638c3.683 3.679 9.646 3.683 13.326 0l30.007-30.007-13.326-13.326-30.007 30.007c-3.729 3.706-3.613 9.744 0 13.326z" fill="#2e3140"/><path d="m175.872 299.385c3.441 1.329 7.362.58 10.073-2.118l30.007-30.007-7.955-7.955-30.007 30.007c-2.727 2.727-3.429 6.705-2.118 10.073z" fill="#334353"/><path d="m190.995 292.217 16.563-16.563c3.6-3.825-1.789-9.229-5.624-5.624 0 0-16.563 16.563-16.563 16.563-3.6 3.825 1.788 9.229 5.624 5.624z" fill="#3e4e60"/></g><g><path d="m177.517 311.816v30.788c0 2.604 1.586 4.842 3.837 5.801 4.01 1.783 8.849-1.377 8.751-5.801v-30.788c0-1.736-.705-3.308-1.847-4.444-3.776-3.918-10.798-1.153-10.741 4.444z" fill="#3e4e60"/><path d="m177.517 311.816v30.788c0 2.604 1.586 4.842 3.837 5.801 2.251-.959 3.837-3.197 3.837-5.801v-30.788c-.004-2.584-1.55-4.804-3.837-5.795-2.251.96-3.837 3.192-3.837 5.795z" fill="#3f5d77"/><path d="m182.692 340.181c1.38 0 2.499-1.119 2.499-2.499v-21.358c0-1.38-1.119-2.499-2.499-2.499s-2.499 1.119-2.499 2.499v21.358c0 1.38 1.119 2.499 2.499 2.499z" fill="#3f6c8e"/></g><g><g fill="#3e4e60"><path d="m146.214 382.378c-.715-.715-.715-1.874 0-2.588l7.5-7.5 2.588 2.588-7.5 7.5c-.715.714-1.874.714-2.588 0z"/><path d="m150.96 387.124c-.715-.715-.715-1.874 0-2.588l7.5-7.5 2.588 2.588-7.5 7.5c-.715.714-1.874.714-2.588 0z"/></g><g fill="#c44a1a"><path d="m153.456 375.082c.873.882 3.813 3.82 4.738 4.744 1.233 1.233 3.23 1.233 4.463 0l2.343-2.343c5.824-6.255-2.831-14.991-9.149-9.149 0 0-2.343 2.343-2.343 2.343-1.214 1.214-1.233 3.172-.052 4.405z"/><path d="m162.657 365.992c1.304 1.311 3.366 3.361 4.685 4.685 1.233 1.233 3.23 1.233 4.464 0l2.343-2.343c5.823-6.253-2.831-14.988-9.149-9.142 0 0-2.343 2.343-2.343 2.343-1.233 1.227-1.233 3.224 0 4.457z"/><path d="m171.806 356.844c1.305 1.318 3.362 3.363 4.685 4.692 1.233 1.227 3.23 1.227 4.457 0l2.349-2.343c5.822-6.254-2.828-14.997-9.149-9.148 0 0-2.343 2.343-2.343 2.343-1.232 1.232-1.232 3.228.001 4.456z"/></g><path d="m154.774 376.411c1.232 1.223 3.235 1.223 4.457 0l2.349-2.349c1.92-1.92 2.386-4.748 1.375-7.106-2.359-1.037-5.265-.479-7.101 1.38l-2.344 2.344c-1.207 1.214-1.233 3.164-.055 4.402 0 0 .041.041.041.041z" fill="#dd5e26"/><path d="m162.655 365.992 1.269 1.269c1.227 1.227 3.225 1.232 4.457 0l2.344-2.344c1.92-1.92 2.381-4.753 1.38-7.111-2.359-1.021-5.272-.48-7.106 1.384 0 0-2.344 2.344-2.344 2.344-1.235 1.233-1.223 3.237 0 4.458z" fill="#dd5e26"/><path d="m173.064 358.111c1.236 1.22 3.225 1.245 4.467 0l2.344-2.344c1.915-1.915 2.376-4.748 1.38-7.111-2.361-1.014-5.273-.476-7.106 1.384 0 0-2.344 2.344-2.344 2.344-1.23 1.229-1.228 3.233 0 4.457z" fill="#dd5e26"/><g fill="#ea792e"><path d="m171.509 355.55c1.481 1.481 3.89 1.481 5.376-.004 2.071-1.959 1.055-5.683-1.689-6.349-.807.45-2.692 2.539-3.392 3.188-.839.877-1.383 2.32-.295 3.165z"/><path d="m162.364 364.695c1.481 1.481 3.89 1.481 5.371 0 2.076-1.965 1.062-5.686-1.684-6.354-.808.45-2.695 2.543-3.396 3.193-.848.887-1.378 2.313-.291 3.161z"/><path d="m153.218 373.841c1.481 1.481 3.885 1.486 5.371 0 2.071-1.959 1.055-5.683-1.689-6.349-.808.45-2.692 2.539-3.392 3.188-.843.883-1.376 2.313-.29 3.161z"/></g></g></g></g><g><g><g><path d="m356.764 243.853c-.003 5.206-4.216 9.425-9.423 9.423h-42.436v-18.846h42.436c5.257-.016 9.444 4.336 9.423 9.423z" fill="#2e3140"/><path d="m355.961 240.055c-1.494 3.373-4.795 5.616-8.62 5.625h-42.436v-11.25h42.436c3.856 0 7.165 2.316 8.62 5.625z" fill="#334353"/><path d="m340.199 245.68h-23.424c-5.25-.159-5.261-7.79 0-7.954h23.424c2.196 0 3.977 1.78 3.977 3.977 0 2.196-1.781 3.977-3.977 3.977z" fill="#3e4e60"/></g><g><path d="m356.764 259.566v30.788c-.325 8.368-12.289 8.319-12.588 0v-30.788c0-1.736.705-3.308 1.847-4.444 3.776-3.919 10.798-1.153 10.741 4.444z" fill="#3e4e60"/><path d="m356.764 259.566v30.788c0 2.604-1.586 4.842-3.837 5.801-2.251-.959-3.837-3.197-3.837-5.801v-30.788c.004-2.584 1.55-4.804 3.837-5.795 2.251.96 3.837 3.191 3.837 5.795z" fill="#3f5d77"/><path d="m351.589 287.93c-1.38 0-2.499-1.119-2.499-2.499v-21.358c0-1.38 1.119-2.499 2.499-2.499s2.499 1.119 2.499 2.499v21.358c0 1.38-1.119 2.499-2.499 2.499z" fill="#3f6c8e"/></g><g><g fill="#3e4e60"><path d="m388.067 330.127c.715-.715.715-1.874 0-2.588l-7.5-7.5-2.588 2.588 7.5 7.5c.715.715 1.874.715 2.588 0z"/><path d="m383.321 334.873c.715-.715.715-1.874 0-2.588l-7.5-7.5-2.588 2.588 7.5 7.5c.715.715 1.874.715 2.588 0z"/></g><g fill="#c44a1a"><path d="m380.825 322.832c-.873.882-3.813 3.82-4.738 4.744-1.233 1.233-3.23 1.233-4.463 0l-2.343-2.343c-5.832-6.235 2.85-15 9.149-9.149 0 0 2.343 2.342 2.343 2.342 1.214 1.215 1.233 3.172.052 4.406z"/><path d="m371.624 313.742c-1.304 1.311-3.366 3.361-4.685 4.685-1.233 1.233-3.23 1.233-4.464 0l-2.343-2.343c-5.831-6.233 2.851-14.997 9.149-9.142 0 0 2.343 2.343 2.343 2.343 1.233 1.227 1.233 3.224 0 4.457z"/><path d="m362.475 304.593c-1.305 1.318-3.362 3.363-4.685 4.692-1.233 1.227-3.23 1.227-4.457 0l-2.349-2.343c-5.831-6.233 2.847-15.006 9.149-9.148 0 0 2.343 2.342 2.343 2.342 1.233 1.233 1.233 3.23-.001 4.457z"/></g><path d="m379.508 324.161c-1.232 1.223-3.235 1.223-4.457 0l-2.349-2.349c-1.92-1.92-2.386-4.748-1.375-7.106 2.359-1.037 5.265-.479 7.101 1.38l2.344 2.344c1.207 1.214 1.233 3.164.055 4.402l-.041.041z" fill="#dd5e26"/><path d="m371.626 313.742-1.269 1.269c-1.227 1.227-3.225 1.232-4.457 0l-2.344-2.344c-1.92-1.92-2.381-4.753-1.38-7.111 2.359-1.021 5.272-.48 7.106 1.384l2.344 2.344c1.235 1.233 1.223 3.237 0 4.458z" fill="#dd5e26"/><path d="m361.217 305.86c-1.236 1.22-3.225 1.245-4.467 0l-2.344-2.344c-1.915-1.915-2.376-4.748-1.38-7.111 2.361-1.014 5.273-.476 7.106 1.384 0 0 2.344 2.344 2.344 2.344 1.23 1.229 1.228 3.233 0 4.457z" fill="#dd5e26"/><g fill="#ea792e"><path d="m362.772 303.299c-1.481 1.481-3.89 1.481-5.376-.004-2.071-1.959-1.055-5.683 1.689-6.349.807.45 2.692 2.539 3.392 3.188.839.877 1.384 2.32.295 3.165z"/><path d="m371.917 312.445c-1.481 1.481-3.89 1.481-5.371 0-2.076-1.965-1.062-5.686 1.684-6.354.808.45 2.695 2.543 3.396 3.193.848.886 1.378 2.313.291 3.161z"/><path d="m381.063 321.59c-1.481 1.481-3.885 1.486-5.371 0-2.071-1.959-1.055-5.683 1.689-6.349.808.45 2.692 2.539 3.392 3.188.843.883 1.376 2.313.29 3.161z"/></g></g></g><g><g><path d="m155.236 243.853c.003 5.206 4.217 9.425 9.423 9.423h42.436v-18.846h-42.436c-5.257-.016-9.444 4.336-9.423 9.423z" fill="#2e3140"/><path d="m156.039 240.055c1.494 3.373 4.795 5.616 8.62 5.625h42.436v-11.25h-42.436c-3.856 0-7.165 2.316-8.62 5.625z" fill="#334353"/><path d="m171.801 245.68h23.424c5.25-.159 5.261-7.79 0-7.954h-23.424c-2.196 0-3.977 1.78-3.977 3.977 0 2.196 1.781 3.977 3.977 3.977z" fill="#3e4e60"/></g><g><path d="m155.236 259.566v30.788c.325 8.368 12.289 8.319 12.588 0v-30.788c0-1.736-.705-3.308-1.847-4.444-3.776-3.919-10.798-1.153-10.741 4.444z" fill="#3e4e60"/><path d="m155.236 259.566v30.788c0 2.604 1.586 4.842 3.837 5.801 2.251-.959 3.837-3.197 3.837-5.801v-30.788c-.004-2.584-1.55-4.804-3.837-5.795-2.251.96-3.837 3.191-3.837 5.795z" fill="#3f5d77"/><path d="m160.411 287.93c1.38 0 2.499-1.119 2.499-2.499v-21.358c0-1.38-1.119-2.499-2.499-2.499s-2.499 1.119-2.499 2.499v21.358c0 1.38 1.119 2.499 2.499 2.499z" fill="#3f6c8e"/></g><g><g fill="#2e3140"><path d="m123.933 330.127c-.715-.715-.715-1.874 0-2.588l7.5-7.5 2.588 2.588-7.5 7.5c-.715.715-1.874.715-2.588 0z"/><path d="m128.679 334.873c-.715-.715-.715-1.874 0-2.588l7.5-7.5 2.588 2.588-7.5 7.5c-.715.715-1.874.715-2.588 0z"/></g><g fill="#c44a1a"><path d="m131.175 322.832c.873.882 3.813 3.82 4.738 4.744 1.233 1.233 3.23 1.233 4.463 0l2.343-2.343c5.832-6.235-2.85-15-9.149-9.149 0 0-2.343 2.342-2.343 2.342-1.214 1.215-1.233 3.172-.052 4.406z"/><path d="m140.376 313.742c1.304 1.311 3.366 3.361 4.685 4.685 1.233 1.233 3.23 1.233 4.464 0l2.343-2.343c5.831-6.233-2.851-14.997-9.149-9.142 0 0-2.343 2.343-2.343 2.343-1.233 1.227-1.233 3.224 0 4.457z"/><path d="m149.525 304.593c1.305 1.318 3.362 3.363 4.685 4.692 1.233 1.227 3.23 1.227 4.457 0l2.349-2.343c5.831-6.233-2.847-15.006-9.149-9.148 0 0-2.343 2.342-2.343 2.342-1.233 1.233-1.233 3.23.001 4.457z"/></g><path d="m132.492 324.161c1.232 1.223 3.235 1.223 4.457 0l2.349-2.349c1.92-1.92 2.386-4.748 1.375-7.106-2.359-1.037-5.265-.479-7.101 1.38l-2.344 2.344c-1.207 1.214-1.233 3.164-.055 4.402 0 0 .041.041.041.041z" fill="#dd5e26"/><path d="m140.374 313.742 1.269 1.269c1.227 1.227 3.225 1.232 4.457 0l2.344-2.344c1.92-1.92 2.381-4.753 1.38-7.111-2.359-1.021-5.272-.48-7.106 1.384l-2.344 2.344c-1.235 1.233-1.223 3.237 0 4.458z" fill="#dd5e26"/><path d="m150.783 305.86c1.236 1.22 3.225 1.245 4.467 0l2.344-2.344c1.915-1.915 2.376-4.748 1.38-7.111-2.361-1.014-5.273-.476-7.106 1.384 0 0-2.344 2.344-2.344 2.344-1.23 1.229-1.228 3.233 0 4.457z" fill="#dd5e26"/><g fill="#ea792e"><path d="m149.228 303.299c1.481 1.481 3.89 1.481 5.376-.004 2.071-1.959 1.055-5.683-1.689-6.349-.807.45-2.692 2.539-3.392 3.188-.839.877-1.384 2.32-.295 3.165z"/><path d="m140.083 312.445c1.481 1.481 3.89 1.481 5.371 0 2.076-1.965 1.062-5.686-1.684-6.354-.808.45-2.695 2.543-3.396 3.193-.848.886-1.378 2.313-.291 3.161z"/><path d="m130.937 321.59c1.481 1.481 3.885 1.486 5.371 0 2.071-1.959 1.055-5.683-1.689-6.349-.808.45-2.692 2.539-3.392 3.188-.843.883-1.376 2.313-.29 3.161z"/></g></g></g></g><g><g><g><path d="m156.24 211.589c.003 5.206 4.217 9.425 9.423 9.423h42.436v-18.846h-42.436c-5.257-.016-9.444 4.336-9.423 9.423z" fill="#2e3140"/><path d="m157.043 207.791c1.494 3.373 4.795 5.616 8.62 5.625h42.436v-11.25h-42.436c-3.857 0-7.165 2.317-8.62 5.625z" fill="#334353"/><path d="m172.805 213.416h23.424c5.25-.159 5.261-7.79 0-7.954h-23.424c-2.196 0-3.977 1.78-3.977 3.977s1.78 3.977 3.977 3.977z" fill="#3e4e60"/></g><g><path d="m160.512 194.292-21.77-21.77c-6.147-5.687-14.572 2.807-8.901 8.901 0 0 21.77 21.77 21.77 21.77 1.227 1.227 2.838 1.841 4.448 1.836 5.441.102 8.451-6.819 4.453-10.737z" fill="#3e4e60"/><path d="m160.512 194.292-21.77-21.77c-1.841-1.841-4.545-2.302-6.815-1.389-.914 2.27-.452 4.974 1.389 6.815l21.77 21.77c1.829 1.824 4.493 2.301 6.811 1.384.912-2.269.456-4.969-1.385-6.81z" fill="#3f5d77"/><path d="m136.796 177.895c-.976.976-.976 2.559 0 3.535l15.102 15.102c.976.976 2.559.976 3.535 0s.976-2.559 0-3.535l-15.102-15.102c-.976-.976-2.559-.976-3.535 0z" fill="#3f6c8e"/></g><g><g fill="#2e3140"><path d="m82.126 164.313c0-1.011.819-1.83 1.83-1.83h10.607v3.66h-10.607c-1.011 0-1.83-.819-1.83-1.83z"/><path d="m82.126 171.025c0-1.011.819-1.83 1.83-1.83h10.607v3.66h-10.607c-1.011 0-1.83-.819-1.83-1.83z"/></g><g fill="#c44a1a"><path d="m92.406 164.276c-.006 1.241-.005 5.397-.005 6.705 0 1.744 1.412 3.156 3.156 3.156h3.313c8.533-.284 8.592-12.622 0-12.938h-3.313c-1.716-.001-3.114 1.369-3.151 3.077z"/><path d="m105.339 164.354c-.005 1.849.004 4.756 0 6.626 0 1.744 1.412 3.156 3.156 3.156h3.313c8.53-.284 8.589-12.621-.005-12.934h-3.313c-1.739-.004-3.151 1.408-3.151 3.152z"/><path d="m118.278 164.354c-.009 1.854-.001 4.755-.005 6.631.005 1.74 1.417 3.151 3.152 3.152l3.318.004c8.53-.285 8.598-12.624 0-12.938h-3.313c-1.745 0-3.157 1.412-3.152 3.151z"/></g><path d="m92.398 166.147c.007 1.736 1.423 3.152 3.152 3.152h3.321c2.715 0 5.044-1.671 5.997-4.052-.935-2.401-3.384-4.062-5.997-4.046h-3.315c-1.712.005-3.11 1.365-3.152 3.074v.059z" fill="#dd5e26"/><path d="m105.338 164.353v1.795c0 1.736 1.41 3.152 3.152 3.152h3.315c2.715 0 5.044-1.677 6.004-4.052-.946-2.39-3.389-4.067-6.004-4.046h-3.315c-1.745-.003-3.153 1.423-3.152 3.151z" fill="#dd5e26"/><path d="m118.272 166.14c.012 1.736 1.4 3.16 3.158 3.159h3.315c2.708 0 5.038-1.677 6.004-4.052-.952-2.387-3.392-4.065-6.004-4.046h-3.315c-1.738-.001-3.154 1.418-3.152 3.152z" fill="#dd5e26"/><g fill="#ea792e"><path d="m118.983 163.23c0 2.095 1.703 3.798 3.804 3.798 2.85.079 4.765-3.272 3.295-5.684-.889-.253-3.699-.108-4.653-.144-1.213.027-2.619.663-2.446 2.03z"/><path d="m106.049 163.23c0 2.095 1.703 3.798 3.798 3.798 2.857.078 4.771-3.27 3.302-5.684-.889-.253-3.704-.108-4.659-.144-1.226.028-2.61.662-2.441 2.03z"/><path d="m93.116 163.23c0 2.095 1.697 3.798 3.798 3.798 2.85.079 4.765-3.272 3.295-5.684-.889-.253-3.699-.108-4.653-.144-1.221.028-2.609.662-2.44 2.03z"/></g></g></g><g><g><path d="m355.76 211.589c-.003 5.206-4.216 9.425-9.423 9.423h-42.436v-18.846h42.436c5.257-.016 9.444 4.336 9.423 9.423z" fill="#2e3140"/><path d="m354.957 207.791c-1.494 3.373-4.795 5.616-8.62 5.625h-42.436v-11.25h42.436c3.857 0 7.165 2.317 8.62 5.625z" fill="#334353"/><path d="m339.195 213.416h-23.424c-5.25-.159-5.261-7.79 0-7.954h23.424c2.196 0 3.977 1.78 3.977 3.977s-1.78 3.977-3.977 3.977z" fill="#3e4e60"/></g><g><path d="m351.488 194.292 21.77-21.77c6.147-5.687 14.572 2.807 8.901 8.901 0 0-21.77 21.77-21.77 21.77-1.227 1.227-2.838 1.841-4.448 1.836-5.441.102-8.451-6.819-4.453-10.737z" fill="#3e4e60"/><path d="m351.488 194.292 21.77-21.77c1.841-1.841 4.545-2.302 6.815-1.389.914 2.27.452 4.974-1.389 6.815l-21.77 21.77c-1.829 1.824-4.493 2.301-6.811 1.384-.912-2.269-.456-4.969 1.385-6.81z" fill="#3f5d77"/><path d="m375.204 177.895c.976.976.976 2.559 0 3.535l-15.102 15.102c-.976.976-2.559.976-3.535 0s-.976-2.559 0-3.535l15.102-15.102c.976-.976 2.559-.976 3.535 0z" fill="#3f6c8e"/></g><g><g fill="#3e4e60"><path d="m429.874 164.313c0-1.011-.819-1.83-1.83-1.83h-10.607v3.66h10.607c1.011 0 1.83-.819 1.83-1.83z"/><path d="m429.874 171.025c0-1.011-.819-1.83-1.83-1.83h-10.607v3.66h10.607c1.011 0 1.83-.819 1.83-1.83z"/></g><g fill="#c44a1a"><path d="m419.594 164.276c.006 1.241.005 5.397.005 6.705 0 1.744-1.412 3.156-3.156 3.156h-3.313c-8.533-.284-8.592-12.622 0-12.938h3.313c1.716-.001 3.114 1.369 3.151 3.077z"/><path d="m406.661 164.354c.005 1.849-.004 4.756 0 6.626 0 1.744-1.412 3.156-3.156 3.156h-3.313c-8.53-.284-8.589-12.621.005-12.934h3.313c1.739-.004 3.151 1.408 3.151 3.152z"/><path d="m393.722 164.354c.009 1.854.001 4.755.005 6.631-.005 1.74-1.417 3.151-3.152 3.152l-3.318.004c-8.53-.285-8.598-12.624 0-12.938h3.313c1.745 0 3.157 1.412 3.152 3.151z"/></g><path d="m419.602 166.147c-.007 1.736-1.423 3.152-3.152 3.152h-3.322c-2.715 0-5.044-1.671-5.997-4.052.935-2.401 3.384-4.062 5.997-4.046h3.315c1.712.005 3.11 1.365 3.152 3.074v.059z" fill="#dd5e26"/><path d="m406.662 164.353v1.795c0 1.736-1.41 3.152-3.152 3.152h-3.315c-2.715 0-5.044-1.677-6.004-4.052.946-2.39 3.389-4.067 6.004-4.046h3.315c1.745-.003 3.153 1.423 3.152 3.151z" fill="#dd5e26"/><path d="m393.728 166.14c-.012 1.736-1.4 3.16-3.158 3.159h-3.315c-2.708 0-5.038-1.677-6.004-4.052.952-2.387 3.392-4.065 6.004-4.046h3.315c1.738-.001 3.154 1.418 3.152 3.152z" fill="#dd5e26"/><g fill="#ea792e"><path d="m393.017 163.23c0 2.095-1.703 3.798-3.804 3.798-2.85.079-4.765-3.272-3.295-5.684.889-.253 3.699-.108 4.653-.144 1.213.027 2.619.663 2.446 2.03z"/><path d="m405.951 163.23c0 2.095-1.703 3.798-3.798 3.798-2.857.078-4.771-3.27-3.302-5.684.889-.253 3.704-.108 4.659-.144 1.226.028 2.61.662 2.441 2.03z"/><path d="m418.884 163.23c0 2.095-1.697 3.798-3.798 3.798-2.85.079-4.765-3.272-3.295-5.684.889-.253 3.699-.108 4.653-.144 1.221.028 2.609.662 2.44 2.03z"/></g></g></g></g></g><g><g><g><path d="m334.278 175.321c0 3.55-1.44 6.75-3.76 9.07s-5.54 3.76-9.08 3.76h-29.76v-25.66h29.76c5.7 0 10.54 3.72 12.21 8.86.41 1.25.63 2.58.63 3.97z" fill="#2e3140"/><path d="m333.648 171.351c-.63 1.95-1.72 3.69-3.13 5.1-2.32 2.32-5.54 3.76-9.08 3.76h-29.76v-17.72h29.76c5.7-.001 10.54 3.72 12.21 8.86z" fill="#334353"/><path d="m316.645 180.211h-13.213c-2.647 0-4.792-2.146-4.792-4.792 0-2.647 2.146-4.792 4.792-4.792h13.213c2.647 0 4.792 2.146 4.792 4.792.001 2.646-2.145 4.792-4.792 4.792z" fill="#3e4e60"/></g><g><path d="m343.463 141.03v23.9c0 5.07-4.11 9.18-9.18 9.18-1.26 0-2.46-.25-3.55-.71-3.31-1.39-5.64-4.66-5.64-8.47v-23.9c0-3.81 2.33-7.08 5.64-8.48 1.09-.46 2.29-.71 3.55-.71 2.53 0 4.83 1.03 6.49 2.69 1.66 1.67 2.69 3.96 2.69 6.5z" fill="#3e4e60"/><path d="m336.353 141.03v23.9c0 3.81-2.32 7.08-5.62 8.47-3.31-1.39-5.64-4.66-5.64-8.47v-23.9c0-3.81 2.33-7.08 5.64-8.48 1.1.47 2.1 1.15 2.93 1.98 1.66 1.67 2.69 3.96 2.69 6.5z" fill="#3f5d77"/><path d="m332.799 141.03c1.963 0 3.554 1.591 3.554 3.554v16.792c0 1.963-1.591 3.554-3.554 3.554-1.963 0-3.554-1.591-3.554-3.554v-16.792c0-1.963 1.591-3.554 3.554-3.554z" fill="#3f6c8e"/></g><g><path d="m362.982 120.09-16.9 16.9c-3.585 3.585-9.398 3.585-12.983 0-.891-.891-1.563-1.916-2.008-3.013-1.358-3.323-.693-7.283 2.001-9.977l16.9-16.9c2.694-2.694 6.654-3.359 9.984-2.008 1.096.445 2.122 1.117 3.013 2.008 1.789 1.789 2.687 4.144 2.687 6.492-.007 2.354-.898 4.702-2.694 6.498z" fill="#c44a1a"/><path d="m357.954 115.062-16.9 16.9c-2.694 2.694-6.647 3.366-9.963 2.015-1.358-3.323-.693-7.283 2.001-9.977l16.9-16.9c2.694-2.694 6.654-3.359 9.984-2.008.446 1.11.672 2.298.672 3.472-.007 2.354-.898 4.702-2.694 6.498z" fill="#dd5e26"/><path d="m355.441 112.549c1.388 1.388 1.388 3.638 0 5.026l-11.874 11.874c-1.388 1.388-3.638 1.388-5.026 0-1.388-1.388-1.388-3.638 0-5.026l11.874-11.874c1.389-1.387 3.639-1.387 5.026 0z" fill="#ea792e"/></g><g><g><path d="m348.281 103.41-9.962-9.962c-8.483-8.483-13.249-19.989-13.249-31.987v-19.084l42.122 42.122z" fill="#dd5e26"/><path d="m348.452 69.852c-8.747 8.747-9.601 22.919-1.441 32.216 9.063 10.327 24.86 10.621 34.307.883 8.8-9.07 8.31-24.163-.626-33.099l-26.171-26.171c-9.055-9.055-21.337-14.142-34.143-14.142-3.01 0-4.517 3.639-2.389 5.767l30.462 30.462c1.128 1.128 1.128 2.956.001 4.084z" fill="#c44a1a"/><path d="m345.103 41.25 26.981 26.981c1.731 1.731 1.731 4.537 0 6.268-1.731 1.731-4.537 1.731-6.268 0l-26.982-26.981c-1.731-1.731-1.731-4.537 0-6.268 1.732-1.731 4.538-1.731 6.269 0z" fill="#dd5e26"/><g fill="#ea792e"><path d="m349.957 46.104 11.698 11.698c1.731 1.731 1.731 4.537 0 6.268-1.731 1.731-4.537 1.731-6.268 0l-11.697-11.698c-1.731-1.731-1.731-4.537 0-6.268 1.73-1.73 4.536-1.73 6.267 0z"/><path d="m339.001 63.245 1.007 10.035c.244 2.435-1.532 4.608-3.967 4.852-2.435.244-4.608-1.532-4.852-3.967l-1.007-10.035c-.244-2.435 1.532-4.608 3.967-4.852 2.435-.244 4.607 1.532 4.852 3.967z"/></g></g><g><path d="m376.009 99.405c-6.592 6.593-17.319 6.593-23.912 0-1.367-1.367-1.367-3.583 0-4.95s3.583-1.367 4.95 0c3.864 3.864 10.149 3.864 14.012 0 1.367-1.367 3.583-1.367 4.95 0s1.367 3.584 0 4.95z" fill="#dd5e26"/></g></g></g><g><g><path d="m177.722 175.321c0 3.55 1.44 6.75 3.76 9.07s5.54 3.76 9.08 3.76h29.76v-25.66h-29.76c-5.7 0-10.54 3.72-12.21 8.86-.41 1.25-.63 2.58-.63 3.97z" fill="#2e3140"/><path d="m178.352 171.351c.63 1.95 1.72 3.69 3.13 5.1 2.32 2.32 5.54 3.76 9.08 3.76h29.76v-17.72h-29.76c-5.7-.001-10.54 3.72-12.21 8.86z" fill="#334353"/><path d="m195.355 180.211h13.213c2.647 0 4.792-2.146 4.792-4.792 0-2.647-2.146-4.792-4.792-4.792h-13.213c-2.647 0-4.792 2.146-4.792 4.792-.001 2.646 2.145 4.792 4.792 4.792z" fill="#3e4e60"/></g><g><path d="m168.537 141.03v23.9c0 5.07 4.11 9.18 9.18 9.18 1.26 0 2.46-.25 3.55-.71 3.31-1.39 5.64-4.66 5.64-8.47v-23.9c0-3.81-2.33-7.08-5.64-8.48-1.09-.46-2.29-.71-3.55-.71-2.53 0-4.83 1.03-6.49 2.69-1.66 1.67-2.69 3.96-2.69 6.5z" fill="#3e4e60"/><path d="m175.647 141.03v23.9c0 3.81 2.32 7.08 5.62 8.47 3.31-1.39 5.64-4.66 5.64-8.47v-23.9c0-3.81-2.33-7.08-5.64-8.48-1.1.47-2.1 1.15-2.93 1.98-1.66 1.67-2.69 3.96-2.69 6.5z" fill="#3f5d77"/><path d="m179.201 141.03c-1.963 0-3.554 1.591-3.554 3.554v16.792c0 1.963 1.591 3.554 3.554 3.554 1.963 0 3.554-1.591 3.554-3.554v-16.792c0-1.963-1.591-3.554-3.554-3.554z" fill="#3f6c8e"/></g><g><path d="m149.018 120.09 16.9 16.9c3.585 3.585 9.398 3.585 12.983 0 .891-.891 1.563-1.916 2.008-3.013 1.358-3.323.693-7.283-2.001-9.977l-16.9-16.9c-2.694-2.694-6.654-3.359-9.984-2.008-1.096.445-2.122 1.117-3.013 2.008-1.789 1.789-2.687 4.144-2.687 6.492.007 2.354.898 4.702 2.694 6.498z" fill="#c44a1a"/><path d="m154.046 115.062 16.9 16.9c2.694 2.694 6.647 3.366 9.963 2.015 1.358-3.323.693-7.283-2.001-9.977l-16.9-16.9c-2.694-2.694-6.654-3.359-9.984-2.008-.446 1.11-.672 2.298-.672 3.472.007 2.354.898 4.702 2.694 6.498z" fill="#dd5e26"/><path d="m156.559 112.549c-1.388 1.388-1.388 3.638 0 5.026l11.874 11.874c1.388 1.388 3.638 1.388 5.026 0 1.388-1.388 1.388-3.638 0-5.026l-11.874-11.874c-1.389-1.387-3.639-1.387-5.026 0z" fill="#ea792e"/></g><g><g><path d="m163.719 103.41 9.962-9.962c8.483-8.483 13.249-19.989 13.249-31.987v-19.084l-42.122 42.122z" fill="#dd5e26"/><path d="m163.548 69.852c8.747 8.747 9.601 22.919 1.441 32.216-9.063 10.327-24.86 10.621-34.307.883-8.8-9.07-8.31-24.163.626-33.099l26.171-26.171c9.055-9.055 21.337-14.142 34.143-14.142 3.01 0 4.517 3.639 2.389 5.767l-30.462 30.462c-1.128 1.128-1.128 2.956-.001 4.084z" fill="#c44a1a"/><path d="m166.897 41.25-26.981 26.981c-1.731 1.731-1.731 4.537 0 6.268 1.731 1.731 4.537 1.731 6.268 0l26.981-26.981c1.731-1.731 1.731-4.537 0-6.268-1.731-1.731-4.537-1.731-6.268 0z" fill="#dd5e26"/><g fill="#ea792e"><path d="m162.043 46.104-11.698 11.698c-1.731 1.731-1.731 4.537 0 6.268 1.731 1.731 4.537 1.731 6.268 0l11.698-11.698c1.731-1.731 1.731-4.537 0-6.268-1.731-1.73-4.537-1.73-6.268 0z"/><path d="m172.999 63.245-1.007 10.035c-.244 2.435 1.532 4.608 3.967 4.852 2.435.244 4.608-1.532 4.852-3.967l1.007-10.035c.244-2.435-1.532-4.608-3.967-4.852-2.435-.244-4.607 1.532-4.852 3.967z"/></g></g><g><path d="m135.991 99.405c6.593 6.593 17.319 6.593 23.912 0 1.367-1.367 1.367-3.583 0-4.95s-3.583-1.367-4.95 0c-3.864 3.864-10.149 3.864-14.012 0-1.367-1.367-3.583-1.367-4.95 0s-1.367 3.584 0 4.95z" fill="#dd5e26"/></g></g></g></g><g><g><g><path d="m268.817 295.523h-25.634c-22.385 0-40.139-18.875-38.769-41.222l6.975-113.874h89.221l6.975 113.874c1.371 22.347-16.383 41.222-38.768 41.222z" fill="#746087"/><path d="m268.817 295.523h-12.817v-155.096h44.611l6.975 113.874c1.37 22.347-16.384 41.222-38.769 41.222z" fill="#9175a7"/></g><g><g fill="#a583bb"><path d="m281.859 184.951h-25.859v-16.838h25.859c4.65 0 8.419 3.769 8.419 8.419 0 4.649-3.77 8.419-8.419 8.419z"/><path d="m288.229 217.428h-32.229v-16.838h32.229c4.65 0 8.419 3.769 8.419 8.419 0 4.65-3.77 8.419-8.419 8.419z"/><path d="m288.229 249.905h-32.229v-16.838h32.229c4.65 0 8.419 3.769 8.419 8.419 0 4.65-3.77 8.419-8.419 8.419z"/><path d="m275.488 282.383h-19.488v-16.838h19.488c4.65 0 8.419 3.769 8.419 8.419 0 4.649-3.769 8.419-8.419 8.419z"/></g><g fill="#9175a7"><path d="m230.141 184.951h25.859v-16.838h-25.859c-4.65 0-8.419 3.769-8.419 8.419 0 4.649 3.77 8.419 8.419 8.419z"/><path d="m223.771 217.428h32.229v-16.838h-32.229c-4.65 0-8.419 3.769-8.419 8.419 0 4.65 3.77 8.419 8.419 8.419z"/><path d="m223.771 249.905h32.229v-16.838h-32.229c-4.65 0-8.419 3.769-8.419 8.419 0 4.65 3.77 8.419 8.419 8.419z"/><path d="m236.512 282.383h19.488v-16.838h-19.488c-4.65 0-8.419 3.769-8.419 8.419 0 4.649 3.769 8.419 8.419 8.419z"/></g></g></g><g><g><path d="m276.94 85.52v17.02h-13.25v-17.02c0-2.96 1.95-5.47 4.63-6.31.63-.2 1.3-.31 2-.31 3.66 0 6.62 2.96 6.62 6.62z" fill="#9175a7"/><path d="m276.94 85.52v10.7h-3.16c-3.02 0-5.46-2.44-5.46-5.46v-11.55c.63-.2 1.3-.31 2-.31 3.66 0 6.62 2.96 6.62 6.62z" fill="#a583bb"/></g><g><path d="m248.31 85.52v17.02h-13.25v-17.02c0-2.96 1.94-5.47 4.62-6.31.63-.2 1.3-.31 2-.31 3.66 0 6.63 2.96 6.63 6.62z" fill="#746087"/><path d="m248.31 85.52v10.7h-3.17c-3.01 0-5.46-2.44-5.46-5.46v-11.55c.63-.2 1.3-.31 2-.31 3.66 0 6.63 2.96 6.63 6.62z" fill="#9175a7"/></g></g><g><g><path d="m300.611 128.706v11.721c0 8.759-7.103 15.868-15.868 15.868h-57.485c-8.765 0-15.868-7.109-15.868-15.868v-11.721c0-15.83 12.836-28.666 28.666-28.666h31.889c15.83 0 28.666 12.836 28.666 28.666z" fill="#9175a7"/><path d="m300.611 128.706v11.721c0 8.759-7.103 15.868-15.868 15.868h-28.743v-56.255h15.945c15.83 0 28.666 12.836 28.666 28.666z" fill="#a583bb"/></g><g><g><path d="m274.833 108.211c2.854 1.648 3.847 5.278 2.24 8.145-.01.026-.024.05-.038.075l-2.093 3.625c-4.267 6.776-14.155 1.014-10.426-6.02 0 0 2.093-3.625 2.093-3.625 1.665-2.878 5.344-3.863 8.224-2.2z" fill="#2e3140"/><path d="m274.833 108.211c2.854 1.648 3.847 5.278 2.24 8.145-3.765 2.107-9.335 1.441-12.866-1.701.113-.353 2.179-3.832 2.402-4.244 1.665-2.878 5.344-3.863 8.224-2.2z" fill="#3e4e60"/><path d="m269.605 110.655-1.259 2.181c-.542.939-.22 2.14.719 2.683.939.542 2.14.22 2.683-.719l1.259-2.181c1.237-2.276-2.05-4.175-3.402-1.964z" fill="#fff"/></g><g><path d="m237.167 108.211c-2.854 1.648-3.847 5.278-2.24 8.145.01.026.024.05.038.075l2.093 3.625c4.267 6.776 14.155 1.014 10.426-6.02 0 0-2.093-3.625-2.093-3.625-1.665-2.878-5.344-3.863-8.224-2.2z" fill="#2e3140"/><path d="m237.167 108.211c-2.854 1.648-3.847 5.278-2.24 8.145 3.765 2.107 9.335 1.441 12.866-1.701-.113-.353-2.179-3.832-2.402-4.244-1.665-2.878-5.344-3.863-8.224-2.2z" fill="#3e4e60"/><path d="m242.395 110.655 1.259 2.181c.542.939.22 2.14-.719 2.683-.939.542-2.14.22-2.683-.719l-1.259-2.181c-1.237-2.276 2.05-4.175 3.402-1.964z" fill="#fff"/></g></g></g></g></g></g></svg>