<svg id="Icons" enable-background="new 0 0 512 512" height="512" viewBox="0 0 512 512" width="512" xmlns="http://www.w3.org/2000/svg"><g><circle cx="256" cy="256" fill="#22bce0" r="256"/><g><g><g><g><g><g><path d="m312.172 314.157c-2.932 2.929-7.68 2.932-10.609 0l-23.89-23.89 10.609-10.609 23.89 23.89c2.968 2.95 2.876 7.757 0 10.609z" fill="#c0405c"/><path d="m313.858 311.567c-2.74 1.058-5.861.462-8.02-1.686l-23.89-23.89 6.333-6.333 23.89 23.89c2.172 2.17 2.73 5.337 1.687 8.019z" fill="#dd5273"/><path d="m301.818 305.86-13.187-13.187c-2.866-3.045 1.424-7.348 4.478-4.478 0 0 13.187 13.187 13.187 13.187 1.236 1.236 1.236 3.241 0 4.478-1.237 1.237-3.241 1.237-4.478 0z" fill="#ee6781"/></g><g><path d="m319.221 306.67h24.512c6.662.259 6.623 9.784 0 10.022h-24.511c-1.382 0-2.634-.561-3.538-1.47-3.121-3.007-.919-8.598 3.537-8.552z" fill="#c0405c"/><path d="m319.221 306.67h24.512c2.073 0 3.855 1.262 4.619 3.055-.764 1.792-2.546 3.055-4.619 3.055h-24.512c-2.057-.003-3.825-1.234-4.613-3.055.763-1.793 2.54-3.055 4.613-3.055z" fill="#dd5273"/><path d="m341.803 310.79c0 1.099-.891 1.99-1.99 1.99h-17.003c-1.099 0-1.99-.891-1.99-1.99s.891-1.99 1.99-1.99h17.004c1.098 0 1.989.891 1.989 1.99z" fill="#ee6781"/></g><g><path d="m357.473 308.952 17.332 17.332c4.528 4.894-2.235 11.601-7.086 7.086 0 0-17.332-17.332-17.332-17.332-.977-.977-1.466-2.259-1.462-3.541-.081-4.331 5.429-6.728 8.548-3.545z" fill="#c0405c"/><path d="m357.473 308.952 17.332 17.332c1.466 1.466 1.833 3.618 1.106 5.426-1.807.727-3.96.36-5.426-1.106l-17.332-17.332c-1.452-1.456-1.832-3.577-1.102-5.422 1.807-.727 3.956-.363 5.422 1.102z" fill="#dd5273"/><path d="m370.528 327.834c-.777.777-2.037.777-2.814 0l-12.024-12.024c-.777-.777-.777-2.037 0-2.814s2.037-.777 2.814 0l12.024 12.024c.777.777.777 2.037 0 2.814z" fill="#ee6781"/></g></g></g><g><g><g><path d="m199.828 314.157c2.932 2.929 7.68 2.932 10.609 0l23.89-23.89-10.609-10.609-23.89 23.89c-2.968 2.95-2.876 7.757 0 10.609z" fill="#c0405c"/><path d="m198.142 311.567c2.74 1.058 5.861.462 8.02-1.686l23.89-23.89-6.333-6.333-23.89 23.89c-2.172 2.17-2.73 5.337-1.687 8.019z" fill="#dd5273"/><path d="m210.182 305.86 13.187-13.187c2.866-3.045-1.424-7.348-4.478-4.478 0 0-13.187 13.187-13.187 13.187-1.236 1.236-1.236 3.241 0 4.478 1.237 1.237 3.241 1.237 4.478 0z" fill="#ee6781"/></g><g><path d="m192.779 306.67h-24.512c-6.662.259-6.623 9.784 0 10.022h24.511c1.382 0 2.634-.561 3.538-1.47 3.121-3.007.919-8.598-3.537-8.552z" fill="#c0405c"/><path d="m192.779 306.67h-24.512c-2.073 0-3.855 1.262-4.619 3.055.764 1.792 2.546 3.055 4.619 3.055h24.512c2.057-.003 3.825-1.234 4.613-3.055-.763-1.793-2.54-3.055-4.613-3.055z" fill="#dd5273"/><path d="m170.197 310.79c0 1.099.891 1.99 1.99 1.99h17.004c1.099 0 1.99-.891 1.99-1.99s-.891-1.99-1.99-1.99h-17.004c-1.099 0-1.99.891-1.99 1.99z" fill="#ee6781"/></g><g><path d="m154.527 308.952-17.332 17.332c-4.528 4.894 2.235 11.601 7.086 7.086 0 0 17.332-17.332 17.332-17.332.977-.977 1.466-2.259 1.462-3.541.081-4.331-5.429-6.728-8.548-3.545z" fill="#c0405c"/><path d="m154.527 308.952-17.332 17.332c-1.466 1.466-1.833 3.618-1.106 5.426 1.808.727 3.96.36 5.426-1.106l17.332-17.332c1.452-1.456 1.832-3.577 1.102-5.422-1.807-.727-3.956-.363-5.422 1.102z" fill="#dd5273"/><path d="m141.472 327.834c.777.777 2.037.777 2.814 0l12.024-12.024c.777-.777.777-2.037 0-2.814s-2.037-.777-2.814 0l-12.024 12.024c-.777.777-.777 2.037 0 2.814z" fill="#ee6781"/></g></g></g></g><g><g><g><g><path d="m318.566 289.802c-2.932 2.929-7.68 2.932-10.609 0l-23.89-23.89 10.609-10.609 23.89 23.89c2.969 2.95 2.876 7.757 0 10.609z" fill="#c0405c"/><path d="m320.253 287.212c-2.74 1.058-5.861.462-8.02-1.686 0 0-23.89-23.89-23.89-23.89l6.333-6.333 23.89 23.89c2.172 2.171 2.73 5.337 1.687 8.019z" fill="#dd5273"/><path d="m308.213 281.505-13.187-13.187c-2.866-3.045 1.424-7.348 4.478-4.478 0 0 13.187 13.187 13.187 13.187 1.236 1.236 1.236 3.241 0 4.478-1.237 1.237-3.242 1.237-4.478 0z" fill="#ee6781"/></g><g><path d="m323.873 272.298h24.512c6.662.259 6.623 9.784 0 10.022h-24.511c-1.382 0-2.634-.561-3.538-1.47-3.121-3.007-.92-8.598 3.537-8.552z" fill="#c0405c"/><path d="m323.873 272.298h24.512c2.073 0 3.855 1.262 4.619 3.055-.764 1.792-2.546 3.055-4.619 3.055h-24.512c-2.057-.003-3.825-1.234-4.613-3.055.763-1.793 2.54-3.055 4.613-3.055z" fill="#dd5273"/><path d="m346.455 276.417c0 1.099-.891 1.99-1.99 1.99h-17.004c-1.099 0-1.99-.891-1.99-1.99s.891-1.99 1.99-1.99h17.004c1.099.001 1.99.891 1.99 1.99z" fill="#ee6781"/></g><g><path d="m362.124 274.58 17.332 17.332c4.528 4.894-2.235 11.601-7.086 7.086 0 0-17.332-17.332-17.332-17.332-.977-.977-1.466-2.259-1.462-3.541-.08-4.332 5.43-6.728 8.548-3.545z" fill="#c0405c"/><path d="m362.124 274.58 17.332 17.332c1.466 1.466 1.833 3.618 1.106 5.426-1.808.727-3.96.36-5.426-1.106l-17.332-17.332c-1.452-1.456-1.832-3.577-1.102-5.422 1.808-.727 3.957-.363 5.422 1.102z" fill="#dd5273"/><path d="m375.179 293.462c-.777.777-2.037.777-2.814 0l-12.024-12.023c-.777-.777-.777-2.037 0-2.814s2.037-.777 2.814 0l12.024 12.024c.777.776.777 2.035 0 2.813z" fill="#ee6781"/></g></g></g><g><g><g><path d="m193.434 289.802c2.932 2.929 7.68 2.932 10.609 0l23.89-23.89-10.609-10.609-23.89 23.89c-2.969 2.95-2.876 7.757 0 10.609z" fill="#c0405c"/><path d="m191.747 287.212c2.74 1.058 5.861.462 8.02-1.686 0 0 23.89-23.89 23.89-23.89l-6.333-6.333-23.89 23.89c-2.172 2.171-2.73 5.337-1.687 8.019z" fill="#dd5273"/><path d="m203.787 281.505 13.187-13.187c2.866-3.045-1.424-7.348-4.478-4.478 0 0-13.187 13.187-13.187 13.187-1.236 1.236-1.236 3.241 0 4.478 1.237 1.237 3.242 1.237 4.478 0z" fill="#ee6781"/></g><g><path d="m188.127 272.298h-24.512c-6.662.259-6.623 9.784 0 10.022h24.511c1.382 0 2.634-.561 3.538-1.47 3.121-3.007.92-8.598-3.537-8.552z" fill="#c0405c"/><path d="m188.127 272.298h-24.512c-2.073 0-3.855 1.262-4.619 3.055.764 1.792 2.546 3.055 4.619 3.055h24.512c2.057-.003 3.825-1.234 4.613-3.055-.763-1.793-2.54-3.055-4.613-3.055z" fill="#dd5273"/><path d="m165.545 276.417c0 1.099.891 1.99 1.99 1.99h17.004c1.099 0 1.99-.891 1.99-1.99s-.891-1.99-1.99-1.99h-17.004c-1.099.001-1.99.891-1.99 1.99z" fill="#ee6781"/></g><g><path d="m149.876 274.58-17.332 17.332c-4.528 4.894 2.235 11.601 7.087 7.086 0 0 17.332-17.332 17.332-17.332.977-.977 1.466-2.259 1.462-3.541.079-4.332-5.431-6.728-8.549-3.545z" fill="#c0405c"/><path d="m149.876 274.58-17.332 17.332c-1.466 1.466-1.833 3.618-1.106 5.426 1.808.727 3.96.36 5.426-1.106l17.332-17.332c1.452-1.456 1.832-3.577 1.102-5.422-1.808-.727-3.957-.363-5.422 1.102z" fill="#dd5273"/><path d="m136.821 293.462c.777.777 2.037.777 2.814 0l12.024-12.023c.777-.777.777-2.037 0-2.814s-2.037-.777-2.814 0l-12.024 12.024c-.777.776-.777 2.035 0 2.813z" fill="#ee6781"/></g></g></g></g><g><g><g><g><path d="m335.964 243.82c-.003 4.144-3.357 7.504-7.502 7.502h-33.785v-15.004h33.785c4.185-.012 7.519 3.452 7.502 7.502z" fill="#c0405c"/><path d="m335.325 240.797c-1.189 2.685-3.818 4.471-6.863 4.478h-33.785v-8.957h33.785c3.07 0 5.704 1.845 6.863 4.479z" fill="#dd5273"/><path d="m322.776 245.275h-18.649c-4.18-.127-4.189-6.202 0-6.332h18.649c1.749 0 3.166 1.418 3.166 3.166s-1.417 3.166-3.166 3.166z" fill="#ee6781"/></g><g><path d="m336.096 234.06 17.332-17.332c4.894-4.528 11.601 2.235 7.086 7.087 0 0-17.332 17.332-17.332 17.332-.977.977-2.259 1.466-3.541 1.462-4.332.08-6.728-5.43-3.545-8.549z" fill="#c0405c"/><path d="m336.096 234.06 17.332-17.332c1.466-1.466 3.618-1.833 5.426-1.106.727 1.808.36 3.96-1.106 5.426l-17.332 17.332c-1.456 1.452-3.577 1.832-5.422 1.102-.727-1.807-.364-3.956 1.102-5.422z" fill="#dd5273"/><path d="m354.977 221.005c.777.777.777 2.037 0 2.814l-12.024 12.024c-.777.777-2.037.777-2.814 0s-.777-2.037 0-2.814l12.024-12.024c.777-.777 2.037-.777 2.814 0z" fill="#ee6781"/></g><g><path d="m364.758 208.626h24.512c6.662.259 6.623 9.784 0 10.022h-24.511c-1.382 0-2.634-.561-3.538-1.47-3.121-3.007-.919-8.598 3.537-8.552z" fill="#c0405c"/><path d="m364.758 208.626h24.512c2.073 0 3.855 1.262 4.619 3.055-.764 1.792-2.546 3.055-4.619 3.055h-24.512c-2.057-.003-3.825-1.234-4.613-3.055.764-1.793 2.54-3.055 4.613-3.055z" fill="#dd5273"/><path d="m387.34 212.746c0 1.099-.891 1.99-1.99 1.99h-17.004c-1.099 0-1.99-.891-1.99-1.99s.891-1.99 1.99-1.99h17.004c1.1 0 1.99.891 1.99 1.99z" fill="#ee6781"/></g></g></g><g><g><g><path d="m176.036 243.82c.003 4.144 3.357 7.504 7.502 7.502h33.785v-15.004h-33.785c-4.185-.012-7.519 3.452-7.502 7.502z" fill="#c0405c"/><path d="m176.675 240.797c1.189 2.685 3.818 4.471 6.863 4.478h33.785v-8.957h-33.785c-3.07 0-5.704 1.845-6.863 4.479z" fill="#dd5273"/><path d="m189.224 245.275h18.649c4.18-.127 4.189-6.202 0-6.332h-18.649c-1.749 0-3.166 1.418-3.166 3.166s1.417 3.166 3.166 3.166z" fill="#ee6781"/></g><g><path d="m175.904 234.06-17.332-17.332c-4.894-4.528-11.601 2.235-7.086 7.087 0 0 17.332 17.332 17.332 17.332.977.977 2.259 1.466 3.541 1.462 4.332.08 6.728-5.43 3.545-8.549z" fill="#c0405c"/><path d="m175.904 234.06-17.332-17.332c-1.466-1.466-3.618-1.833-5.426-1.106-.727 1.808-.36 3.96 1.106 5.426l17.332 17.332c1.456 1.452 3.577 1.832 5.422 1.102.727-1.807.364-3.956-1.102-5.422z" fill="#dd5273"/><path d="m157.023 221.005c-.777.777-.777 2.037 0 2.814l12.024 12.024c.777.777 2.037.777 2.814 0s.777-2.037 0-2.814l-12.024-12.024c-.777-.777-2.037-.777-2.814 0z" fill="#ee6781"/></g><g><path d="m147.242 208.626h-24.512c-6.662.259-6.623 9.784 0 10.022h24.511c1.382 0 2.634-.561 3.538-1.47 3.121-3.007.919-8.598-3.537-8.552z" fill="#c0405c"/><path d="m147.242 208.626h-24.512c-2.073 0-3.855 1.262-4.619 3.055.764 1.792 2.546 3.055 4.619 3.055h24.512c2.057-.003 3.825-1.234 4.613-3.055-.764-1.793-2.54-3.055-4.613-3.055z" fill="#dd5273"/><path d="m124.66 212.746c0 1.099.891 1.99 1.99 1.99h17.004c1.099 0 1.99-.891 1.99-1.99s-.891-1.99-1.99-1.99h-17.004c-1.1 0-1.99.891-1.99 1.99z" fill="#ee6781"/></g></g></g></g><g><g><g><path d="m335.964 219.936c-.003 4.144-3.357 7.504-7.502 7.502h-33.785v-15.004h33.785c4.185-.013 7.519 3.452 7.502 7.502z" fill="#c0405c"/><path d="m335.325 216.912c-1.189 2.685-3.818 4.471-6.863 4.478h-33.785v-8.957h33.785c3.07.001 5.704 1.845 6.863 4.479z" fill="#dd5273"/><path d="m322.776 221.391h-18.649c-4.18-.127-4.189-6.202 0-6.332h18.649c1.749 0 3.166 1.418 3.166 3.166s-1.417 3.166-3.166 3.166z" fill="#ee6781"/></g><g><path d="m327.338 203.806 17.332-17.332c4.894-4.528 11.601 2.235 7.086 7.086 0 0-17.332 17.332-17.332 17.332-.977.977-2.259 1.466-3.541 1.462-4.332.081-6.728-5.429-3.545-8.548z" fill="#c0405c"/><path d="m327.338 203.806 17.332-17.332c1.466-1.466 3.618-1.833 5.426-1.106.727 1.808.36 3.96-1.106 5.426l-17.332 17.332c-1.456 1.452-3.577 1.832-5.422 1.102-.727-1.807-.363-3.956 1.102-5.422z" fill="#dd5273"/><path d="m346.22 190.751c.777.777.777 2.037 0 2.814l-12.024 12.024c-.777.777-2.037.777-2.814 0s-.777-2.037 0-2.814l12.024-12.024c.777-.777 2.036-.777 2.814 0z" fill="#ee6781"/></g><g><path d="m356.001 178.372h24.512c6.662.258 6.623 9.784 0 10.022h-24.511c-1.382 0-2.634-.561-3.538-1.47-3.121-3.007-.92-8.597 3.537-8.552z" fill="#c0405c"/><path d="m356.001 178.372h24.512c2.073 0 3.855 1.262 4.619 3.055-.764 1.792-2.546 3.055-4.619 3.055h-24.512c-2.057-.003-3.825-1.234-4.613-3.055.763-1.792 2.54-3.055 4.613-3.055z" fill="#dd5273"/><path d="m378.583 182.492c0 1.099-.891 1.99-1.99 1.99h-17.004c-1.099 0-1.99-.891-1.99-1.99s.891-1.99 1.99-1.99h17.004c1.099 0 1.99.891 1.99 1.99z" fill="#ee6781"/></g></g><g><g><path d="m176.036 219.936c.003 4.144 3.357 7.504 7.502 7.502h33.785v-15.004h-33.785c-4.185-.013-7.519 3.452-7.502 7.502z" fill="#c0405c"/><path d="m176.675 216.912c1.189 2.685 3.818 4.471 6.863 4.478h33.785v-8.957h-33.785c-3.07.001-5.704 1.845-6.863 4.479z" fill="#dd5273"/><path d="m189.224 221.391h18.649c4.18-.127 4.189-6.202 0-6.332h-18.649c-1.749 0-3.166 1.418-3.166 3.166s1.417 3.166 3.166 3.166z" fill="#ee6781"/></g><g><path d="m184.662 203.806-17.332-17.332c-4.894-4.528-11.601 2.235-7.086 7.086 0 0 17.332 17.332 17.332 17.332.977.977 2.259 1.466 3.541 1.462 4.332.081 6.728-5.429 3.545-8.548z" fill="#c0405c"/><path d="m184.662 203.806-17.332-17.332c-1.466-1.466-3.618-1.833-5.426-1.106-.727 1.808-.36 3.96 1.106 5.426l17.332 17.332c1.456 1.452 3.577 1.832 5.422 1.102.727-1.807.363-3.956-1.102-5.422z" fill="#dd5273"/><path d="m165.78 190.751c-.777.777-.777 2.037 0 2.814l12.024 12.024c.777.777 2.037.777 2.814 0s.777-2.037 0-2.814l-12.024-12.024c-.777-.777-2.036-.777-2.814 0z" fill="#ee6781"/></g><g><path d="m155.999 178.372h-24.512c-6.662.258-6.623 9.784 0 10.022h24.511c1.382 0 2.634-.561 3.538-1.47 3.121-3.007.92-8.597-3.537-8.552z" fill="#c0405c"/><path d="m155.999 178.372h-24.512c-2.073 0-3.855 1.262-4.619 3.055.764 1.792 2.546 3.055 4.619 3.055h24.512c2.057-.003 3.825-1.234 4.613-3.055-.763-1.792-2.54-3.055-4.613-3.055z" fill="#dd5273"/><path d="m133.417 182.492c0 1.099.891 1.99 1.99 1.99h17.004c1.099 0 1.99-.891 1.99-1.99s-.891-1.99-1.99-1.99h-17.004c-1.099 0-1.99.891-1.99 1.99z" fill="#ee6781"/></g></g></g></g><g><g><g><path d="m331.996 176.696-25.488 25.489c-5.628 5.636-14.757 5.636-20.385 0-1.366-1.366-2.407-2.941-3.104-4.624-2.19-5.23-1.158-11.491 3.104-15.753l19.897-19.906c1.981-1.972 4.832-2.796 7.546-2.171l13.065 2.995 1.439.326c6.224 1.421 8.441 9.13 3.926 13.644z" fill="#c0405c"/><path d="m324.269 168.96-25.497 25.497c-4.262 4.262-10.523 5.293-15.753 3.103-2.19-5.23-1.158-11.491 3.104-15.753l19.897-19.906c1.981-1.972 4.832-2.796 7.546-2.171l13.065 2.995c.144 2.191-.589 4.462-2.362 6.235z" fill="#dd5273"/><path d="m295.01 190.696c-2.077-2.077-2.077-5.445-.001-7.522l12.707-12.712c1.943-1.944 5.048-2.088 7.162-.331l.003.003c2.408 2.001 2.576 5.639.362 7.853l-12.71 12.71c-2.077 2.077-5.445 2.077-7.523-.001z" fill="#ee6781"/></g><g><path d="m334.267 131.257v26.121c0 5.764-4.678 10.441-10.441 10.441-5.764 0-10.441-4.678-10.441-10.441v-20.394c0-2.018 1.04-3.9 2.751-4.976l9.13-5.727c1.203-.76 2.524-1.013 3.764-.878 2.803.317 5.237 2.651 5.237 5.854z" fill="#c0405c"/><path d="m329.028 125.403v21.788c0 5.764-4.678 10.441-10.441 10.441-1.9 0-3.674-.507-5.203-1.393v-19.254c0-2.018 1.04-3.9 2.751-4.976l9.13-5.727c1.203-.761 2.524-1.014 3.763-.879z" fill="#dd5273"/><path d="m321.524 152.128c-1.896 0-3.433-1.537-3.433-3.433v-10.858c0-1.896 1.537-3.433 3.433-3.433 1.896 0 3.433 1.537 3.433 3.433v10.858c0 1.896-1.537 3.433-3.433 3.433z" fill="#ee6781"/></g><g><g><path d="m307.535 124.437-13.391-13.391c-11.404-11.404-17.81-26.87-17.81-42.997v-25.655l56.622 56.622z" fill="#dd5273"/><path d="m307.765 79.326c-11.758 11.758-12.906 30.808-1.938 43.305 12.183 13.882 33.418 14.277 46.117 1.187 11.829-12.193 11.17-32.48-.842-44.492l-35.179-35.179c-12.172-12.172-28.681-19.011-45.896-19.01-4.046 0-6.072 4.891-3.211 7.752l40.948 40.948c1.516 1.516 1.516 3.974.001 5.489z" fill="#c0405c"/><path d="m303.263 40.879 36.269 36.269c2.327 2.327 2.327 6.099 0 8.425-2.327 2.327-6.099 2.327-8.425 0l-36.269-36.269c-2.327-2.327-2.327-6.099 0-8.425 2.326-2.326 6.098-2.326 8.425 0z" fill="#dd5273"/><g fill="#ee6781"><path d="m309.788 47.405 15.725 15.725c2.327 2.327 2.327 6.099 0 8.425-2.327 2.327-6.099 2.327-8.425 0l-15.725-15.725c-2.327-2.327-2.327-6.099 0-8.425 2.326-2.327 6.099-2.327 8.425 0z"/><path d="m295.06 70.446 1.354 13.489c.329 3.274-2.059 6.194-5.333 6.523-3.274.329-6.194-2.059-6.523-5.333l-1.354-13.489c-.329-3.274 2.059-6.194 5.333-6.523 3.274-.329 6.195 2.059 6.523 5.333z"/></g></g><g><path d="m344.808 119.053c-8.862 8.862-23.281 8.862-32.143 0-1.837-1.837-1.837-4.817 0-6.654s4.817-1.837 6.654 0c5.194 5.193 13.642 5.193 18.836 0 1.837-1.837 4.817-1.837 6.654 0 1.836 1.838 1.836 4.817-.001 6.654z" fill="#dd5273"/></g></g></g><g><g><path d="m180.004 176.696 25.488 25.489c5.628 5.636 14.757 5.636 20.385 0 1.366-1.366 2.407-2.941 3.104-4.624 2.19-5.23 1.158-11.491-3.104-15.753l-19.897-19.906c-1.981-1.972-4.831-2.796-7.546-2.171l-13.065 2.995-1.439.326c-6.224 1.421-8.441 9.13-3.926 13.644z" fill="#c0405c"/><path d="m187.731 168.96 25.497 25.497c4.262 4.262 10.523 5.293 15.753 3.103 2.19-5.23 1.158-11.491-3.104-15.753l-19.897-19.906c-1.981-1.972-4.831-2.796-7.546-2.171l-13.065 2.995c-.144 2.191.589 4.462 2.362 6.235z" fill="#dd5273"/><path d="m216.99 190.696c2.077-2.077 2.077-5.445.001-7.522l-12.707-12.712c-1.943-1.944-5.048-2.088-7.162-.331l-.003.003c-2.408 2.001-2.576 5.639-.362 7.853l12.71 12.71c2.077 2.077 5.445 2.077 7.523-.001z" fill="#ee6781"/></g><g><path d="m177.733 131.257v26.121c0 5.764 4.678 10.441 10.441 10.441 5.764 0 10.441-4.678 10.441-10.441v-20.394c0-2.018-1.04-3.9-2.751-4.976l-9.13-5.727c-1.203-.76-2.524-1.013-3.764-.878-2.803.317-5.237 2.651-5.237 5.854z" fill="#c0405c"/><path d="m182.972 125.403v21.788c0 5.764 4.678 10.441 10.441 10.441 1.9 0 3.674-.507 5.203-1.393v-19.254c0-2.018-1.04-3.9-2.751-4.976l-9.13-5.727c-1.203-.761-2.524-1.014-3.763-.879z" fill="#dd5273"/><path d="m190.476 152.128c1.896 0 3.433-1.537 3.433-3.433v-10.858c0-1.896-1.537-3.433-3.433-3.433-1.896 0-3.433 1.537-3.433 3.433v10.858c0 1.896 1.537 3.433 3.433 3.433z" fill="#ee6781"/></g><g><g><path d="m204.465 124.437 13.391-13.391c11.404-11.404 17.81-26.87 17.81-42.997v-25.655l-56.622 56.622z" fill="#dd5273"/><path d="m204.235 79.326c11.758 11.758 12.906 30.808 1.938 43.305-12.183 13.882-33.418 14.277-46.117 1.187-11.829-12.193-11.17-32.48.842-44.492l35.179-35.179c12.172-12.172 28.681-19.011 45.896-19.01 4.046 0 6.072 4.891 3.211 7.752l-40.948 40.948c-1.516 1.516-1.516 3.974-.001 5.489z" fill="#c0405c"/><path d="m208.737 40.879-36.269 36.269c-2.327 2.327-2.327 6.099 0 8.425 2.327 2.327 6.099 2.327 8.425 0l36.269-36.269c2.327-2.327 2.327-6.099 0-8.425-2.326-2.326-6.098-2.326-8.425 0z" fill="#dd5273"/><g fill="#ee6781"><path d="m202.212 47.405-15.725 15.725c-2.327 2.327-2.327 6.099 0 8.425 2.327 2.327 6.099 2.327 8.425 0l15.725-15.725c2.327-2.327 2.327-6.099 0-8.425-2.326-2.327-6.099-2.327-8.425 0z"/><path d="m216.94 70.446-1.354 13.489c-.329 3.274 2.059 6.194 5.333 6.523 3.274.329 6.194-2.059 6.523-5.333l1.354-13.489c.329-3.274-2.059-6.194-5.333-6.523-3.274-.329-6.195 2.059-6.523 5.333z"/></g></g><g><path d="m167.192 119.053c8.862 8.862 23.281 8.862 32.143 0 1.837-1.837 1.837-4.817 0-6.654s-4.817-1.837-6.654 0c-5.193 5.193-13.642 5.193-18.836 0-1.837-1.837-4.817-1.837-6.654 0-1.836 1.838-1.836 4.817.001 6.654z" fill="#dd5273"/></g></g></g></g><g><g><path d="m294.677 209.2v79.026c0 11.249-9.116 20.365-20.365 20.365h-36.623c-11.25 0-20.365-9.116-20.365-20.365v-79.026c0-21.361 17.316-62.784 38.677-62.784s38.676 41.424 38.676 62.784z" fill="#c0405c"/><path d="m294.677 209.2v79.026c0 11.249-9.116 20.365-20.365 20.365h-18.312v-162.174c21.361 0 38.677 41.423 38.677 62.783z" fill="#dd5273"/><path d="m256 291.514v-103.924c8.448 0 15.296 13.405 15.296 21.853v66.775c0 8.447-6.848 15.296-15.296 15.296z" fill="#ee6781"/><path d="m256 291.514v-103.924c-8.448 0-15.296 13.405-15.296 21.853v66.775c0 8.447 6.848 15.296 15.296 15.296z" fill="#dd5273"/><path d="m263.648 275.429c-4.224 0-7.648-3.424-7.648-7.648v-42.783c0-4.224 3.424-7.648 7.648-7.648 4.224 0 7.648 3.424 7.648 7.648v42.783c0 4.224-3.424 7.648-7.648 7.648z" fill="#f4829b"/></g><g><g><path d="m273.433 188.714v3.197c.019 3.053-2.526 5.553-5.53 5.534-3.056 0-5.53-2.478-5.53-5.534v-3.197c.256-7.303 10.775-7.351 11.06 0z" fill="#334353"/><path d="m273.436 188.716v3.192c-.008 2.221-1.29 4.148-3.24 5.04-1.903-.875-3.232-2.802-3.232-5.04v-3.192c0-.358.032-.709.104-1.043.334-1.783 1.529-3.256 3.129-3.989 1.608.732 2.802 2.205 3.137 3.989.07.334.102.684.102 1.043z" fill="#3e4e60"/></g><path d="m273.332 187.673c-.003.018-.007.037-.011.055-.661 3.309-5.59 3.308-6.245-.002l-.01-.053c.334-1.783 1.529-3.256 3.129-3.989 1.608.733 2.803 2.205 3.137 3.989z" fill="#3f5d77"/><g><path d="m238.567 191.914v-3.197c-.019-3.053 2.526-5.553 5.53-5.534 3.056 0 5.53 2.478 5.53 5.534v3.197c-.256 7.303-10.775 7.351-11.06 0z" fill="#2e3140"/><path d="m245.037 188.716v3.201c0 2.237-1.329 4.156-3.232 5.031-1.911-.875-3.24-2.794-3.24-5.031v-3.201c0-.366.04-.725.111-1.075.342-1.751 1.505-3.216 3.129-3.957 1.592.724 2.787 2.197 3.129 3.973.071.342.103.692.103 1.059z" fill="#334353"/><path d="m244.934 187.657c-.748 3.089-5.525 3.081-6.258-.016.342-1.751 1.505-3.216 3.129-3.957 1.592.724 2.786 2.197 3.129 3.973z" fill="#3e4e60"/></g></g></g><g><g><path d="m261 159.357v-67.771c0-2.09 3.077-2.248 3.291-.169l6.926 67.207c.446 3.096-1.955 5.868-5.082 5.868-2.836 0-5.135-2.299-5.135-5.135z" fill="#ee6781"/><path d="m251 159.357v-67.771c0-2.09-3.077-2.248-3.291-.169l-6.926 67.207c-.446 3.096 1.955 5.868 5.082 5.868 2.836 0 5.135-2.299 5.135-5.135z" fill="#dd5273"/></g><g><g><path d="m482.43 223.31c-1.15 1.14-3.03 1.15-4.24 0l-68.39-65.37c-3.7-3.53-8.62-5.5-13.73-5.5h-86.29c-5.27 0-10.32 2.09-14.05 5.82l-19.14 19.14c-2.03 2.03-5.31 2.35-7.52.53-2.53-2.09-2.66-5.85-.4-8.11l25.41-25.41 1.33-1.33c1.22-1.22 2.88-1.72 4.48-1.54.25-.04.5-.06.76-.06h103.39c.04 0 .07 0 .11.01 1.98-.03 4.47 1.02 6.73 2.92.47.39.93.82 1.37 1.28l70.18 73.38c1.15 1.21 1.14 3.1 0 4.24z" fill="#c0405c"/><path d="m242.93 177.93c-2.21 1.82-5.49 1.5-7.52-.53l-19.14-19.14c-3.73-3.73-8.78-5.82-14.05-5.82h-86.29c-5.11 0-10.03 1.97-13.73 5.5l-68.39 65.37c-1.21 1.15-3.09 1.14-4.24 0-1.14-1.14-1.15-3.03 0-4.24l70.18-73.38c.44-.46.9-.89 1.37-1.28 2.26-1.9 4.75-2.95 6.73-2.92.04-.01.07-.01.11-.01h103.39c.26 0 .51.02.76.06 1.6-.18 3.26.32 4.48 1.54l1.33 1.33 25.41 25.41c2.26 2.26 2.13 6.02-.4 8.11z" fill="#dd5273"/></g><g fill="#ee6781"><path d="m217.92 144.41-1.33 1.32c-1.22 1.23-2.88 1.73-4.48 1.55-.25.04-.5.06-.76.06h-103.39c-.04 0-.07-.01-.11-.01-1.98.03-4.47-1.02-6.73-2.92 2.26-1.9 4.75-2.95 6.73-2.92.04-.01.07-.01.11-.01h103.39c.26 0 .51.02.76.06 1.6-.18 3.26.32 4.48 1.54z"/><path d="m410.88 144.41c-2.26 1.9-4.75 2.95-6.73 2.92-.04 0-.07.01-.11.01h-103.39c-.26 0-.51-.02-.76-.06-1.6.18-3.26-.32-4.48-1.55l-1.33-1.32 1.33-1.33c1.22-1.22 2.88-1.72 4.48-1.54.25-.04.5-.06.76-.06h103.39c.04 0 .07 0 .11.01 1.98-.03 4.47 1.02 6.73 2.92z"/></g></g></g><g><g><g><path d="m294.677 325.167v1.839c0 6.226-5.048 11.273-11.274 11.273h-54.807c-6.226 0-11.274-5.047-11.274-11.273v-1.839c0-14.163 11.481-25.644 25.644-25.644h26.066c14.164 0 25.645 11.481 25.645 25.644z" fill="#dd5273"/><path d="m294.677 325.167v1.839c0 6.226-5.048 11.273-11.274 11.273h-27.403v-25.724c0-3.232 1.178-6.186 3.129-8.463 2.388-2.802 5.939-4.57 9.904-4.57 7.078 0 13.495 2.866 18.136 7.507 4.642 4.643 7.508 11.06 7.508 18.138z" fill="#ee6781"/></g><g><path d="m277.626 323.54h-5.229c-2.746 0-4.972-2.226-4.972-4.972v-3.484c0-.001 0-.002 0-.004 0-5.222-3.503-9.625-8.296-10.987-1.951 2.277-3.129 5.231-3.129 8.463v22.539h21.626c3.191 0 5.777-2.587 5.777-5.777.001-3.192-2.586-5.778-5.777-5.778z" fill="#f4829b"/><path d="m256 303.659c-6.112 0-11.089 4.804-11.395 10.84-.019.192-.029.387-.029.584v3.484c0 2.746-2.226 4.972-4.972 4.972h-5.229c-3.191 0-5.777 2.587-5.777 5.777 0 3.191 2.587 5.777 5.777 5.777h21.625v-22.539c0-3.228 1.176-6.178 3.122-8.454-.994-.28-2.038-.441-3.122-.441z" fill="#c0405c"/></g></g><g><g><path d="m294.677 353.573v1.839c0 6.226-5.048 11.273-11.274 11.273h-54.807c-6.226 0-11.274-5.047-11.274-11.273v-1.839c0-14.163 11.481-25.644 25.644-25.644h26.066c14.164 0 25.645 11.481 25.645 25.644z" fill="#dd5273"/><path d="m294.677 353.573v1.839c0 6.226-5.048 11.273-11.274 11.273h-27.403v-25.723c0-3.232 1.178-6.186 3.129-8.463 2.388-2.802 5.939-4.57 9.904-4.57 7.078 0 13.495 2.866 18.136 7.507 4.642 4.642 7.508 11.059 7.508 18.137z" fill="#ee6781"/></g><g><path d="m277.626 351.946h-5.229c-2.746 0-4.972-2.226-4.972-4.972v-3.484c0-.001 0-.002 0-.004 0-5.222-3.503-9.625-8.296-10.987-1.951 2.277-3.129 5.231-3.129 8.463v22.539h21.626c3.191 0 5.777-2.587 5.777-5.777s-2.586-5.778-5.777-5.778z" fill="#f4829b"/><path d="m256 332.065c-6.112 0-11.089 4.804-11.395 10.84-.019.192-.029.387-.029.584v3.484c0 2.746-2.226 4.972-4.972 4.972h-5.229c-3.191 0-5.777 2.587-5.777 5.777s2.587 5.777 5.777 5.777h21.625v-22.539c0-3.228 1.176-6.178 3.122-8.454-.994-.28-2.038-.441-3.122-.441z" fill="#c0405c"/></g></g><g><g><path d="m291.499 379.872v1.688c0 5.714-4.633 10.347-10.347 10.347h-50.303c-5.714 0-10.347-4.633-10.347-10.347v-1.688c0-13 10.537-23.537 23.537-23.537h23.924c12.999.001 23.536 10.538 23.536 23.537z" fill="#dd5273"/><path d="m291.499 379.872v1.688c0 5.714-4.633 10.347-10.347 10.347h-25.152v-23.61c0-2.966 1.081-5.678 2.872-7.768 2.192-2.572 5.451-4.194 9.09-4.194 6.496 0 12.386 2.63 16.646 6.891s6.891 10.15 6.891 16.646z" fill="#ee6781"/></g><g><path d="m275.849 378.379h-4.8c-2.52 0-4.564-2.043-4.564-4.564v-3.198c0-.001 0-.002 0-.004 0-4.793-3.215-8.834-7.614-10.084-1.79 2.09-2.872 4.801-2.872 7.768v20.687h19.849c2.929 0 5.303-2.374 5.303-5.303s-2.373-5.302-5.302-5.302z" fill="#f4829b"/><path d="m256 360.132c-5.61 0-10.178 4.409-10.459 9.95-.018.176-.027.355-.027.536v3.197c0 2.52-2.043 4.564-4.564 4.564h-4.8c-2.929 0-5.303 2.374-5.303 5.303s2.374 5.303 5.303 5.303h19.85v-20.687c0-2.963 1.079-5.671 2.865-7.759-.912-.26-1.87-.407-2.865-.407z" fill="#c0405c"/></g></g><g><g><path d="m291.499 406.686v1.688c0 5.714-4.633 10.347-10.347 10.347h-50.303c-5.714 0-10.347-4.633-10.347-10.347v-1.688c0-13 10.537-23.537 23.537-23.537h23.924c12.999.001 23.536 10.538 23.536 23.537z" fill="#dd5273"/><path d="m291.499 406.686v1.688c0 5.714-4.633 10.347-10.347 10.347h-25.152v-23.61c0-2.966 1.081-5.678 2.872-7.768 2.192-2.572 5.451-4.194 9.09-4.194 6.496 0 12.386 2.63 16.646 6.891s6.891 10.15 6.891 16.646z" fill="#ee6781"/></g><g><path d="m275.849 405.193h-4.8c-2.52 0-4.564-2.043-4.564-4.564v-3.198c0-.001 0-.002 0-.004 0-4.793-3.215-8.834-7.614-10.084-1.79 2.09-2.872 4.801-2.872 7.768v20.687h19.849c2.929 0 5.303-2.374 5.303-5.303.001-2.928-2.373-5.302-5.302-5.302z" fill="#f4829b"/><path d="m256 386.946c-5.61 0-10.178 4.409-10.459 9.95-.018.176-.027.355-.027.536v3.197c0 2.52-2.043 4.564-4.564 4.564h-4.8c-2.929 0-5.303 2.374-5.303 5.303s2.374 5.303 5.303 5.303h19.85v-20.687c0-2.962 1.079-5.671 2.865-7.759-.912-.26-1.87-.407-2.865-.407z" fill="#c0405c"/></g></g><g><g><path d="m286.592 429.451v1.455c0 4.924-3.993 8.917-8.917 8.917h-43.35c-4.924 0-8.917-3.992-8.917-8.917v-1.455c0-11.203 9.081-20.283 20.284-20.283h20.617c11.202-.001 20.283 9.08 20.283 20.283z" fill="#dd5273"/><path d="m286.592 429.451v1.455c0 4.924-3.993 8.917-8.917 8.917h-21.675v-20.346c0-2.556.932-4.893 2.475-6.694 1.889-2.217 4.698-3.614 7.834-3.614 5.598 0 10.674 2.267 14.345 5.938s5.938 8.745 5.938 14.344z" fill="#ee6781"/></g><g><path d="m273.106 428.164h-4.136c-2.172 0-3.933-1.761-3.933-3.933v-2.756c0-.001 0-.002 0-.003 0-4.131-2.771-7.613-6.562-8.69-1.543 1.801-2.475 4.138-2.475 6.694v17.828h17.106c2.524 0 4.57-2.046 4.57-4.57s-2.047-4.57-4.57-4.57z" fill="#f4829b"/><path d="m256 412.439c-4.835 0-8.771 3.8-9.013 8.574-.015.152-.023.306-.023.462v2.755c0 2.172-1.761 3.933-3.933 3.933h-4.136c-2.524 0-4.57 2.046-4.57 4.57s2.046 4.57 4.57 4.57h17.105v-17.828c0-2.553.93-4.887 2.469-6.687-.786-.222-1.612-.349-2.469-.349z" fill="#c0405c"/></g></g><g><g><path d="m282.723 450.375v1.271c0 4.302-3.488 7.789-7.789 7.789h-37.868c-4.302 0-7.789-3.487-7.789-7.789v-1.271c0-9.786 7.932-17.718 17.718-17.718h18.01c9.786 0 17.718 7.932 17.718 17.718z" fill="#dd5273"/><path d="m282.723 450.375v1.271c0 4.302-3.488 7.789-7.789 7.789h-18.934v-17.773c0-2.233.814-4.274 2.162-5.847 1.65-1.936 4.104-3.157 6.843-3.157 4.89 0 9.324 1.98 12.531 5.187 3.207 3.206 5.187 7.64 5.187 12.53z" fill="#ee6781"/></g><g><path d="m270.942 449.251h-3.613c-1.897 0-3.436-1.538-3.436-3.436v-2.407c0-.001 0-.002 0-.003 0-3.608-2.42-6.65-5.732-7.591-1.348 1.573-2.162 3.614-2.162 5.847v15.573h14.942c2.205 0 3.992-1.787 3.992-3.992.001-2.204-1.786-3.991-3.991-3.991z" fill="#f4829b"/><path d="m256 435.515c-4.223 0-7.662 3.319-7.873 7.49-.013.133-.02.268-.02.404v2.407c0 1.897-1.538 3.436-3.436 3.436h-3.613c-2.205 0-3.992 1.787-3.992 3.992s1.787 3.992 3.992 3.992h14.942v-15.573c0-2.23.812-4.269 2.157-5.841-.687-.196-1.408-.307-2.157-.307z" fill="#c0405c"/></g></g><g><path d="m311.507 481.164c0 3.057-1.242 5.82-3.24 7.826s-4.769 3.24-7.826 3.24h-23.805c-7.531 0-14.124-4.036-17.722-10.063-1.855-3.089-2.914-6.703-2.914-10.573v-12.157h18.932l28.876 11.17.621.239c4.268 1.647 7.078 5.748 7.078 10.318z" fill="#dd5273"/><path d="m311.507 481.164c0 3.057-1.242 5.82-3.24 7.826s-4.769 3.24-7.826 3.24h-23.805c-7.531 0-14.124-4.036-17.722-10.063 3.089 1.847 6.704 2.906 10.565 2.906h23.805c6.106 0 11.066-4.952 11.066-11.067 0-1.178-.191-2.316-.541-3.4l.621.239c4.267 1.648 7.077 5.749 7.077 10.319z" fill="#3f5d77"/><path d="m270.916 471.881 20.644 7.985c2.697 1.043 5.601-.947 5.601-3.839 0-1.7-1.045-3.226-2.631-3.839l-20.644-7.985c-2.697-1.043-5.601.947-5.601 3.839 0 1.7 1.046 3.225 2.631 3.839z" fill="#ee6781"/></g><g><path d="m200.493 481.164c0 3.057 1.242 5.82 3.24 7.826s4.769 3.24 7.826 3.24h23.805c7.531 0 14.124-4.036 17.722-10.063 1.855-3.089 2.914-6.703 2.914-10.573v-12.157h-18.932l-28.876 11.17-.621.239c-4.268 1.647-7.078 5.748-7.078 10.318z" fill="#c0405c"/><path d="m200.493 481.164c0 3.057 1.242 5.82 3.24 7.826s4.769 3.24 7.826 3.24h23.805c7.531 0 14.124-4.036 17.722-10.063-3.089 1.847-6.704 2.906-10.565 2.906h-23.805c-6.106 0-11.066-4.952-11.066-11.067 0-1.178.191-2.316.541-3.4l-.621.239c-4.267 1.648-7.077 5.749-7.077 10.319z" fill="#334353"/><path d="m241.084 471.881-20.644 7.985c-2.697 1.043-5.601-.947-5.601-3.839 0-1.7 1.045-3.226 2.631-3.839l20.644-7.985c2.697-1.043 5.601.947 5.601 3.839 0 1.7-1.046 3.225-2.631 3.839z" fill="#dd5273"/></g></g></g></g></svg>