<svg id="Icons" enable-background="new 0 0 512 512" height="512" viewBox="0 0 512 512" width="512" xmlns="http://www.w3.org/2000/svg"><g><circle cx="256" cy="256" fill="#ea792e" r="256"/><g><g><g><g><g><g><path d="m281.306 371.423v-25.651c-.307-13.448 14.332-23.152 26.588-17.841 7.017 2.875 11.963 9.772 11.963 17.833l.008 15.082c-.009 3.739-1.925 7.214-5.083 9.19-.83.541-16.55 10.359-16.858 10.577-7.231 4.545-16.618-.65-16.618-9.19z" fill="#3f6c8e"/><path d="m295.931 371.432v-25.668c0-8.061 4.947-14.958 11.964-17.833 7.017 2.875 11.963 9.772 11.963 17.834l.008 15.082c-.009 3.739-1.925 7.214-5.083 9.19l-15.189 9.524c-2.208-1.934-3.663-4.775-3.663-8.129z" fill="#22a8b9"/><path d="m303.046 345.764c3.929 0 7.114 3.185 7.115 7.114l.005 1.479c-.321 9.415-13.911 9.426-14.236.002-.45-4.562 2.355-8.508 7.116-8.595z" fill="#4fcae8"/></g><g><path d="m309.776 411.193-19.072-19.072c-5.911-5.911-5.91-15.505 0-21.415 5.911-5.911 15.505-5.911 21.415 0l13.198 13.198c2.069 2.069 2.932 5.066 2.283 7.924l-3.489 15.236c-.454 2.014-1.549 3.628-2.96 4.76-3.2 2.552-8.09 2.654-11.375-.631z" fill="#3f5d77"/><path d="m321.152 411.824-14.628-14.628c-8.242-8.002-4.302-22.543 6.764-25.322l12.029 12.029c2.069 2.069 2.932 5.066 2.283 7.924l-3.489 15.236c-.453 2.015-1.548 3.629-2.959 4.761z" fill="#3f6c8e"/><path d="m309.158 384.438c1.944-1.944 5.097-1.944 7.042 0l3.42 3.42c4.525 4.76-2.281 11.568-7.042 7.041 0 0-3.419-3.419-3.419-3.419-1.946-1.945-1.946-5.097-.001-7.042z" fill="#22a8b9"/></g></g><g><path d="m296.736 449.885 27.171-18.995c9.057-6.356 13.499-18.363 7.022-24.84s-18.517-2.022-24.868 7.063l-18.967 27.13c-3.26 4.928 4.505 12.979 9.642 9.642z" fill="#334353"/><path d="m296.736 449.885 27.171-18.995c-3.482-7.895-14.988-7.531-20.356-1.409 0 0-15.841 17.45-15.841 17.45 1.911 2.821 6.015 4.927 9.026 2.954z" fill="#3e4e60"/><path d="m304.68 434.05c-1.528-1.528-3.974-1.436-5.359.091l-7.375 8.124c-1.844 2.114 1.932 5.792 4.051 4.05 0 0 8.471-7.028 8.471-7.028 1.591-1.32 1.74-3.709.212-5.237z" fill="#3f5d77"/></g></g><g><g><g><path d="m231.189 371.423v-25.651c.307-13.448-14.332-23.152-26.588-17.841-7.017 2.875-11.963 9.772-11.963 17.833l-.008 15.082c.009 3.739 1.925 7.214 5.083 9.19.83.541 16.55 10.359 16.858 10.577 7.23 4.545 16.618-.65 16.618-9.19z" fill="#3f6c8e"/><path d="m216.564 371.432v-25.668c0-8.061-4.946-14.958-11.963-17.833-7.017 2.875-11.963 9.772-11.963 17.834l-.008 15.082c.009 3.739 1.925 7.214 5.083 9.19l15.189 9.524c2.207-1.934 3.662-4.775 3.662-8.129z" fill="#22a8b9"/><path d="m209.449 345.764c-3.929 0-7.114 3.185-7.115 7.114l-.005 1.479c.321 9.415 13.911 9.426 14.236.002.45-4.562-2.356-8.508-7.116-8.595z" fill="#4fcae8"/></g><g><path d="m202.718 411.193 19.072-19.072c5.911-5.911 5.91-15.505 0-21.415-5.911-5.911-15.505-5.911-21.415 0l-13.198 13.198c-2.069 2.069-2.932 5.066-2.283 7.924l3.489 15.236c.454 2.014 1.549 3.628 2.96 4.76 3.201 2.552 8.091 2.654 11.375-.631z" fill="#3f5d77"/><path d="m191.343 411.824 14.628-14.628c8.242-8.002 4.302-22.543-6.764-25.322l-12.029 12.029c-2.069 2.069-2.932 5.066-2.283 7.924l3.489 15.236c.453 2.015 1.548 3.629 2.959 4.761z" fill="#3f6c8e"/><path d="m203.337 384.438c-1.944-1.944-5.097-1.944-7.042 0l-3.42 3.42c-4.525 4.76 2.281 11.568 7.042 7.041 0 0 3.419-3.419 3.419-3.419 1.946-1.945 1.946-5.097.001-7.042z" fill="#22a8b9"/></g></g><g><path d="m215.759 449.885-27.171-18.995c-9.057-6.356-13.499-18.363-7.022-24.84s18.517-2.022 24.868 7.063l18.967 27.13c3.259 4.928-4.505 12.979-9.642 9.642z" fill="#334353"/><path d="m215.759 449.885-27.171-18.995c3.482-7.895 14.988-7.531 20.356-1.409 0 0 15.841 17.45 15.841 17.45-1.911 2.821-6.015 4.927-9.026 2.954z" fill="#3e4e60"/><path d="m207.815 434.05c1.528-1.528 3.974-1.436 5.359.091l7.375 8.124c1.844 2.114-1.932 5.792-4.051 4.05 0 0-8.471-7.028-8.471-7.028-1.591-1.32-1.74-3.709-.212-5.237z" fill="#3f5d77"/></g></g></g><g><g><g><g><path d="m377.823 362.2c-4.787 4.838-12.807 4.892-17.646 0 0 0-60.322-60.322-60.322-60.322-4.875-4.875-4.875-12.77 0-17.646 4.875-4.875 12.77-4.875 17.646 0l60.322 60.322c4.875 4.876 4.875 12.771 0 17.646z" fill="#3f6c8e"/><path d="m377.823 362.2c-.329.329-.669.636-1.025.917l-53.953-53.953c-5.251-5.181-4.755-13.988 1.024-18.562l53.953 53.953c4.876 4.875 4.876 12.77.001 17.645z" fill="#22a8b9"/></g><path d="m376.045 349.307-43.407-43.407c-4.396-4.188-10.733 2.102-6.528 6.528 0 0 43.407 43.407 43.407 43.407 4.396 4.188 10.733-2.102 6.528-6.528z" fill="#4fcae8"/></g><g><path d="m394.122 409.984v-38.02c-.593-14.309-21.058-14.308-21.63.031v37.989c0 4.95 3.325 9.122 7.863 10.403 6.75 2.014 13.879-3.334 13.767-10.403z" fill="#3f5d77"/><path d="m394.122 409.984v-38.02c-6.742-2.018-13.879 3.34-13.766 10.403v38.019c6.749 2.018 13.878-3.336 13.766-10.402z" fill="#3f6c8e"/><path d="m384.675 384.796c-2.385 0-4.319 1.934-4.319 4.319v16.774c.174 5.704 8.461 5.711 8.638 0v-16.774c0-2.385-1.934-4.319-4.319-4.319z" fill="#22a8b9"/></g><g><path d="m344.192 463.298 25.748-20.418c8.587-6.826 14.346-17.516 10.123-21.739s-14.942 1.552-21.769 10.161l-20.388 25.71c-3.657 4.754 1.718 9.891 6.286 6.286z" fill="#334353"/><path d="m344.192 463.298 25.748-20.418c-2.002-6.347-11.393-3.135-16.568 2.379 0 0-16.121 17.171-16.121 17.171 1.404 2.488 4.763 2.645 6.941.868z" fill="#3e4e60"/><path d="m353.509 448.836c-.996-.996-3.032-.495-4.442 1.008l-7.505 7.994c-1.88 2.068.559 4.449 2.641 2.641 0 0 8.22-7.279 8.22-7.279 1.544-1.369 2.082-3.368 1.086-4.364z" fill="#3f5d77"/></g></g><g><g><g><path d="m134.672 362.2c4.787 4.838 12.807 4.892 17.646 0 0 0 60.322-60.322 60.322-60.322 4.875-4.875 4.875-12.77 0-17.646-4.875-4.875-12.77-4.875-17.646 0l-60.322 60.322c-4.876 4.876-4.876 12.771 0 17.646z" fill="#3f6c8e"/><path d="m134.672 362.2c.329.329.669.636 1.025.917l53.953-53.953c5.251-5.181 4.755-13.988-1.024-18.562l-53.953 53.953c-4.877 4.875-4.877 12.77-.001 17.645z" fill="#22a8b9"/></g><path d="m136.45 349.307 43.407-43.407c4.396-4.188 10.733 2.102 6.528 6.528 0 0-43.407 43.407-43.407 43.407-4.396 4.188-10.733-2.102-6.528-6.528z" fill="#4fcae8"/></g><g><path d="m118.373 409.984v-38.02c.593-14.309 21.058-14.308 21.63.031v37.989c0 4.95-3.325 9.122-7.863 10.403-6.75 2.014-13.879-3.334-13.767-10.403z" fill="#3f5d77"/><path d="m118.373 409.984v-38.02c6.742-2.018 13.879 3.34 13.766 10.403v38.019c-6.75 2.018-13.878-3.336-13.766-10.402z" fill="#3f6c8e"/><path d="m127.82 384.796c2.385 0 4.319 1.934 4.319 4.319v16.774c-.174 5.704-8.461 5.711-8.638 0v-16.774c0-2.385 1.934-4.319 4.319-4.319z" fill="#22a8b9"/></g><g><path d="m168.303 463.298-25.748-20.418c-8.587-6.826-14.346-17.516-10.123-21.739s14.942 1.552 21.769 10.161l20.388 25.71c3.657 4.754-1.718 9.891-6.286 6.286z" fill="#334353"/><path d="m168.303 463.298-25.748-20.418c2.002-6.347 11.393-3.135 16.568 2.379 0 0 16.121 17.171 16.121 17.171-1.404 2.488-4.763 2.645-6.941.868z" fill="#3e4e60"/><path d="m158.986 448.836c.996-.996 3.032-.495 4.442 1.008l7.505 7.994c1.88 2.068-.559 4.449-2.641 2.641 0 0-8.22-7.279-8.22-7.279-1.544-1.369-2.082-3.368-1.086-4.364z" fill="#3f5d77"/></g></g></g><g><g><g><g><path d="m417.972 286.22c.036 6.806-5.597 12.515-12.477 12.477h-85.308c-6.895 0-12.477-5.583-12.477-12.477s5.583-12.477 12.477-12.477h85.308c6.894-.001 12.477 5.582 12.477 12.477z" fill="#3f6c8e"/><path d="m417.972 286.22c0 .465-.023.923-.076 1.373h-76.301c-7.377.049-13.253-6.529-12.401-13.85h76.301c6.894-.001 12.477 5.582 12.477 12.477z" fill="#22a8b9"/></g><path d="m407.598 278.36h-61.387c-2.549 0-4.616 2.067-4.616 4.616s2.067 4.616 4.616 4.616h61.387c6.083-.18 6.116-9.04 0-9.232z" fill="#4fcae8"/></g><g><path d="m460.065 317.625-26.884-26.884c-10.538-9.699-25.007 4.773-15.273 15.316 0 0 26.862 26.862 26.862 26.862 3.5 3.5 8.801 4.099 12.916 1.796 6.197-3.348 7.456-12.171 2.379-17.09z" fill="#3f5d77"/><path d="m460.065 317.625-26.884-26.884c-6.194 3.341-7.452 12.176-2.378 17.09 0 0 26.884 26.884 26.884 26.884 6.199-3.346 7.453-12.172 2.378-17.09z" fill="#3f6c8e"/><path d="m435.574 306.495c-1.687 1.687-1.687 4.421 0 6.108l11.861 11.861c4.125 3.924 10.035-1.976 6.108-6.108 0 0-11.861-11.861-11.861-11.861-1.687-1.687-4.422-1.687-6.108 0z" fill="#22a8b9"/></g><g><path d="m463.192 390.267 3.769-32.644c1.245-10.899-2.242-22.53-8.214-22.53s-9.468 11.663-8.208 22.578l3.763 32.596c.776 5.948 8.209 5.779 8.89 0z" fill="#334353"/><path d="m463.192 390.267 3.769-32.644c-5.904-3.072-10.273 5.839-10.033 13.397 0 0 .742 23.541.742 23.541 2.753.767 5.239-1.497 5.522-4.294z" fill="#3e4e60"/><path d="m459.554 373.453c-1.408 0-2.494 1.794-2.429 3.854l.345 10.959c.133 2.791 3.541 2.751 3.735 0 0 0 .665-10.959.665-10.959.126-2.06-.907-3.854-2.316-3.854z" fill="#3f5d77"/></g></g><g><g><g><path d="m100.114 286.22c-.036 6.806 5.597 12.515 12.477 12.477h85.308c6.895 0 12.477-5.583 12.477-12.477s-5.583-12.477-12.477-12.477h-85.308c-6.895-.001-12.477 5.582-12.477 12.477z" fill="#3f6c8e"/><path d="m100.114 286.22c0 .465.023.923.076 1.373h76.301c7.377.049 13.253-6.529 12.401-13.85h-76.301c-6.895-.001-12.477 5.582-12.477 12.477z" fill="#22a8b9"/></g><path d="m110.488 278.36h61.387c2.549 0 4.616 2.067 4.616 4.616s-2.067 4.616-4.616 4.616h-61.387c-6.084-.18-6.117-9.04 0-9.232z" fill="#4fcae8"/></g><g><path d="m58.021 317.625 26.884-26.884c10.538-9.699 25.008 4.773 15.273 15.316 0 0-26.862 26.862-26.862 26.862-3.5 3.5-8.801 4.099-12.916 1.796-6.197-3.348-7.457-12.171-2.379-17.09z" fill="#3f5d77"/><path d="m58.021 317.625 26.884-26.884c6.194 3.341 7.452 12.176 2.378 17.09 0 0-26.884 26.884-26.884 26.884-6.199-3.346-7.454-12.172-2.378-17.09z" fill="#3f6c8e"/><path d="m82.511 306.495c1.687 1.687 1.687 4.421 0 6.108l-11.861 11.861c-4.125 3.924-10.035-1.976-6.108-6.108 0 0 11.861-11.861 11.861-11.861 1.687-1.687 4.422-1.687 6.108 0z" fill="#22a8b9"/></g><g><path d="m54.893 390.267-3.769-32.644c-1.245-10.899 2.242-22.53 8.214-22.53s9.468 11.663 8.208 22.578l-3.763 32.596c-.776 5.948-8.209 5.779-8.89 0z" fill="#334353"/><path d="m54.893 390.267-3.769-32.644c5.904-3.072 10.273 5.839 10.033 13.397 0 0-.742 23.541-.742 23.541-2.753.767-5.238-1.497-5.522-4.294z" fill="#3e4e60"/><path d="m58.531 373.453c1.408 0 2.494 1.794 2.429 3.854l-.345 10.959c-.133 2.791-3.541 2.751-3.735 0 0 0-.665-10.959-.665-10.959-.125-2.06.907-3.854 2.316-3.854z" fill="#3f5d77"/></g></g></g><g><g><g><g><path d="m393.105 250.68c.037 6.806-5.598 12.515-12.477 12.477h-38.714c-16.538-.645-16.561-24.3 0-24.955h38.714c6.894.001 12.477 5.583 12.477 12.478z" fill="#3f6c8e"/><path d="m393.105 250.68c0 .465-.023.923-.076 1.373h-29.706c-7.377.049-13.253-6.529-12.401-13.85h29.706c6.894 0 12.477 5.582 12.477 12.477z" fill="#22a8b9"/></g><path d="m382.731 242.82h-14.792c-6.098.187-6.104 9.044 0 9.232h14.792c6.097-.186 6.104-9.043 0-9.232z" fill="#4fcae8"/></g><g><path d="m432.243 215.008-26.884 26.884c-10.538 9.699-25.008-4.773-15.273-15.316 0 0 26.862-26.862 26.862-26.862 3.5-3.5 8.801-4.099 12.916-1.796 6.197 3.348 7.457 12.171 2.379 17.09z" fill="#3f5d77"/><path d="m432.243 215.008-26.884 26.884c-6.194-3.341-7.452-12.176-2.378-17.09 0 0 26.884-26.884 26.884-26.884 6.199 3.346 7.454 12.172 2.378 17.09z" fill="#3f6c8e"/><path d="m407.752 226.138c-1.687-1.687-1.687-4.421 0-6.108l11.861-11.861c4.125-3.924 10.035 1.976 6.108 6.108 0 0-11.861 11.861-11.861 11.861-1.686 1.687-4.421 1.687-6.108 0z" fill="#22a8b9"/></g><g><path d="m438.081 143.953 3.769 32.644c1.245 10.899-2.242 22.53-8.214 22.53s-9.468-11.663-8.208-22.578l3.763-32.596c.777-5.948 8.21-5.779 8.89 0z" fill="#334353"/><path d="m438.081 143.953 3.769 32.644c-5.904 3.072-10.273-5.839-10.033-13.397 0 0 .742-23.541.742-23.541 2.753-.767 5.239 1.497 5.522 4.294z" fill="#3e4e60"/><path d="m434.444 160.767c-1.408 0-2.494-1.794-2.429-3.854l.345-10.959c.133-2.791 3.541-2.751 3.735 0 0 0 .665 10.959.665 10.959.125 2.06-.908 3.854-2.316 3.854z" fill="#3f5d77"/></g></g><g><g><g><path d="m119.39 250.68c-.037 6.806 5.598 12.515 12.477 12.477h38.714c16.538-.645 16.561-24.3 0-24.955h-38.714c-6.894.001-12.477 5.583-12.477 12.478z" fill="#3f6c8e"/><path d="m119.39 250.68c0 .465.023.923.076 1.373h29.706c7.377.049 13.253-6.529 12.401-13.85h-29.706c-6.894 0-12.477 5.582-12.477 12.477z" fill="#22a8b9"/></g><path d="m129.764 242.82h14.792c6.098.187 6.104 9.044 0 9.232h-14.792c-6.097-.186-6.104-9.043 0-9.232z" fill="#4fcae8"/></g><g><path d="m80.252 215.008 26.884 26.884c10.538 9.699 25.008-4.773 15.273-15.316 0 0-26.862-26.862-26.862-26.862-3.5-3.5-8.801-4.099-12.916-1.796-6.197 3.348-7.457 12.171-2.379 17.09z" fill="#3f5d77"/><path d="m80.252 215.008 26.884 26.884c6.194-3.341 7.452-12.176 2.378-17.09 0 0-26.884-26.884-26.884-26.884-6.199 3.346-7.454 12.172-2.378 17.09z" fill="#3f6c8e"/><path d="m104.742 226.138c1.687-1.687 1.687-4.421 0-6.108l-11.861-11.861c-4.125-3.924-10.035 1.976-6.108 6.108 0 0 11.861 11.861 11.861 11.861 1.687 1.687 4.422 1.687 6.108 0z" fill="#22a8b9"/></g><g><path d="m74.414 143.953-3.769 32.644c-1.245 10.899 2.242 22.53 8.214 22.53s9.468-11.663 8.208-22.578l-3.763-32.596c-.777-5.948-8.21-5.779-8.89 0z" fill="#334353"/><path d="m74.414 143.953-3.769 32.644c5.904 3.072 10.273-5.839 10.033-13.397 0 0-.742-23.541-.742-23.541-2.753-.767-5.239 1.497-5.522 4.294z" fill="#3e4e60"/><path d="m78.051 160.767c1.408 0 2.494-1.794 2.429-3.854l-.345-10.959c-.133-2.791-3.541-2.751-3.735 0 0 0-.665 10.959-.665 10.959-.125 2.06.908 3.854 2.316 3.854z" fill="#3f5d77"/></g></g></g><g><g><g><path d="m382.535 182.138-18.138 18.138c-9.292 9.726-26.506 6.237-31.417-6.185-2.929-6.994-1.549-15.369 4.151-21.069l10.659-10.671c2.65-2.638 6.462-3.739 10.093-2.904.97.205 19.027 4.377 19.4 4.442 8.326 1.899 11.291 12.21 5.252 18.249z" fill="#3f6c8e"/><path d="m372.2 171.791-18.15 18.15c-5.7 5.7-14.075 7.079-21.07 4.151-2.929-6.995-1.549-15.369 4.151-21.07l10.659-10.671c2.65-2.638 6.462-3.739 10.093-2.904l17.475 4.006c.195 2.928-.786 5.966-3.158 8.338z" fill="#22a8b9"/><path d="m349.02 184.909c-3.307-3.434-2.494-8.19 1.041-11.11 6.884-6.43 16.502 3.171 10.067 10.065-2.891 3.538-7.698 4.349-11.108 1.045z" fill="#4fcae8"/></g><g><path d="m390.526 133.884v26.971c0 8.359-6.784 15.143-15.143 15.143s-15.143-6.784-15.143-15.143v-18.665c0-2.926 1.509-5.656 3.989-7.217l13.24-8.306c1.745-1.103 3.661-1.47 5.459-1.273 4.067.46 7.598 3.845 7.598 8.49z" fill="#3f5d77"/><path d="m382.928 125.394v20.686c.169 11.486-12.898 18.982-22.688 13.122v-17.012c0-2.926 1.509-5.656 3.989-7.217l13.24-8.306c1.745-1.102 3.661-1.469 5.459-1.273z" fill="#3f6c8e"/><path d="m372.045 153.241c-2.75 0-4.979-2.229-4.979-4.979v-4.836c.203-6.58 9.756-6.581 9.958 0v4.836c0 2.75-2.23 4.979-4.979 4.979z" fill="#22a8b9"/></g><g><g><path d="m341.938 136.121-12.302-12.302c-19.064-19.422-16.318-38.368-16.362-63.069l52.017 52.017z" fill="#3e4e60"/><path d="m342.149 94.679c-26.585 28.67 12.259 67.468 40.587 40.874 10.866-11.201 10.262-29.839-.774-40.874l-32.319-32.319c-11.182-11.182-26.349-17.465-42.163-17.465-3.717 0-5.578 4.493-2.95 7.121l37.618 37.618c1.394 1.395 1.394 3.653.001 5.045z" fill="#334353"/><path d="m338.014 59.359 33.32 33.32c4.952 5.26-2.458 12.703-7.74 7.74 0 0-33.32-33.32-33.32-33.32-4.952-5.26 2.458-12.703 7.74-7.74z" fill="#3e4e60"/><g fill="#3f5d77"><path d="m344.008 65.354 14.446 14.446c2.137 2.137 2.137 5.603 0 7.74s-5.603 2.137-7.74 0l-14.446-14.446c-4.955-5.268 2.464-12.7 7.74-7.74z"/><path d="m330.478 86.521 1.244 12.392c.302 3.008-1.891 5.69-4.899 5.992s-5.69-1.891-5.992-4.899l-1.244-12.392c-.502-7.217 9.946-8.271 10.891-1.093z"/></g></g><g><path d="m376.18 131.176c-8.141 8.141-21.388 8.141-29.529 0-1.688-1.688-1.688-4.425 0-6.113s4.425-1.688 6.113 0c4.771 4.771 12.533 4.771 17.304 0 4.125-3.927 10.044 1.978 6.112 6.113z" fill="#3e4e60"/></g></g></g><g><g><path d="m129.959 182.138 18.138 18.138c9.292 9.726 26.506 6.237 31.417-6.185 2.929-6.994 1.549-15.369-4.151-21.069l-10.659-10.671c-2.65-2.638-6.462-3.739-10.093-2.904-.97.205-19.027 4.377-19.399 4.442-8.327 1.899-11.291 12.21-5.253 18.249z" fill="#3f6c8e"/><path d="m140.294 171.791 18.15 18.15c5.7 5.7 14.075 7.079 21.07 4.151 2.929-6.995 1.549-15.369-4.151-21.07l-10.659-10.671c-2.65-2.638-6.462-3.739-10.093-2.904l-17.475 4.006c-.194 2.928.787 5.966 3.158 8.338z" fill="#22a8b9"/><path d="m163.475 184.909c3.307-3.434 2.494-8.19-1.041-11.11-6.884-6.43-16.502 3.171-10.067 10.065 2.891 3.538 7.697 4.349 11.108 1.045z" fill="#4fcae8"/></g><g><path d="m121.969 133.884v26.971c0 8.359 6.784 15.143 15.143 15.143s15.143-6.784 15.143-15.143v-18.665c0-2.926-1.509-5.656-3.989-7.217l-13.24-8.306c-1.745-1.103-3.661-1.47-5.459-1.273-4.068.46-7.598 3.845-7.598 8.49z" fill="#3f5d77"/><path d="m129.567 125.394v20.686c-.169 11.486 12.898 18.982 22.688 13.122v-17.012c0-2.926-1.509-5.656-3.989-7.217l-13.24-8.306c-1.745-1.102-3.661-1.469-5.459-1.273z" fill="#3f6c8e"/><path d="m140.45 153.241c2.75 0 4.979-2.229 4.979-4.979v-4.836c-.203-6.58-9.756-6.581-9.958 0v4.836c0 2.75 2.229 4.979 4.979 4.979z" fill="#22a8b9"/></g><g><g><path d="m170.557 136.121 12.302-12.302c19.064-19.422 16.318-38.368 16.362-63.069l-52.017 52.017z" fill="#3e4e60"/><path d="m170.346 94.679c26.585 28.67-12.259 67.468-40.587 40.874-10.867-11.201-10.262-29.839.774-40.874l32.319-32.319c11.182-11.182 26.349-17.465 42.163-17.465 3.717 0 5.578 4.493 2.95 7.121l-37.618 37.618c-1.394 1.395-1.394 3.653-.001 5.045z" fill="#334353"/><path d="m174.481 59.359-33.32 33.32c-4.952 5.26 2.458 12.703 7.74 7.74 0 0 33.32-33.32 33.32-33.32 4.952-5.26-2.458-12.703-7.74-7.74z" fill="#3e4e60"/><g fill="#3f5d77"><path d="m168.487 65.354-14.446 14.446c-2.137 2.137-2.137 5.603 0 7.74s5.603 2.137 7.74 0l14.446-14.446c4.955-5.268-2.465-12.7-7.74-7.74z"/><path d="m182.017 86.521-1.244 12.392c-.302 3.008 1.891 5.69 4.899 5.992s5.69-1.891 5.992-4.899l1.244-12.392c.501-7.217-9.947-8.271-10.891-1.093z"/></g></g><g><path d="m136.315 131.176c8.141 8.141 21.388 8.141 29.529 0 1.688-1.688 1.688-4.425 0-6.113s-4.425-1.688-6.113 0c-4.771 4.771-12.533 4.771-17.304 0-4.125-3.927-10.044 1.978-6.112 6.113z" fill="#3e4e60"/></g></g></g></g><g><g><path d="m301.571 156.84-2.746-2.746c-4.299-4.299-11.465-3.551-14.784 1.542l-11.51 17.665c-1.834 2.814-1.446 6.528.929 8.903s6.089 2.763 8.903.929l17.665-11.51c5.094-3.318 5.842-10.484 1.543-14.783z" fill="#3f6c8e"/><g><path d="m291.576 152.11 3.465-3.465c3.288-3.329 8.754-3.28 11.989-.004 3.311 3.311 3.307 8.678-.004 11.989l-3.465 3.465c-8.191 7.636-19.641-3.711-11.985-11.985z" fill="#334353"/><path d="m291.575 152.105 3.459-3.459c2.416-2.398 5.892-3.097 8.972-1.95 1.113 3.011.466 6.539-1.958 8.964l-3.459 3.459c-2.319 2.348-5.94 3.102-8.955 1.95-1.162-3.025-.408-6.642 1.941-8.964z" fill="#3e4e60"/></g></g><g><path d="m213.669 154.095-2.746 2.746c-4.299 4.299-3.551 11.465 1.542 14.784l17.665 11.51c2.814 1.834 6.528 1.446 8.903-.929s2.763-6.089.929-8.903l-11.51-17.665c-3.318-5.095-10.484-5.842-14.783-1.543z" fill="#3f5d77"/><g><path d="m217.415 148.601 3.465 3.465c3.329 3.288 3.28 8.754.004 11.989-3.311 3.311-8.678 3.307-11.989-.004l-3.465-3.465c-7.636-8.192 3.711-19.642 11.985-11.985z" fill="#334353"/><path d="m217.42 148.6 3.459 3.459c2.398 2.416 3.097 5.892 1.95 8.972-3.011 1.113-6.539.466-8.964-1.958l-3.459-3.459c-2.348-2.319-3.102-5.94-1.949-8.955 3.024-1.162 6.641-.408 8.963 1.941z" fill="#3e4e60"/></g></g></g></g><g><path d="m367.68 246.167c0 9.493-3.023 18.739-8.623 26.396l-39.734 54.341c-9.716 13.29-25.192 21.148-41.657 21.148h-42.838c-16.465 0-31.941-7.858-41.657-21.148l-39.734-54.341c-2.8-3.829-4.954-8.057-6.414-12.508-11.479-43.699 26.089-87.216 70.462-86.56h77.523c40.133-.001 72.674 32.539 72.672 72.672z" fill="#3e4e60"/><path d="m367.68 246.167c0 9.493-3.023 18.739-8.623 26.396l-39.734 54.341c-9.716 13.29-25.192 21.148-41.657 21.148h-21.419v-174.557h38.761c40.133-.001 72.674 32.539 72.672 72.672z" fill="#3f5d77"/><path d="m327.061 241.317c0 6.039-1.914 11.91-5.472 16.776l-25.256 34.541c-6.174 8.44-16.01 13.433-26.468 13.433h-27.235c-10.458 0-20.294-4.993-26.468-13.433l-25.256-34.541c-3.564-4.877-5.471-10.737-5.472-16.776 0-25.503 20.677-46.18 46.18-46.18h49.267c25.499.003 46.18 20.675 46.18 46.18z" fill="#3f5d77"/><path d="m327.061 241.317c0 6.039-1.914 11.91-5.472 16.776l-25.256 34.541c-6.174 8.44-16.01 13.433-26.468 13.433h-13.617v-110.93h24.633c25.499.003 46.18 20.675 46.18 46.18z" fill="#3f6c8e"/><g><path d="m295.746 247.437h-39.498v-27.531h39.498c18.265.738 18.259 26.795 0 27.531z" fill="#22a8b9"/><path d="m216.749 219.905h39.498v27.531h-39.498c-18.266-.738-18.259-26.795 0-27.531z" fill="#3f6c8e"/></g></g></g></g></svg>