<svg id="Icons" enable-background="new 0 0 512 512" height="512" viewBox="0 0 512 512" width="512" xmlns="http://www.w3.org/2000/svg"><g><circle cx="256" cy="256" fill="#ea792e" r="256"/><g><g><path d="m373.3 64.48v125.781c0 7.152-2.242 14.125-6.411 19.937l-26.479 36.912c1.131.757-67.199-44.66-68.99-45.85l15.62-56.7c2.08-7.55 5.88-14.51 11.11-20.34l59.07-65.93c5.565-6.243 16.13-2.161 16.08 6.19z" fill="#decee5"/><path d="m341.93 173.85c4.47 13.59 4.99 28.09 1.61 41.87-1.347 6.357-7.432 20.749-9.71 27.02l-62.41-41.48 15.62-56.7c2.08-7.55 5.88-14.51 11.11-20.34l28.95-32.31 30.12-33.62c4.383-5.05 13.05-3.482 15.41 2.75l-26.96 56.02c-8.53 17.73-9.87 38.09-3.74 56.79z" fill="#f4e6f4"/><path d="m341.93 173.85c4.47 13.59 4.99 28.09 1.61 41.87-26.398-32.72-33.657-84.406-16.439-123.81-.001 0 30.119-33.62 30.119-33.62 4.387-5.051 13.048-3.482 15.41 2.75l-26.96 56.02c-8.53 17.73-9.87 38.09-3.74 56.79z" fill="#fff"/></g><g><path d="m138.693 64.48v125.781c0 7.152 2.242 14.125 6.411 19.937l26.479 36.913c-1.131.757 67.199-44.66 68.99-45.85l-15.62-56.7c-2.08-7.55-5.88-14.51-11.11-20.34l-59.07-65.93c-5.565-6.244-16.13-2.162-16.08 6.189z" fill="#c2aacf"/><path d="m170.063 173.85c-4.47 13.59-4.99 28.09-1.61 41.87 1.347 6.357 7.432 20.749 9.71 27.02l62.41-41.48-15.62-56.7c-2.08-7.55-5.88-14.51-11.11-20.34l-28.95-32.31-30.12-33.62c-4.383-5.05-13.05-3.482-15.41 2.75l26.96 56.02c8.529 17.73 9.87 38.09 3.74 56.79z" fill="#ebd9ea"/><path d="m170.063 173.85c-4.47 13.59-4.99 28.09-1.61 41.87 26.398-32.72 33.657-84.406 16.439-123.81.001 0-30.119-33.62-30.119-33.62-4.386-5.051-13.048-3.482-15.41 2.75l26.96 56.02c8.529 17.73 9.87 38.09 3.74 56.79z" fill="#f9f2f9"/></g><g><g><path d="m366.39 316.38v23.28c.165 62.469-53.755 109.99-115.451 105.329-58.179.001-105.339-47.159-105.339-105.329v-23.28c-.166-62.469 53.756-109.99 115.46-105.329 58.17-.001 105.33 47.159 105.33 105.329z" fill="#c2aacf"/><path d="m366.39 316.38v23.28c.164 60.098-50.517 107.974-110.39 105.33v-233.94c59.874-2.643 110.553 45.232 110.39 105.33z" fill="#decee5"/></g><g><path d="m282.65 450.74h-53.3c-34.61 0-61-28.63-55.52-60.22 1.736-10.017 5.268-30.389 7.01-40.45 2.77-15.94 2.77-32.2 0-48.14l-5.23-30.21c-6.42-36.96 24.47-70.46 64.97-70.46h30.84c40.5 0 71.39 33.5 64.97 70.46l-5.23 30.21c-2.77 15.94-2.77 32.2 0 48.14l3.69 21.3 3.32 19.15c5.48 31.59-20.91 60.22-55.52 60.22z" fill="#decee5"/><path d="m282.65 450.74h-26.65v-249.48h15.42c40.5 0 71.39 33.5 64.97 70.46l-5.23 30.21c-2.77 15.94-2.77 32.2 0 48.14 1.732 10.031 5.281 30.454 7.01 40.45 5.48 31.59-20.91 60.22-55.52 60.22z" fill="#ebd9ea"/></g><g><g><path d="m330.58 297.358c9.733 1.716 16.254 10.926 14.666 20.653-.001.085-.015.167-.03.249l-2.18 12.362c-1.729 9.807-11.089 16.388-20.905 14.65-9.869-1.693-16.394-11.283-14.647-20.919 0 0 2.18-12.362 2.18-12.362 1.74-9.816 11.097-16.364 20.916-14.633z" fill="#3e4e60"/><path d="m330.58 297.358c9.733 1.716 16.254 10.926 14.666 20.653-8.448 9.798-24.826 13.633-37.998 8.403-.045-1.091 2.211-13.047 2.416-14.423 1.74-9.816 11.097-16.364 20.916-14.633z" fill="#2e3140"/><path d="m318.357 309.606-1.311 7.438c-.565 3.203 1.574 6.257 4.776 6.822s6.257-1.574 6.822-4.776l1.311-7.438c1.115-7.706-10.011-9.67-11.598-2.046z" fill="#fff"/></g><g><path d="m181.42 297.358c-9.733 1.716-16.254 10.926-14.666 20.653.001.085.015.167.03.249l2.18 12.362c1.729 9.807 11.089 16.388 20.905 14.65 9.869-1.693 16.394-11.283 14.647-20.919 0 0-2.18-12.362-2.18-12.362-1.74-9.816-11.097-16.364-20.916-14.633z" fill="#3e4e60"/><path d="m181.42 297.358c-9.733 1.716-16.254 10.926-14.666 20.653 8.448 9.798 24.826 13.633 37.998 8.403.045-1.091-2.211-13.047-2.416-14.423-1.74-9.816-11.097-16.364-20.916-14.633z" fill="#2e3140"/><path d="m193.643 309.606 1.311 7.438c.565 3.203-1.574 6.257-4.776 6.822-3.203.565-6.257-1.574-6.822-4.776l-1.311-7.438c-1.115-7.706 10.011-9.67 11.598-2.046z" fill="#fff"/></g></g><g><path d="m256 219.423c44.962 0 57.961 12.999 57.961 30.691 0 17.693-10.849 49.467-57.961 49.467z" fill="#f4e6f4"/><path d="m256 219.423c-44.962 0-57.961 12.999-57.961 30.691 0 17.693 10.849 49.467 57.961 49.467z" fill="#ebd9ea"/></g><g><g><path d="m338.89 398.86c0 28.11-24.71 51.88-56.24 51.88h-53.3c-34.61 0-61-28.63-55.52-60.22 1.92-11.07 11.518-19.149 22.76-19.15h118.82c15.341.214 24.145 12.936 23.48 27.49z" fill="#ebd9ea"/><path d="m338.89 398.86c0 28.11-24.71 51.88-56.24 51.88h-26.65v-79.37h59.41c15.369.221 24.134 12.941 23.48 27.49z" fill="#f4e6f4"/></g><g><path d="m337.742 413.534c-2.516-1.118-5.469.017-6.597 2.531-.069.156-7.134 15.586-20.118 15.586-25.814 0-44.153-9.925-50.027-13.578v-18.363c0-2.761-2.238-5-5-5s-5 2.239-5 5v18.364c-5.875 3.653-24.214 13.578-50.027 13.578-12.984 0-20.049-15.43-20.112-15.573-1.114-2.525-4.064-3.672-6.592-2.558-2.527 1.114-3.673 4.065-2.559 6.592.388.879 9.721 21.539 29.263 21.539 28.031 0 47.816-10.416 55.027-14.894 7.212 4.478 26.996 14.894 55.027 14.894 19.542 0 28.875-20.659 29.263-21.539 1.111-2.521-.029-5.46-2.548-6.579z" fill="#c2aacf"/><path d="m275.988 368.643v16.666c0 2.785-.809 5.524-2.315 7.877l-3.755 5.834c-1.929 3.011-5.251 4.828-8.818 4.828h-10.2c-3.567 0-6.889-1.816-8.818-4.828l-3.755-5.834c-1.506-2.353-2.315-5.091-2.315-7.877v-16.666c0-5.797 4.696-10.493 10.493-10.493h18.991c5.796 0 10.492 4.696 10.492 10.493z" fill="#f9f2f9"/><path d="m275.988 368.643v16.666c0 2.785-.809 5.524-2.315 7.877l-3.755 5.834c-1.929 3.011-5.251 4.828-8.818 4.828h-5.1v-45.698h9.495c5.797 0 10.493 4.696 10.493 10.493z" fill="#fff"/></g><g><g><g><path d="m378.356 413.559c-16.851-28.824-56.48-26.461-89.282-12.864-1.676.674-2.5 2.574-1.835 4.26.674 1.676 2.575 2.5 4.26 1.835 17.714-7.041 33.631-10.093 47.001-9.1 16.552.807 29.701 10.316 33.921 18.651 1.939 3.874 7.676 1.173 5.935-2.782z" fill="#f9f2f9"/><path d="m378.356 413.559c1.731 3.944-3.973 6.667-5.936 2.781-4.24-8.359-17.384-17.841-33.921-18.65-.496-2.21-.908-4.447-1.208-6.722 19.783.586 35.93 11.968 41.065 22.591z" fill="#fff"/></g><g><path d="m393.808 373.397c-23.527-23.691-61.304-11.486-89.661 9.886-1.454 1.072-1.776 3.118-.711 4.583 1.072 1.454 3.118 1.776 4.584.711 15.389-11.249 30.035-18.187 43.228-20.572 16.227-3.36 31.338 2.556 37.509 9.569 2.847 3.268 7.726-.783 5.051-4.177z" fill="#f9f2f9"/><path d="m393.808 373.397c2.663 3.386-2.179 7.449-5.051 4.178-6.197-7.033-21.295-12.923-37.509-9.569-1.033-2.015-1.992-4.079-2.852-6.206 19.301-4.382 37.782 2.597 45.412 11.597z" fill="#fff"/></g></g><g><g><path d="m135.217 417.922c1.606.756 3.584.08 4.363-1.582 4.29-8.42 17.411-17.833 33.921-18.65 13.37-.993 29.286 2.059 47.001 9.1 1.685.665 3.586-.159 4.26-1.835.665-1.685-.159-3.586-1.835-4.26-26.111-9.844-47.962-14.227-70.417-4.336-13.763 6.573-18.66 16.769-18.866 17.2-.768 1.639-.066 3.586 1.573 4.363z" fill="#f9f2f9"/><path d="m133.644 413.559c-1.731 3.944 3.973 6.667 5.936 2.781 4.24-8.359 17.384-17.841 33.921-18.65.496-2.21.908-4.447 1.208-6.722-19.783.586-35.93 11.968-41.065 22.591z" fill="#fff"/></g><g><path d="m118.623 378.015c1.366 1.134 3.45.974 4.62-.44 6.211-7.058 21.37-12.919 37.509-9.569 13.193 2.384 27.839 9.322 43.228 20.572 1.465 1.065 3.512.743 4.584-.711 1.065-1.465.743-3.512-.711-4.584-22.817-16.064-42.877-25.776-67.092-21.818-14.97 2.92-22.262 11.567-22.57 11.932-1.153 1.395-.96 3.456.432 4.618z" fill="#f9f2f9"/><path d="m118.192 373.397c-2.663 3.386 2.179 7.449 5.051 4.178 6.197-7.033 21.295-12.923 37.509-9.569 1.033-2.015 1.992-4.079 2.852-6.206-19.301-4.382-37.782 2.597-45.412 11.597z" fill="#fff"/></g></g></g></g></g></g></g></svg>