<svg id="Icons" enable-background="new 0 0 512 512" height="512" viewBox="0 0 512 512" width="512" xmlns="http://www.w3.org/2000/svg"><g><circle cx="256" cy="256" fill="#22bce0" r="256"/><g><g><g><path d="m487.919 165.683 1.698 8.11c5.413 25.848-11.156 51.195-37.005 56.608l-75.536 15.818c-13.574 2.842-26.877-5.854-29.718-19.419-1.239-5.915-.282-11.844 2.372-16.873 2.662-5.03 7.028-9.163 12.6-11.475l51.438-21.276 53.795-22.25c8.66-3.583 18.437 1.589 20.356 10.757z" fill="#fff"/><path d="m487.919 165.683 1.698 8.11c5.413 25.848-11.156 51.195-37.005 56.608l-2.276.477c-17.789-10.368-31.292-27.943-35.845-49.684-.281-1.34-.527-2.678-.724-4.018l53.795-22.25c8.661-3.583 18.438 1.589 20.357 10.757z" fill="#3e4e60"/><path d="m444.233 218.905-62.44 19.343-2.714.838c-.545.173-1.089.312-1.637.427-8.869 1.857-17.863-3.319-20.596-12.147-2.898-9.375 2.346-19.327 11.72-22.234l63.074-19.534 2.072-.645c.545-.173 1.089-.312 1.637-.427 8.869-1.857 17.861 3.311 20.596 12.147 2.906 9.374-2.338 19.326-11.712 22.232z" fill="#f4829b"/><path d="m444.233 218.905-62.44 19.343c6.664-22.203 24.915-41.811 49.846-52.651l2.072-.645c.545-.173 1.089-.312 1.637-.427 8.869-1.857 17.861 3.311 20.596 12.147 2.907 9.375-2.337 19.327-11.711 22.233z" fill="#ff9fb4"/></g><g><path d="m24.081 165.683-1.698 8.11c-5.413 25.848 11.156 51.195 37.005 56.608l75.536 15.818c13.574 2.842 26.877-5.854 29.718-19.419 1.239-5.915.282-11.844-2.372-16.873-2.662-5.03-7.028-9.163-12.6-11.475l-51.438-21.276-53.795-22.25c-8.66-3.583-18.437 1.589-20.356 10.757z" fill="#ebd9ea"/><path d="m24.081 165.683-1.698 8.11c-5.413 25.848 11.156 51.195 37.005 56.608l2.276.477c17.789-10.368 31.292-27.943 35.845-49.684.281-1.34.527-2.678.724-4.018l-53.795-22.25c-8.661-3.583-18.438 1.589-20.357 10.757z" fill="#2e3140"/><path d="m67.767 218.905 62.44 19.343 2.714.838c.545.173 1.089.312 1.637.427 8.869 1.857 17.863-3.319 20.596-12.147 2.898-9.375-2.346-19.327-11.72-22.234l-63.074-19.534-2.072-.645c-.545-.173-1.089-.312-1.637-.427-8.869-1.857-17.861 3.311-20.596 12.147-2.906 9.374 2.338 19.326 11.712 22.232z" fill="#ee6781"/><path d="m67.767 218.905 62.44 19.343c-6.664-22.203-24.915-41.811-49.846-52.651l-2.072-.645c-.545-.173-1.089-.312-1.637-.427-8.869-1.857-17.861 3.311-20.596 12.147-2.907 9.375 2.337 19.327 11.711 22.233z" fill="#f4829b"/></g></g><g><g><path d="m365.972 218.639-31.753 200.145c-4.63 29.182-29.794 50.673-59.343 50.673h-37.752c-29.549 0-54.714-21.491-59.343-50.673l-31.753-200.145c-3.417-21.469 6.822-41.536 23.784-52.131 1.502-.935 2.96-1.948 4.352-3.027 6.589-5.031 11.976-11.475 16.016-18.787 7.813-14.113 22.849-23.673 40.122-23.673h51.397c17.273 0 32.309 9.56 40.122 23.673 4.04 7.312 9.427 13.756 16.016 18.787 1.391 1.08 2.849 2.092 4.352 3.027 7.078 4.43 12.988 10.495 17.218 17.641 5.909 9.949 8.558 21.98 6.565 34.49z" fill="#ebd9ea"/><g fill="#fff"><path d="m365.972 218.639-31.753 200.145c-4.63 29.182-29.794 50.673-59.343 50.673h-18.876v-247.78c0-20.723 16.806-37.529 37.529-37.529h65.877c5.91 9.95 8.559 21.981 6.566 34.491z"/><path d="m276.887 129.23h-41.774c-9.088 0-16.456 7.368-16.456 16.456 0 9.088 7.368 16.456 16.456 16.456h41.774c9.088 0 16.456-7.368 16.456-16.456 0-9.088-7.368-16.456-16.456-16.456z"/></g></g><g><path d="m365.972 218.639-31.753 200.145h-28.013c-13.089 0-24.118-9.783-25.665-22.782l-9.727-81.352c-1.55-12.964-2.327-26.008-2.327-39.064v-11.492c0-7.134 2.894-13.6 7.568-18.275 4.75-4.739 11.33-7.647 18.581-7.567 14.177.158 25.548-11.787 25.548-25.966v-24.298c0-11.408 7.39-21.091 17.652-24.508 1.391 1.08 2.849 2.092 4.352 3.027 16.962 10.596 27.201 30.663 23.784 52.132z" fill="#3e4e60"/><path d="m243.513 264.093v11.492c0 13.056-.777 26.101-2.327 39.064l-9.726 81.352c-1.547 12.999-12.577 22.782-25.665 22.782h-28.013l-31.753-200.145c-3.417-21.469 6.822-41.536 23.784-52.131 1.502-.935 2.96-1.948 4.352-3.027 10.262 3.417 17.652 13.1 17.652 24.508v24.298c0 14.178 11.371 26.124 25.548 25.966 7.251-.081 13.831 2.828 18.581 7.567 4.673 4.673 7.567 11.14 7.567 18.274z" fill="#2e3140"/></g><g><path d="m174.561 398.493h15.534c14.067 0 25.914-10.514 27.584-24.481l3.823-31.962c1.978-16.533-10.933-31.081-27.584-31.081h-33.243z" fill="#3e4e60"/><path d="m337.439 398.493h-15.534c-14.067 0-25.914-10.514-27.584-24.481l-3.823-31.962c-1.978-16.533 10.933-31.081 27.584-31.081h33.243z" fill="#3f5d77"/><path d="m342.054 238.248c-6.622 0-11.991-5.369-11.991-11.991v-28.296c0-6.622 5.369-11.991 11.991-11.991 6.622 0 11.991 5.369 11.991 11.991v28.296c0 6.622-5.369 11.991-11.991 11.991z" fill="#3f5d77"/><path d="m169.946 238.248c-6.622 0-11.991-5.369-11.991-11.991v-28.296c0-6.622 5.369-11.991 11.991-11.991 6.622 0 11.991 5.369 11.991 11.991v28.296c0 6.622-5.368 11.991-11.991 11.991z" fill="#3e4e60"/><path d="m473.994 200.269h-4.43c-3.658 0-6.803-2.593-7.499-6.185l-3.782-19.502c-.834-4.303 2.115-8.424 6.457-9.022l8.212-1.132c4.59-.632 8.682 2.934 8.682 7.568v20.634c-.001 4.219-3.421 7.639-7.64 7.639z" fill="#3f5d77"/><path d="m37.88 200.269h4.43c3.658 0 6.803-2.593 7.499-6.185l3.782-19.502c.834-4.303-2.115-8.424-6.457-9.022l-8.212-1.132c-4.59-.632-8.682 2.934-8.682 7.568v20.634c.001 4.219 3.421 7.639 7.64 7.639z" fill="#3e4e60"/></g></g><g><g><g><path d="m390.124 108.9c0 18.609-1.469 33.712-7.09 44.752-7.034 13.812-20.579 21.269-45.932 21.269-24.752 0-33.578-10.495-33.578-22.916 0-11.085 9.004-19.733 19.288-19.733 5.108 0 9.56-.445 13.422-1.269 39.01-8.28 16.728-55.059-7.613-71.419-21.792-14.635-4.775-19.611 3.706-19.611 8.481.001 57.797 27.035 57.797 68.927z" fill="#b26e2b"/></g><g><path d="m390.124 108.9c0 18.609-1.469 33.712-7.09 44.752-1.158.089-2.337.134-3.517.134-16.394 0-31.453-8.536-43.283-22.783 17.563-3.728 22.704-15.259 20.824-28.303-2.293-15.927-15.058-34.112-28.436-43.116-21.792-14.635-4.775-19.611 3.706-19.611 7.012 0 41.892 18.453 53.801 48.503 2.503 6.323 3.995 13.146 3.995 20.424z" fill="#c68132"/></g><g><path d="m386.128 88.477c-8.325 6.077-18.175 10.94-29.071 14.224-2.293-15.927-15.058-34.112-28.436-43.116-21.792-14.635-4.775-19.611 3.706-19.611 7.012 0 41.892 18.453 53.801 48.503z" fill="#dd8c29"/></g><g><path d="m373.746 137.983c-.29 0-.584-.033-.878-.101-2.097-.483-3.405-2.574-2.922-4.67 7.808-33.89-2.278-47.008-20.777-67.278-1.45-1.589-1.338-4.053.251-5.503s4.054-1.338 5.503.251c19.737 21.625 31.108 37.415 22.615 74.278-.414 1.803-2.018 3.023-3.792 3.023z" fill="#fbcb74"/></g><g><path d="m376.368 112.265c-2.035 0-3.748-1.581-3.883-3.641-.75-11.452-4.794-20.724-13.96-32.001-1.357-1.669-1.104-4.123.566-5.48 1.669-1.356 4.124-1.104 5.48.566 7.516 9.247 14.618 20.057 15.689 36.406.14 2.147-1.486 4.001-3.633 4.142-.087.006-.174.008-.259.008z" fill="#fff"/></g></g><g><g><path d="m121.876 108.9c0 18.609 1.469 33.712 7.09 44.752 7.034 13.812 20.579 21.269 45.932 21.269 24.752 0 33.578-10.495 33.578-22.916 0-11.085-9.004-19.733-19.288-19.733-5.108 0-9.56-.445-13.422-1.269-39.01-8.28-16.728-55.059 7.613-71.419 21.792-14.635 4.775-19.611-3.706-19.611s-57.797 27.035-57.797 68.927z" fill="#b26e2b"/></g><g><path d="m121.876 108.9c0 18.609 1.469 33.712 7.09 44.752 1.158.089 2.337.134 3.517.134 16.394 0 31.452-8.536 43.283-22.783-17.563-3.728-22.705-15.259-20.824-28.303 2.293-15.927 15.058-34.112 28.436-43.116 21.792-14.635 4.775-19.611-3.706-19.611-7.012 0-41.892 18.453-53.801 48.503-2.503 6.323-3.995 13.146-3.995 20.424z" fill="#c68132"/></g><g><path d="m125.872 88.477c8.325 6.077 18.175 10.94 29.071 14.224 2.293-15.927 15.058-34.112 28.436-43.116 21.792-14.635 4.775-19.611-3.706-19.611-7.012 0-41.892 18.453-53.801 48.503z" fill="#dd8c29"/></g><g><path d="m138.254 137.983c.29 0 .584-.033.878-.101 2.097-.483 3.405-2.574 2.922-4.67-7.808-33.89 2.278-47.008 20.777-67.278 1.45-1.589 1.338-4.053-.251-5.503s-4.054-1.338-5.503.251c-19.737 21.625-31.108 37.415-22.615 74.278.414 1.803 2.018 3.023 3.792 3.023z" fill="#fbcb74"/></g><g><path d="m135.632 112.265c2.035 0 3.748-1.581 3.883-3.641.75-11.452 4.794-20.724 13.96-32.001 1.357-1.669 1.104-4.123-.566-5.48-1.669-1.356-4.124-1.104-5.48.566-7.516 9.247-14.618 20.057-15.689 36.406-.14 2.147 1.486 4.001 3.633 4.142.087.006.174.008.259.008z" fill="#fff"/></g></g></g><g><path d="m315.303 434.034-9.339 10.656c-5.944 6.787-13.537 12.163-22.086 15.84-8.563 3.689-18.068 5.678-27.878 5.678-19.606 0-38.076-7.956-49.964-21.518l-9.339-10.656c-5.473-6.244-.36-15.249 8.674-15.249h101.259c9.034-.001 14.146 9.004 8.673 15.249z" fill="#ee6781"/><path d="m315.303 434.034-9.339 10.656c-5.944 6.787-13.537 12.163-22.086 15.84-8.563 3.689-18.068 5.678-27.878 5.678v-47.424h50.63c9.034 0 14.146 9.005 8.673 15.25z" fill="#f4829b"/><path d="m270.946 418.784h-29.892c-4.105 0-7.432 3.328-7.432 7.432 0 4.105 3.328 7.432 7.432 7.432h29.892c4.105 0 7.432-3.328 7.432-7.432.001-4.104-3.327-7.432-7.432-7.432z" fill="#ff9fb4"/><g><path d="m292.919 422.985h-1.043c-3.995 0-7.233 3.238-7.233 7.233v6.862c0 3.995 3.238 7.233 7.233 7.233h1.043c3.995 0 7.233-3.238 7.233-7.233v-6.862c0-3.995-3.239-7.233-7.233-7.233z" fill="#3e4e60"/><path d="m220.124 422.985h-1.043c-3.995 0-7.233 3.238-7.233 7.233v6.862c0 3.995 3.238 7.233 7.233 7.233h1.043c3.995 0 7.233-3.238 7.233-7.233v-6.862c.001-3.995-3.238-7.233-7.233-7.233z" fill="#2e3140"/></g></g><g><g><path d="m319.518 249.372-17.378 4.657c-9.468 2.537-15.087 12.269-12.55 21.737l2.277 8.497c2.537 9.468 12.269 15.087 21.737 12.55l17.378-4.657c9.468-2.537 15.087-12.269 12.55-21.737l-2.277-8.497c-2.537-9.468-12.269-15.087-21.737-12.55z" fill="#fff"/><path d="m335.371 268.057c2.048 7.644-2.428 15.491-10.024 17.63-.062.028-.126.045-.191.063l-9.708 2.601c-3.849 1.031-7.76.409-10.964-1.441-3.214-1.847-5.706-4.912-6.74-8.771-1.921-7.171 1.902-14.532 8.647-17.181.51-.206 1.038-.382 1.576-.526l9.708-2.601c3.859-1.034 7.763-.398 10.966 1.452 3.204 1.849 5.696 4.914 6.73 8.774z" fill="#3e4e60"/><path d="m335.371 268.057c2.048 7.644-2.428 15.491-10.024 17.63-8.361-2.564-15.446-9.699-18.036-19.364-.481-1.795-.789-3.591-.919-5.365.51-.206 1.038-.382 1.576-.526l9.708-2.601c3.859-1.034 7.763-.398 10.966 1.452 3.203 1.849 5.695 4.914 6.729 8.774z" fill="#2e3140"/><path d="m322.348 263.331-5.841 1.565c-2.515.674-4.008 3.259-3.334 5.774.674 2.515 3.259 4.008 5.774 3.334l5.841-1.565c2.515-.674 4.008-3.259 3.334-5.774-.674-2.515-3.259-4.008-5.774-3.334z" fill="#fff"/></g><g><path d="m193.2 249.372 17.378 4.657c9.468 2.537 15.087 12.269 12.55 21.737l-2.277 8.497c-2.537 9.468-12.269 15.087-21.737 12.55l-17.378-4.657c-9.468-2.537-15.087-12.269-12.55-21.737l2.277-8.497c2.537-9.468 12.269-15.087 21.737-12.55z" fill="#fff"/><path d="m214.973 278.139c-2.048 7.644-9.849 12.202-17.497 10.256-.067-.007-.132-.024-.196-.041l-9.708-2.601c-3.849-1.031-6.925-3.526-8.774-6.73-1.86-3.206-2.486-7.107-1.452-10.966 1.921-7.171 8.913-11.634 16.079-10.555.544.077 1.09.188 1.628.333l9.708 2.601c3.859 1.034 6.922 3.537 8.771 6.74 1.85 3.202 2.475 7.103 1.441 10.963z" fill="#3e4e60"/><path d="m214.973 278.139c-2.048 7.644-9.849 12.202-17.497 10.256-5.959-6.401-8.527-16.123-5.938-25.788.481-1.795 1.112-3.504 1.887-5.106.544.077 1.09.188 1.628.333l9.708 2.601c3.859 1.034 6.922 3.537 8.771 6.74 1.85 3.203 2.475 7.104 1.441 10.964z" fill="#2e3140"/><path d="m206.058 267.534-5.841-1.565c-2.515-.674-5.1.819-5.774 3.334-.674 2.515.819 5.1 3.334 5.774l5.841 1.565c2.515.674 5.1-.819 5.774-3.334.673-2.515-.819-5.1-3.334-5.774z" fill="#fff"/></g></g></g></g></svg>