<svg id="Icons" enable-background="new 0 0 512 512" height="512" viewBox="0 0 512 512" width="512" xmlns="http://www.w3.org/2000/svg"><g><circle cx="256" cy="256" fill="#ee6781" r="256"/><g><g><g><path d="m420.987 283.102c7.18 7.159 11.617 17.061 11.617 28 0 21.837-17.707 39.543-39.543 39.543-3.124 0-6.163-.371-9.075-1.059 1.345 3.219 2.097 6.746 2.097 10.452 0 14.964-12.136 27.1-27.1 27.1-6.163 0-11.84-2.065-16.393-5.528-6.502-4.946-10.707-12.772-10.707-21.572 0-14.964 12.136-27.1 27.1-27.1.381 0 .762.021 1.133.032-4.162-6.259-6.598-13.778-6.598-21.868 0-12.517 5.825-23.669 14.9-30.923-15.811-9.732-26.348-27.206-26.348-47.136 0-28.784 21.964-52.421 50.049-55.079 1.737-.169 3.505-.254 5.284-.254 30.563 0 55.333 24.77 55.333 55.333 0 22.122-12.983 41.206-31.749 50.059z" fill="#fff"/><path d="m394.978 279.342c7.18 7.159 11.617 17.061 11.617 28 0 21.837-17.707 39.543-39.543 39.543-3.124 0-6.163-.381-9.075-1.059 1.345 3.209 2.097 6.746 2.097 10.452 0 11.575-7.265 21.455-17.484 25.331-6.502-4.946-10.707-12.772-10.707-21.572 0-14.964 12.136-27.1 27.1-27.1.381 0 .762.021 1.133.032-4.162-6.259-6.598-13.778-6.598-21.868 0-12.517 5.825-23.669 14.9-30.923-15.811-9.732-26.348-27.206-26.348-47.136 0-28.784 21.964-52.421 50.049-55.079 20.29 8.197 34.608 28.085 34.608 51.319 0 22.124-12.983 41.207-31.749 50.06z" fill="#f4e6f4"/></g><g><path d="m91.013 283.102c-7.18 7.159-11.617 17.061-11.617 28 0 21.837 17.707 39.543 39.543 39.543 3.124 0 6.163-.371 9.075-1.059-1.345 3.219-2.097 6.746-2.097 10.452 0 14.964 12.136 27.1 27.1 27.1 6.163 0 11.84-2.065 16.393-5.528 6.502-4.946 10.707-12.772 10.707-21.572 0-14.964-12.136-27.1-27.1-27.1-.381 0-.762.021-1.133.032 4.162-6.259 6.598-13.778 6.598-21.868 0-12.517-5.825-23.669-14.9-30.923 15.811-9.732 26.348-27.206 26.348-47.136 0-28.784-21.964-52.421-50.049-55.079-1.737-.169-3.505-.254-5.284-.254-30.563 0-55.333 24.77-55.333 55.333 0 22.122 12.983 41.206 31.749 50.059z" fill="#fff"/><path d="m117.022 279.342c-7.18 7.159-11.617 17.061-11.617 28 0 21.837 17.707 39.543 39.543 39.543 3.124 0 6.163-.381 9.075-1.059-1.345 3.209-2.097 6.746-2.097 10.452 0 11.575 7.265 21.455 17.484 25.331 6.502-4.946 10.707-12.772 10.707-21.572 0-14.964-12.136-27.1-27.1-27.1-.381 0-.762.021-1.133.032 4.162-6.259 6.598-13.778 6.598-21.868 0-12.517-5.825-23.669-14.9-30.923 15.811-9.732 26.348-27.206 26.348-47.136 0-28.784-21.964-52.421-50.049-55.079-20.29 8.197-34.608 28.085-34.608 51.319 0 22.124 12.983 41.207 31.749 50.06z" fill="#f4e6f4"/></g></g><g><g><g><path d="m472.88 141.082 1.433 8.589c4.568 27.374-9.414 54.216-31.226 59.948l-63.739 16.751c-11.454 3.01-22.679-6.199-25.077-20.565-1.045-6.264-.238-12.543 2.001-17.868 2.246-5.327 5.93-9.703 10.632-12.152l43.405-22.531 45.393-23.563c7.309-3.795 15.558 1.682 17.178 11.391z" fill="#c2aacf"/><path d="m436.016 197.444-52.689 20.484-2.29.887c-.46.183-.919.331-1.382.452-7.484 1.967-15.073-3.514-17.38-12.864-2.446-9.929 1.98-20.468 9.89-23.546l53.223-20.687 1.749-.683c.46-.183.919-.331 1.382-.452 7.484-1.967 15.072 3.506 17.38 12.864 2.453 9.928-1.973 20.467-9.883 23.545z" fill="#ee6781"/><path d="m436.016 197.444-52.689 20.484c5.623-23.513 21.024-44.278 42.062-55.757l1.749-.683c.46-.183.919-.331 1.382-.452 7.484-1.967 15.072 3.506 17.38 12.864 2.452 9.927-1.974 20.466-9.884 23.544z" fill="#f4829b"/><path d="m461.13 177.709h-3.738c-3.087 0-5.741-2.747-6.328-6.55l-3.191-20.653c-.704-4.557 1.785-8.921 5.448-9.554l6.93-1.198c3.873-.67 7.326 3.107 7.326 8.014v21.851c-.001 4.468-2.887 8.09-6.447 8.09z" fill="#decee5"/></g><g><path d="m39.12 141.082-1.433 8.589c-4.567 27.374 9.414 54.216 31.226 59.948l63.739 16.751c11.454 3.01 22.679-6.199 25.077-20.565 1.045-6.264.238-12.543-2.001-17.868-2.246-5.327-5.93-9.703-10.632-12.152l-43.405-22.531-45.395-23.564c-7.307-3.794-15.556 1.683-17.176 11.392z" fill="#a583bb"/><path d="m75.984 197.444 52.689 20.484 2.29.887c.46.183.919.331 1.382.452 7.484 1.967 15.073-3.514 17.38-12.864 2.446-9.929-1.98-20.468-9.89-23.546l-53.225-20.686-1.749-.683c-.46-.183-.919-.331-1.382-.452-7.484-1.967-15.072 3.506-17.38 12.864-2.451 9.927 1.975 20.466 9.885 23.544z" fill="#dd5273"/><path d="m75.984 197.444 52.689 20.484c-5.623-23.513-21.024-44.278-42.062-55.757l-1.749-.683c-.46-.183-.919-.331-1.382-.452-7.484-1.967-15.072 3.506-17.38 12.864-2.452 9.927 1.974 20.466 9.884 23.544z" fill="#ee6781"/><path d="m50.764 177.709h3.738c3.087 0 5.741-2.747 6.328-6.55l3.191-20.653c.704-4.557-1.785-8.921-5.448-9.554l-6.93-1.198c-3.873-.67-7.326 3.107-7.326 8.014v21.851c.001 4.468 2.887 8.09 6.447 8.09z" fill="#c2aacf"/></g></g><g><path d="m375.286 220.324-9.754 100.965c-2.383 24.59-16.15 45.537-35.784 57.832-4.109 2.563-7.382 6.121-9.637 10.241-2.256 4.119-3.484 8.811-3.484 13.651 0 16.743-6.788 31.897-17.76 42.869-10.971 10.971-26.126 17.76-42.868 17.76s-31.897-6.788-42.868-17.76c-10.971-10.971-17.76-26.126-17.76-42.869 0-9.679-4.914-18.755-13.121-23.891-19.634-12.295-33.401-33.242-35.784-57.832l-9.754-100.965c-4.363-45.209 31.177-84.35 76.598-84.35h85.377c45.422-.001 80.962 39.14 76.599 84.349z" fill="#c2aacf"/><path d="m375.286 220.324-9.754 100.965c-2.383 24.59-16.15 45.537-35.784 57.832-4.109 2.563-7.382 6.121-9.637 10.241-2.256 4.119-3.484 8.811-3.484 13.651 0 16.743-6.788 31.897-17.76 42.869-10.971 10.971-26.126 17.76-42.868 17.76v-327.668h42.689c45.421 0 80.961 39.141 76.598 84.35z" fill="#decee5"/></g><g><g><path d="m358.643 235.614c2.651 9.893-3.143 20.05-12.974 22.818-.08.036-.163.059-.247.081l-12.564 3.367c-4.981 1.335-10.044.529-14.19-1.865-4.16-2.39-7.385-6.357-8.724-11.352-2.487-9.281 2.461-18.809 11.192-22.236.659-.266 1.344-.494 2.04-.681l12.564-3.367c4.995-1.338 10.048-.515 14.193 1.879 4.146 2.394 7.371 6.361 8.71 11.356z" fill="#3e4e60"/><path d="m358.643 235.614c2.651 9.893-3.143 20.05-12.974 22.818-10.821-3.319-19.992-12.554-23.343-25.062-.623-2.324-1.022-4.647-1.19-6.944.659-.266 1.344-.494 2.04-.681l12.564-3.367c4.995-1.338 10.048-.515 14.193 1.879 4.146 2.395 7.371 6.362 8.71 11.357z" fill="#2e3140"/><path d="m341.787 229.498-7.56 2.026c-3.255.872-5.187 4.218-4.315 7.473.872 3.255 4.218 5.187 7.473 4.315l7.56-2.026c3.255-.872 5.187-4.218 4.315-7.473-.872-3.256-4.218-5.187-7.473-4.315z" fill="#fff"/></g><g><path d="m202.816 248.663c-2.651 9.893-12.747 15.792-22.645 13.274-.087-.008-.171-.031-.254-.053l-12.564-3.367c-4.981-1.335-8.963-4.564-11.356-8.71-2.408-4.15-3.217-9.198-1.879-14.193 2.487-9.281 11.536-15.058 20.81-13.662.704.099 1.411.244 2.107.43l12.564 3.367c4.995 1.338 8.959 4.578 11.353 8.724 2.393 4.146 3.203 9.195 1.864 14.19z" fill="#3e4e60"/><path d="m202.816 248.663c-2.651 9.893-12.747 15.792-22.645 13.274-7.712-8.285-11.036-20.868-7.685-33.376.623-2.324 1.439-4.536 2.442-6.608.704.099 1.411.244 2.107.43l12.564 3.367c4.995 1.338 8.959 4.578 11.353 8.724 2.393 4.145 3.203 9.194 1.864 14.189z" fill="#2e3140"/><path d="m191.277 234.938-7.56-2.026c-3.255-.872-6.601 1.06-7.473 4.315-.872 3.255 1.06 6.601 4.315 7.473l7.56 2.026c3.255.872 6.601-1.06 7.473-4.315.872-3.255-1.06-6.601-4.315-7.473z" fill="#fff"/></g></g><g><g><path d="m271.598 335.535h-15.598v-77.102h15.598c12.572 0 22.763 10.191 22.763 22.763v31.575c0 12.572-10.191 22.764-22.763 22.764z" fill="#f4e6f4"/><path d="m240.402 335.535h15.598v-77.102h-15.598c-12.572 0-22.763 10.191-22.763 22.763v31.575c0 12.572 10.191 22.764 22.763 22.764z" fill="#decee5"/></g><g><path d="m256 397.825c8.95 0 16.205-23.995 16.205-32.945s-7.255-16.205-16.205-16.205z" fill="#f4e6f4"/><path d="m256 348.675c-8.95 0-16.205 7.255-16.205 16.205s7.255 32.945 16.205 32.945z" fill="#decee5"/></g><g><path d="m329.089 278.659c-9.412 0-17.042 7.63-17.042 17.042v38.568c0 9.412 7.63 17.042 17.042 17.042 9.412 0 17.042-7.63 17.042-17.042v-38.568c0-9.412-7.63-17.042-17.042-17.042z" fill="#f4e6f4"/><path d="m182.911 278.659c-9.412 0-17.042 7.63-17.042 17.042v38.568c0 9.412 7.63 17.042 17.042 17.042 9.412 0 17.042-7.63 17.042-17.042v-38.568c-.001-9.412-7.63-17.042-17.042-17.042z" fill="#decee5"/></g><g><path d="m271.633 408.589c0-2.278.905-4.463 2.516-6.074l12.857-12.857c4.805-4.805 13.024-2.392 14.468 4.249l2.796 12.857c1.164 5.354-2.914 10.415-8.394 10.415h-15.653c-4.745 0-8.59-3.846-8.59-8.59z" fill="#f4e6f4"/><path d="m240.367 408.589c0-2.278-.905-4.463-2.516-6.074l-12.857-12.857c-4.805-4.805-13.024-2.392-14.468 4.249l-2.796 12.857c-1.164 5.354 2.914 10.415 8.394 10.415h15.653c4.745 0 8.59-3.846 8.59-8.59z" fill="#decee5"/></g><g><path d="m207.68 183.138h-9.201c-8.775 0-15.889 7.114-15.889 15.889v9.201c0 8.775 7.114 15.889 15.889 15.889h9.201c8.775 0 15.889-7.114 15.889-15.889v-9.201c-.001-8.775-7.114-15.889-15.889-15.889z" fill="#a583bb"/><path d="m313.521 183.138h-9.201c-8.775 0-15.889 7.114-15.889 15.889v9.201c0 8.775 7.114 15.889 15.889 15.889h9.201c8.775 0 15.889-7.114 15.889-15.889v-9.201c0-8.775-7.113-15.889-15.889-15.889z" fill="#c2aacf"/></g></g><path d="m315.962 425.737c-1.395-2.57-4.609-3.527-7.179-2.13-.086.047-8.855 4.654-18.656 4.654-7.988 0-17.204-2.046-23.932-3.54-1.835-.407-3.457-.766-4.9-1.054v-17.401l32.654-34.07c2.024-2.111 1.953-5.464-.158-7.487-2.112-2.023-5.464-1.952-7.486.159l-30.305 31.619-30.305-31.618c-2.023-2.112-5.375-2.183-7.486-.159-2.111 2.023-2.182 5.376-.158 7.487l32.654 34.07v17.401c-1.443.288-3.066.646-4.9 1.054-6.728 1.494-15.944 3.54-23.932 3.54-9.835 0-18.54-4.593-18.666-4.66-2.571-1.386-5.776-.43-7.169 2.136-1.394 2.57-.441 5.785 2.13 7.179.447.242 11.087 5.936 23.705 5.936 9.149 0 19.021-2.191 26.227-3.792 3.174-.704 6.772-1.503 7.9-1.503s4.726.799 7.9 1.503c7.206 1.6 17.077 3.792 26.227 3.792 12.617 0 23.258-5.693 23.705-5.936 2.571-1.396 3.524-4.61 2.13-7.18z" fill="#9175a7"/></g><g><path d="m397.706 146.533c-5.196-9.769-16.947-15.896-28.445-13.915 9.357-31.833-21.57-61.819-53.437-50.758v.011c-1.737.593-3.421 1.303-5.041 2.129-21.052-47.531-88.53-47.508-109.565 0-32.56-16.211-68.417 14.205-58.478 48.619-16.549-2.849-32.077 10.656-31.823 27.121 0 15.175 12.305 27.481 27.47 27.481 15.407.026 27.918-12.78 27.46-28.191 15.404 7.251 35.988 2.803 46.988-9.563 22.466 24.365 63.872 24.358 86.33 0 10.997 12.365 31.587 16.813 46.988 9.563-.457 15.411 12.053 28.216 27.46 28.191 20.598.296 34.208-22.89 24.093-40.688z" fill="#f4e6f4"/><path d="m373.613 132.268c-1.483 0-2.933.116-4.353.349 9.357-31.833-21.57-61.82-53.437-50.758v.011c-1.737.593-3.421 1.303-5.041 2.129-21.052-47.531-88.53-47.508-109.565 0-32.561-16.211-68.416 14.206-58.478 48.619-11.499-1.981-23.247 4.146-28.445 13.915 14.143 24.946 51.839 15.032 51.552-13.915 15.504 7.145 35.555 3.041 46.988-9.563 22.853 24.43 63.483 24.425 86.33 0 11.43 12.603 31.488 16.708 46.988 9.563-.283 28.966 37.427 38.847 51.553 13.915-4.67-8.504-13.714-14.265-24.092-14.265z" fill="#fff"/></g></g></g></svg>