<svg xmlns="http://www.w3.org/2000/svg" viewBox="0 0 32.39 28.22"><defs><style>.cls-1{fill:#35ba99;}</style></defs><title>ayuda</title><g id="Capa_2" data-name="Capa 2"><g id="Layer_1" data-name="Layer 1"><path class="cls-1" d="M23.79,0a8.08,8.08,0,0,0-6.73,3.69,10.32,10.32,0,0,0-.86,1.39,11.59,11.59,0,0,0-.87-1.39A8.08,8.08,0,0,0,8.6,0C3.64,0,0,4.13,0,9.19c0,5.64,4.58,9.5,11.52,15.35,1.29,1.08,2.63,2.21,4.05,3.44a.93.93,0,0,0,1.25,0c1.42-1.23,2.76-2.36,4.05-3.44,6.94-5.85,11.52-9.71,11.52-15.35C32.39,4.13,28.75,0,23.79,0ZM19.65,23.08C18.54,24,17.4,25,16.2,26l-3.46-2.93C9,19.94,6,17.41,4.12,14.93H8.6a1,1,0,0,0,.85-.52l1.05-2.1,2.95,5.89a.95.95,0,0,0,1.7,0l1-2.1,1,2.1a1,1,0,0,0,.85.53,1,1,0,0,0,.85-.53l2.95-5.89,1.05,2.1a.94.94,0,0,0,.85.51h4.49C26.38,17.4,23.38,19.94,19.65,23.08Zm4.72-10L22.74,9.76a1,1,0,0,0-1.7,0l-2.95,5.89L17,13.56a.94.94,0,0,0-1.69,0l-1,2.09-3-5.89a1,1,0,0,0-1.7,0L8,13H2.89a8.07,8.07,0,0,1-1-3.84C1.9,5,4.78,1.9,8.6,1.9a6.19,6.19,0,0,1,5.16,2.85,10.61,10.61,0,0,1,1.52,3,1,1,0,0,0,.92.7,1,1,0,0,0,.91-.7c0-.06,1.69-5.88,6.68-5.88,3.82,0,6.7,3.13,6.7,7.29a8.07,8.07,0,0,1-1,3.84Z"/></g></g></svg>