<svg xmlns="http://www.w3.org/2000/svg" viewBox="0 0 51.16 51.05"><defs><style>.cls-1{fill:#fec252;}.cls-2{fill:#ffd067;}.cls-3{fill:#ffe07e;}.cls-4{fill:#f4fbfe;}.cls-5{fill:#6d929e;}</style></defs><title>cup</title><g id="Capa_2" data-name="Capa 2"><g id="Layer_1" data-name="Layer 1"><path class="cls-1" d="M29.94,27.21a1.81,1.81,0,0,1-1.79-1.79V6.77A1.79,1.79,0,0,1,29.94,5H47.4a3,3,0,0,1,2.91,3.76l-2.06,8a11.92,11.92,0,0,1-8.62,8.57l-.08,0-9.26,1.88a1.45,1.45,0,0,1-.35,0ZM31.72,8.55V23.24l7.07-1.44a8.34,8.34,0,0,0,6-6l1.88-7.25Z"/><path class="cls-1" d="M21.23,27.21a1.47,1.47,0,0,1-.36,0l-9.26-1.88-.08,0A11.92,11.92,0,0,1,2.91,16.7L.85,8.75A3,3,0,0,1,3.76,5H21.23A1.78,1.78,0,0,1,23,6.77V25.42a1.79,1.79,0,0,1-1.78,1.79ZM12.37,21.8l7.07,1.44V8.55h-15L6.36,15.8A8.34,8.34,0,0,0,12.37,21.8Z"/><path class="cls-2" d="M28.52,27.54V20.32H22.65v6.05a12.66,12.66,0,0,1-9.16,12.17v3.67H37.67V38.54l-1.12-.32a11.11,11.11,0,0,1-8-10.68Z"/><path class="cls-1" d="M36.55,38.22a11.11,11.11,0,0,1-8-10.68V20.32H22.65v6.05a12.5,12.5,0,0,1-.29,2.68c.17,5.47,3.4,10.23,8,11.76l1.13.37v1h6.16V38.54Z"/><path class="cls-3" d="M39.77,38.5H11.39a1.61,1.61,0,0,0-1.61,1.61v8.08h31.6V40.11A1.61,1.61,0,0,0,39.77,38.5Z"/><path class="cls-2" d="M39.77,38.5H33.34A1.62,1.62,0,0,1,35,40.11v8.08h6.43V40.11a1.61,1.61,0,0,0-1.61-1.61Z"/><path class="cls-3" d="M28.85,28.88a6.73,6.73,0,0,1-6.54,0A19.73,19.73,0,0,1,12.19,11.65V2.94H39v8.71A19.73,19.73,0,0,1,28.85,28.88Z"/><path class="cls-2" d="M32.52,2.94v8.71A19.73,19.73,0,0,1,22.4,28.88l0,0a6.73,6.73,0,0,0,6.5,0A19.73,19.73,0,0,0,39,11.65V2.94Z"/><path class="cls-2" d="M42.83,46.73H8.33a1.79,1.79,0,0,0,0,3.57h34.5a1.79,1.79,0,0,0,0-3.57Z"/><path class="cls-1" d="M42.83,46.73H36.37a1.79,1.79,0,0,1,1.79,1.79V50.3h4.67a1.79,1.79,0,0,0,0-3.57Z"/><path class="cls-2" d="M40.14.75H11A2.12,2.12,0,1,0,11,5H40.14a2.12,2.12,0,0,0,0-4.24Z"/><path class="cls-1" d="M40.14.75H35.81V2.87A2.12,2.12,0,0,1,33.69,5h6.45a2.12,2.12,0,0,0,0-4.24Z"/><path class="cls-4" d="M26.16,10.18l1.12,3.07a.63.63,0,0,0,.56.41l3.26.11a.62.62,0,0,1,.36,1.11l-2.57,2a.62.62,0,0,0-.21.66l.89,3.14a.62.62,0,0,1-.94.68l-2.71-1.83a.6.6,0,0,0-.68,0l-2.71,1.83a.62.62,0,0,1-.94-.68l.9-3.14a.64.64,0,0,0-.22-.66l-2.57-2a.62.62,0,0,1,.36-1.11l3.26-.11a.63.63,0,0,0,.56-.41L25,10.18a.62.62,0,0,1,1.16,0Z"/><path class="cls-5" d="M16.22,42.05a.75.75,0,1,0,0,1.49H35a.75.75,0,0,0,0-1.49Z"/><path class="cls-5" d="M47.4,4.24H42.66A2.87,2.87,0,0,0,40.14,0H11A2.87,2.87,0,0,0,8.5,4.24H3.76A3.76,3.76,0,0,0,.12,8.94l2.06,7.94A12.67,12.67,0,0,0,11.46,26L19,27.56a21.47,21.47,0,0,0,2.5,1.74,11.88,11.88,0,0,1-8,8.45H11.39A2.36,2.36,0,0,0,9,40.11V46h-.7a2.54,2.54,0,0,0,0,5.07h34.5a2.54,2.54,0,0,0,0-5.07h-.7V44.54a.75.75,0,0,0-1.5,0V46H10.53V40.11a.86.86,0,0,1,.86-.86H39.77a.86.86,0,0,1,.86.86V41a.75.75,0,0,0,1.5,0v-.88a2.36,2.36,0,0,0-2.36-2.36H37.64l-.89-.25a10.38,10.38,0,0,1-7.32-8.09,19.84,19.84,0,0,0,2.7-1.85L39.82,26A12.68,12.68,0,0,0,49,16.88L51,8.94a3.76,3.76,0,0,0-3.64-4.7ZM43.86,48.52a1,1,0,0,1-1,1H8.33a1,1,0,0,1,0-2.07h34.5A1,1,0,0,1,43.86,48.52ZM9.65,2.87A1.37,1.37,0,0,1,11,1.5H40.14a1.37,1.37,0,0,1,0,2.74H19.73a.75.75,0,0,0,0,1.5H38.22v5.91a19,19,0,0,1-6.9,14.64,19.61,19.61,0,0,1-2.83,1.93,5.92,5.92,0,0,1-5.82,0,18.12,18.12,0,0,1-2.83-1.93h0a19,19,0,0,1-6.9-14.64V5.74h3.25a.75.75,0,0,0,0-1.5H11A1.37,1.37,0,0,1,9.65,2.87ZM37.28,21.35c2.33-4.32,2.42-7.26,2.44-12h6l-1.63,6.31c-1.39,5.33-6.73,5.7-6.8,5.74Zm-23.4,0s-5.42-.44-6.8-5.74L5.45,9.3h6C11.48,12.82,11.18,16.33,13.88,21.35ZM3.63,16.51l-2.06-8A2.26,2.26,0,0,1,3.76,5.74h7.68V7.8h-7a.75.75,0,0,0-.72.94L5.63,16a9.13,9.13,0,0,0,6.55,6.54l2.76.56a21,21,0,0,0,2,2.52l-5.17-1.05a11.21,11.21,0,0,1-8.13-8Zm30,21.24H17.09A13.39,13.39,0,0,0,22.9,30a7.53,7.53,0,0,0,2.68.5A7.44,7.44,0,0,0,28,30.06,11.84,11.84,0,0,0,33.59,37.75Zm16-29.19-2.06,8a11.19,11.19,0,0,1-8.13,8l-5.17,1.05a21,21,0,0,0,2-2.52L39,22.53A9.13,9.13,0,0,0,45.53,16L47.4,8.74a.75.75,0,0,0-.72-.94h-7V5.74H47.4A2.26,2.26,0,0,1,49.59,8.56Z"/><path class="cls-5" d="M19.24,15.47l2.5,2-.87,3.05A1.35,1.35,0,0,0,21.38,22,1.37,1.37,0,0,0,23,22l2.63-1.77L28.22,22a1.36,1.36,0,0,0,2.07-1.51l-.87-3.05,2.5-2A1.36,1.36,0,0,0,31.13,13L28,12.91l-1.09-3a1.36,1.36,0,0,0-2.56,0l-1.09,3L20,13a1.36,1.36,0,0,0-.79,2.44Zm6.22-5Zm-2.11,4a1.36,1.36,0,0,0,1.23-.9l1-2.73,1,2.73a1.36,1.36,0,0,0,1.23.9l2.9.1L28.43,16.3A1.38,1.38,0,0,0,28,17.75l.8,2.79-2.41-1.62a1.36,1.36,0,0,0-1.52,0l-2.41,1.62.8-2.79a1.38,1.38,0,0,0-.48-1.45l-2.28-1.79Z"/></g></g></svg>