<svg xmlns="http://www.w3.org/2000/svg" viewBox="0 0 14.98 14.98"><defs><style>.cls-1{fill:#6d929e;}</style></defs><title>guarda</title><g id="Capa_2" data-name="Capa 2"><g id="Layer_1" data-name="Layer 1"><path class="cls-1" d="M13.11,2.5H6.63L5.9,1A1.92,1.92,0,0,0,4.22,0H1.87A1.87,1.87,0,0,0,0,1.87v10.3A1.87,1.87,0,0,0,1.87,14H3.43a.62.62,0,1,0,0-1.24H1.87a.63.63,0,0,1-.62-.63V6.55H11.86a.62.62,0,1,0,0-1.24H1.25V1.87a.62.62,0,0,1,.62-.62H4.22a.61.61,0,0,1,.56.34l.9,1.81a.65.65,0,0,0,.56.35h6.87a.62.62,0,0,1,.62.62v7.8a.63.63,0,0,1-.62.63H11.57a.62.62,0,1,0,0,1.24h1.54A1.87,1.87,0,0,0,15,12.17V4.37A1.87,1.87,0,0,0,13.11,2.5Z"/><path class="cls-1" d="M9.8,12a.63.63,0,0,0-.88,0l-.81.81V8.43a.62.62,0,1,0-1.24,0v4.42L6.06,12a.63.63,0,0,0-.88,0,.61.61,0,0,0,0,.88L7.05,14.8a.63.63,0,0,0,.88,0L9.8,12.92A.61.61,0,0,0,9.8,12Z"/></g></g></svg>