<svg xmlns="http://www.w3.org/2000/svg" viewBox="0 0 38.53 38.53"><defs><style>.cls-1{fill:#7d7fbd;}.cls-2{fill:#fff;}</style></defs><title>IconCardProgramacion</title><g id="Capa_2" data-name="Capa 2"><g id="Layer_1" data-name="Layer 1"><rect class="cls-1" width="38.53" height="38.53" rx="2.03"/><path class="cls-2" d="M14.43,8.31a.36.36,0,0,0-.36.36.36.36,0,1,0,.72,0,.36.36,0,0,0-.36-.36Zm1.45,0a.36.36,0,0,0-.36.36.37.37,0,0,0,.36.37.38.38,0,0,0,.37-.37.37.37,0,0,0-.37-.36ZM13,8.31a.36.36,0,0,0-.36.36.37.37,0,1,0,.73,0A.36.36,0,0,0,13,8.31Zm4.08,9.4a.37.37,0,1,0,.52-.52l-1-1,1-1a.36.36,0,0,0,0-.51.37.37,0,0,0-.52,0L16,15.77a.62.62,0,0,0,0,.86Zm8.43,4.2H13a.36.36,0,1,0,0,.72H25.48a.36.36,0,1,0,0-.72Zm4.34-13H27.3V7.8a1,1,0,0,0-.94-1H12.1a1,1,0,0,0-.94,1V8.94H8.63a1.82,1.82,0,0,0-1.81,1.82V24.45a1.81,1.81,0,0,0,1.81,1.82h3.14a.36.36,0,0,0,.36-.36.37.37,0,0,0-.36-.37H8.63a1.09,1.09,0,0,1-1.09-1.09V10.76A1.09,1.09,0,0,1,8.63,9.67h2.53v.73H8.83a.56.56,0,0,0-.56.55V23.53a.56.56,0,0,0,.56.56h20.8a.56.56,0,0,0,.56-.56V11a.56.56,0,0,0-.56-.55H27.3V9.67h2.52a1.09,1.09,0,0,1,1.09,1.09V24.45a1.09,1.09,0,0,1-1.09,1.09H13.46a.37.37,0,0,0-.36.37.36.36,0,0,0,.36.36h3.68l-.28,2.06h-.4a.76.76,0,0,0-.73.55l-.51,1.85a.73.73,0,0,0,.13.65.73.73,0,0,0,.59.3h6.57a.74.74,0,0,0,.6-.3.73.73,0,0,0,.13-.65l-.51-1.85a.76.76,0,0,0-.73-.55h-.4l-.28-2.06h8.5a1.81,1.81,0,0,0,1.82-1.82V10.76a1.82,1.82,0,0,0-1.82-1.82ZM11.16,23.36H9V11.12h2.16ZM11.88,7.8a.22.22,0,0,1,.22-.22H26.36a.21.21,0,0,1,.21.22v2H11.88Zm17.58,3.32V23.36H27.3V13.73a.36.36,0,0,0-.36-.36.37.37,0,0,0-.37.36v9.63H11.88V10.49H26.57V12a.37.37,0,0,0,.37.36A.36.36,0,0,0,27.3,12v-.92ZM17.87,26.27h2.72l.27,2.06H17.6ZM22,29.06h0l.51,1.85v0H15.92v0l.51-1.85H22ZM18.44,17.55a.37.37,0,0,0,.5-.13l1.2-2.08a.35.35,0,0,0-.14-.49.36.36,0,0,0-.49.13l-1.2,2.07a.37.37,0,0,0,.13.5Zm2.45.16a.37.37,0,0,0,.52,0l1.08-1.08a.62.62,0,0,0,0-.86l-1.08-1.08a.37.37,0,0,0-.52,0,.36.36,0,0,0,0,.51l1,1-1,1a.37.37,0,0,0,0,.52Zm-5.54,3.47h7.76a1.11,1.11,0,0,0,1.11-1.11V12.33a1.11,1.11,0,0,0-1.11-1.11H15.35a1.11,1.11,0,0,0-1.11,1.11v7.74a1.11,1.11,0,0,0,1.11,1.11ZM15,12.33a.39.39,0,0,1,.38-.39h7.76a.39.39,0,0,1,.38.39v7.74a.38.38,0,0,1-.38.38H15.35a.38.38,0,0,1-.38-.38Z"/></g></g></svg>