<svg xmlns="http://www.w3.org/2000/svg" viewBox="0 0 11.93 11.93"><defs><style>.cls-1{fill:#00ae82;}</style></defs><title>IconCertificadosLabel</title><g id="Capa_2" data-name="Capa 2"><g id="Layer_1" data-name="Layer 1"><path class="cls-1" d="M6,0a6,6,0,1,0,6,6A6,6,0,0,0,6,0ZM6,10.79a4.82,4.82,0,0,1-2.57-.74A2.36,2.36,0,0,1,5.75,7.73h.43a2.35,2.35,0,0,1,2.35,2.32A4.77,4.77,0,0,1,6,10.79ZM4.53,5.16A1.44,1.44,0,1,1,6,6.59,1.44,1.44,0,0,1,4.53,5.16Zm5,4A3.47,3.47,0,0,0,7.77,7,2.57,2.57,0,1,0,4.16,7,3.51,3.51,0,0,0,2.37,9.19a4.83,4.83,0,1,1,7.18,0Z"/></g></g></svg>