<svg xmlns="http://www.w3.org/2000/svg" viewBox="0 0 38.53 38.53"><defs><style>.cls-1{fill:#35ba99;}.cls-2{fill:#fff;}</style></defs><title>IconCardIlustracion</title><g id="Capa_2" data-name="Capa 2"><g id="Layer_1" data-name="Layer 1"><rect class="cls-1" width="38.53" height="38.53" rx="2.03"/><path class="cls-2" d="M16.17,8.31a.37.37,0,0,0-.37.36.38.38,0,0,0,.37.37.37.37,0,0,0,.36-.37.36.36,0,0,0-.36-.36Zm-2.91,0a.37.37,0,0,0-.37.36.38.38,0,0,0,.37.37.37.37,0,0,0,.36-.37.36.36,0,0,0-.36-.36Zm16.85.63h-.68c.58-.95.69-1.56.35-1.9s-1.08-.2-2.22.55a.94.94,0,0,0-.92-.74H12.38a1,1,0,0,0-.94,1V8.94H8.92A1.82,1.82,0,0,0,7.1,10.76V24.45a1.81,1.81,0,0,0,1.82,1.82h8.5l-.28,2.06h-.4a.76.76,0,0,0-.73.55l-.51,1.85a.76.76,0,0,0,.13.65.74.74,0,0,0,.6.3H22.8a.77.77,0,0,0,.6-.3.75.75,0,0,0,.12-.65L23,28.88a.76.76,0,0,0-.73-.55h-.4l-.28-2.06h8.51a1.82,1.82,0,0,0,1.82-1.82V10.76a1.83,1.83,0,0,0-1.82-1.82Zm-2.42-.56a4.36,4.36,0,0,1,1.55-.8,3.93,3.93,0,0,1-.8,1.55,23.63,23.63,0,0,1-2.57,3c-.36.36-.73.71-1.09,1a1.78,1.78,0,0,0-.53-.8,1.75,1.75,0,0,0-.56-.34c.32-.36.66-.71,1-1.07a24.33,24.33,0,0,1,3-2.57Zm.11,2.74h1.94V23.36H27.58v-12l.22-.24Zm-7.47,4.56a1,1,0,0,1,.1-.6,1.37,1.37,0,0,1,1.45-.59c.12,0,.31.19.33.89a2,2,0,0,1-1.26,2,1.93,1.93,0,0,1-1.45,0,1.83,1.83,0,0,0,.62-.68,1.93,1.93,0,0,0,.21-1Zm1.88-1.84c.27-.38.59-.79.95-1.21a1.15,1.15,0,0,1,.61.27,1.24,1.24,0,0,1,.39.8,16.09,16.09,0,0,1-1.31,1,1.16,1.16,0,0,0-.64-.87Zm-10-3.35h8.54a.36.36,0,0,0,.37-.36.37.37,0,0,0-.37-.37H12.17v-2a.21.21,0,0,1,.21-.22H26.64c.26,0,.22.33.22.51-.62.47-1.29,1-2,1.67H22.41a.37.37,0,0,0-.36.37.36.36,0,0,0,.36.36h1.73c-.24.24-.47.49-.7.73H15.63a1.11,1.11,0,0,0-1.11,1.11V17.6a.37.37,0,0,0,.73,0V12.33a.39.39,0,0,1,.38-.39h7.16a19.66,19.66,0,0,0-1.39,1.8,2.08,2.08,0,0,0-1.6,1,1.76,1.76,0,0,0-.2,1,1.27,1.27,0,0,1-.12.66,1.38,1.38,0,0,1-.61.55.55.55,0,0,0-.29.49.53.53,0,0,0,.28.49,3.07,3.07,0,0,0,1.44.38,2.32,2.32,0,0,0,.91-.17,2.78,2.78,0,0,0,1.73-2.56c.26-.17.54-.36.83-.58v5.13a.38.38,0,0,1-.38.38H15.63a.38.38,0,0,1-.38-.38v-.78a.37.37,0,0,0-.73,0v.78a1.11,1.11,0,0,0,1.11,1.11h7.76a1.11,1.11,0,0,0,1.11-1.11V14.36c.64-.53,1.26-1.1,1.89-1.73l.47-.48V23.36H12.17ZM22.28,29.06s0,0,0,0l.51,1.85s0,0,0,0H16.23a0,0,0,0,1,0,0l.52-1.85s0,0,0,0Zm-4.4-.73.28-2.06h2.71l.28,2.06ZM31.2,24.45a1.09,1.09,0,0,1-1.09,1.09H8.92a1.09,1.09,0,0,1-1.09-1.09V10.76A1.09,1.09,0,0,1,8.92,9.67h2.52v.72H9.11a.56.56,0,0,0-.56.56V23.53a.56.56,0,0,0,.56.56h20.8a.56.56,0,0,0,.56-.56V11a.56.56,0,0,0-.56-.56H28.4c.2-.24.38-.49.55-.72h1.16a1.09,1.09,0,0,1,1.09,1.09ZM11.44,11.12V23.36H9.28V11.12ZM25.77,21.91H13.26a.36.36,0,1,0,0,.72H25.77a.36.36,0,0,0,0-.72ZM14.71,8.31a.36.36,0,0,0-.36.36.37.37,0,0,0,.36.37.38.38,0,0,0,.37-.37.37.37,0,0,0-.37-.36Z"/></g></g></svg>