<svg xmlns="http://www.w3.org/2000/svg" viewBox="0 0 87.06 87.06"><defs><style>.cls-1{fill:#fff;}</style></defs><title>javascript</title><g id="Capa_2" data-name="Capa 2"><g id="Layer_1" data-name="Layer 1"><path class="cls-1" d="M27.42,46.92a3,3,0,0,0,.37-1.45,3.08,3.08,0,0,0-3.08-3.08H22.43a1.27,1.27,0,0,0-1.28,1.27v7.85a1.3,1.3,0,0,0,1.28,1.28h2.68a3.38,3.38,0,0,0,2.31-5.86Zm-3.72-2h1a.53.53,0,0,1,0,1.06h-1Zm1.41,5.29H23.7V48.55h1.41a.84.84,0,0,1,0,1.68Zm39.16-7.84H58.8a2.47,2.47,0,0,0-2.47,2.46v5.47a2.48,2.48,0,0,0,2.47,2.47h5.47a2.48,2.48,0,0,0,2.47-2.47V44.85a2.47,2.47,0,0,0-2.47-2.46Zm-.08,7.85h-5.3v-5.3h5.3ZM21.6,5.1a1.28,1.28,0,1,0,1.27,1.28A1.28,1.28,0,0,0,21.6,5.1Zm10.2,0a1.28,1.28,0,1,0,1.27,1.28A1.28,1.28,0,0,0,31.8,5.1Zm54,44.68a1.27,1.27,0,0,0,1.28-1.27V13.69a6.38,6.38,0,0,0-6.38-6.37H71.84v-4A3.32,3.32,0,0,0,68.52,0h-50a3.32,3.32,0,0,0-3.32,3.32v4H6.38A6.38,6.38,0,0,0,0,13.69v48a6.38,6.38,0,0,0,6.38,6.38H36.2l-1,7.22H33.8a2.63,2.63,0,0,0-2.53,1.93l-1.8,6.48A2.63,2.63,0,0,0,32,87.06h23a2.63,2.63,0,0,0,2.54-3.34l-1.8-6.48a2.63,2.63,0,0,0-2.54-1.93H51.83l-1-7.22H80.68a6.38,6.38,0,0,0,6.38-6.38V54.46a1.28,1.28,0,1,0-2.55,0v7.25a3.84,3.84,0,0,1-3.83,3.83H6.38a3.84,3.84,0,0,1-3.83-3.83v-48A3.83,3.83,0,0,1,6.38,9.87h8.84v2.55H7.06a2,2,0,0,0-2,1.95V58.48a2,2,0,0,0,2,2H80a2,2,0,0,0,2-2V14.37a2,2,0,0,0-2-1.95H71.84V9.87h8.84a3.83,3.83,0,0,1,3.83,3.82V48.51a1.27,1.27,0,0,0,1.27,1.27ZM53.25,77.86a.09.09,0,0,1,.08.06l1.8,6.48s0,.11-.08.11H32s-.1-.07-.08-.11l1.79-6.48a.1.1,0,0,1,.08-.06ZM38.77,68.09h9.52l1,7.22H37.8ZM15.22,57.89H7.65V15h7.57Zm54.07,0H17.77V12.75H69.29Zm0-47.69H17.77V3.32a.76.76,0,0,1,.77-.77h50a.77.77,0,0,1,.77.77ZM79.41,15V57.89H71.84V15ZM26.7,5.1A1.28,1.28,0,1,0,28,6.38,1.28,1.28,0,0,0,26.7,5.1ZM64.27,29.44H58.8a2.47,2.47,0,0,0-2.47,2.46v5.47a2.48,2.48,0,0,0,2.47,2.47h5.47a2.48,2.48,0,0,0,2.47-2.47V31.9a2.47,2.47,0,0,0-2.47-2.46Zm-.08,7.85h-5.3V32h5.3ZM49.71,42.62H47.55a1.26,1.26,0,0,0-1.27,1.28v7.49a1.44,1.44,0,0,0,.39,1,1.26,1.26,0,0,0,.9.37h0l2.23,0c2.47,0,4.26-2.17,4.26-5.07s-1.75-5.08-4.35-5.08Zm0,7.6h-.91c0-.87,0-4.16,0-5.06h.88c1.67,0,1.8,1.94,1.8,2.53,0,1.24-.54,2.5-1.76,2.52Zm4.44-13.86c-.74-.62-1.4-.17-2,.35a1.86,1.86,0,0,1-1.3.46,2.65,2.65,0,0,1,0-5.3,2.68,2.68,0,0,1,1.48.45,1.27,1.27,0,1,0,1.42-2.11,5.2,5.2,0,1,0-2.9,9.51,4.44,4.44,0,0,0,3-1.1c.67-.6,1.1-1.58.29-2.26Zm-15.5,6H33.22a2.46,2.46,0,0,0-2.46,2.46v5.47a2.47,2.47,0,0,0,2.46,2.47h5.47a2.48,2.48,0,0,0,2.47-2.47V44.85a2.47,2.47,0,0,0-2.47-2.46Zm-.08,7.85h-5.3v-5.3h5.3ZM26.07,30.37a1.46,1.46,0,0,0-1.36-.93h0a1.46,1.46,0,0,0-1.36.93l-3,7.74a1.27,1.27,0,0,0,.74,1.64A1.29,1.29,0,0,0,22.79,39l.42-1.11h3L26.6,39a1.28,1.28,0,0,0,2.39-.9Zm-1.89,5L24.7,34l.52,1.38ZM22.79,23.92H64.27a2.48,2.48,0,0,0,2.47-2.47V17.77a2.48,2.48,0,0,0-2.47-2.47H36.9a1.28,1.28,0,1,0,0,2.55H64.19v3.51H22.87V17.85H31a1.28,1.28,0,0,0,0-2.55H22.79a2.48,2.48,0,0,0-2.47,2.47v3.68a2.48,2.48,0,0,0,2.47,2.47Zm15.9,5.52H33.22a2.46,2.46,0,0,0-2.46,2.46v5.47a2.47,2.47,0,0,0,2.46,2.47h5.47a2.48,2.48,0,0,0,2.47-2.47V31.9a2.47,2.47,0,0,0-2.47-2.46Zm-.08,7.85h-5.3V32h5.3Z"/></g></g></svg>