<svg xmlns="http://www.w3.org/2000/svg" viewBox="0 0 351.38 137.89"><defs><style>.cls-1{fill:none;stroke:#00ae82;stroke-miterlimit:10;stroke-width:3.77px;}</style></defs><title>line</title><g id="Capa_2" data-name="Capa 2"><g id="Layer_1" data-name="Layer 1"><path class="cls-1" d="M0,136c6.33,0,11.26-5.55,13.6-9.09,4.84-7.29,9.37-15.09,13.91-22.79S39,89.2,47.38,89.35,62.17,96.65,68,103c7.69,8.39,17,16.78,27.81,16.46,9.76-.29,18.22-7.77,24-16.4s9.68-18.63,15.3-27.39,14.29-17.42,23.43-17.55C172,58,185.39,88,192.46,97.87c2.83,3.95,8.06,11.56,15.93,11.15,11.25-.58,31.53-38.6,39.57-53.3,4.73-8.64,11.25-18.4,20.42-17.94s14.71,10.55,19.73,18.86c2.12,3.49,7.14,12.16,13.59,11.7,12.1-.84,44.66-55.91,47.85-67.85"/></g></g></svg>