<svg xmlns="http://www.w3.org/2000/svg" viewBox="0 0 144.03 131.89"><defs><style>.cls-1{isolation:isolate;}.cls-2{fill:#d1d3d4;opacity:0.41;mix-blend-mode:multiply;}.cls-3{fill:#fff;}.cls-4,.cls-5,.cls-6,.cls-8{fill:none;stroke-miterlimit:10;}.cls-4{stroke:#725fa9;}.cls-4,.cls-5{stroke-width:4.32px;}.cls-5{stroke:#eceff1;}.cls-6{stroke:#fff;}.cls-7{fill:#f1f2f2;}.cls-8{stroke:#00ae82;stroke-width:2px;}.cls-9{fill:#00ae82;}</style></defs><title>ProgressIlustracion</title><g class="cls-1"><g id="Capa_2" data-name="Capa 2"><g id="Layer_1" data-name="Layer 1"><circle class="cls-2" cx="78.08" cy="65.94" r="65.94" transform="translate(-23.76 74.53) rotate(-45)"/><circle class="cls-3" cx="78.08" cy="65.94" r="50.68" transform="translate(-23.76 74.53) rotate(-45)"/><path class="cls-4" d="M78.08,5.35a60.59,60.59,0,0,1,60.59,60.59"/><path class="cls-5" d="M138.67,65.94A60.59,60.59,0,1,1,78.08,5.35"/><path class="cls-4" d="M138.67,65.94a60.59,60.59,0,0,1-60.59,60.6"/><path class="cls-4" d="M77.47,126.54a60.6,60.6,0,0,1-60.59-60.6"/><line class="cls-6" x1="78.08" y1="15.26" x2="78.08" y2="0.85"/><line class="cls-6" x1="60.74" y1="18.29" x2="59.24" y2="14.16"/><line class="cls-6" x1="45.49" y1="27.1" x2="42.66" y2="23.73"/><line class="cls-6" x1="34.17" y1="40.59" x2="30.36" y2="38.39"/><line class="cls-6" x1="28.14" y1="57.14" x2="23.82" y2="56.38"/><line class="cls-6" x1="27.4" y1="65.94" x2="12.99" y2="65.94"/><line class="cls-6" x1="28.14" y1="74.75" x2="23.82" y2="75.51"/><line class="cls-6" x1="34.17" y1="91.3" x2="30.36" y2="93.5"/><line class="cls-6" x1="45.49" y1="104.79" x2="42.66" y2="108.16"/><line class="cls-6" x1="60.74" y1="113.6" x2="59.24" y2="117.73"/><line class="cls-6" x1="78.08" y1="116.63" x2="78.08" y2="131.04"/><line class="cls-6" x1="95.43" y1="113.6" x2="96.93" y2="117.73"/><line class="cls-6" x1="110.68" y1="104.79" x2="113.5" y2="108.16"/><line class="cls-6" x1="122" y1="91.3" x2="125.8" y2="93.5"/><line class="cls-6" x1="128.02" y1="74.75" x2="132.35" y2="75.51"/><line class="cls-6" x1="128.77" y1="65.94" x2="143.17" y2="65.94"/><line class="cls-6" x1="128.02" y1="57.14" x2="132.35" y2="56.38"/><line class="cls-6" x1="122" y1="40.59" x2="125.8" y2="38.39"/><line class="cls-6" x1="110.68" y1="27.1" x2="113.5" y2="23.73"/><line class="cls-6" x1="95.43" y1="18.29" x2="96.93" y2="14.16"/><circle class="cls-7" cx="78.08" cy="65.67" r="47.28"/><path class="cls-8" d="M38.4,65.67a39.68,39.68,0,0,1,67.74-28.06"/><circle class="cls-9" cx="106.14" cy="37.61" r="2.52"/><polygon class="cls-9" points="0 72.11 7.71 65.94 0 59.78 0 72.11"/></g></g></g></svg>