<svg xmlns="http://www.w3.org/2000/svg" viewBox="0 0 79.11 79.11"><defs><style>.cls-1{fill:#fff;}</style></defs><title>programacion</title><g id="Capa_2" data-name="Capa 2"><g id="Layer_1" data-name="Layer 1"><path class="cls-1" d="M24.26,4.64a1.16,1.16,0,1,0,1.16,1.15,1.15,1.15,0,0,0-1.16-1.15Zm4.63,0a1.16,1.16,0,0,0,0,2.31,1.16,1.16,0,1,0,0-2.31Zm-9.27,0a1.16,1.16,0,0,0,0,2.31,1.16,1.16,0,1,0,0-2.31ZM59.48,48H19.62a1.16,1.16,0,0,0,0,2.32H59.48a1.16,1.16,0,0,0,0-2.32ZM73.31,6.65h-8V3a3,3,0,0,0-3-3H16.84a3,3,0,0,0-3,3V6.65h-8A5.8,5.8,0,0,0,0,12.44V56.08a5.8,5.8,0,0,0,5.79,5.79h10a1.16,1.16,0,1,0,0-2.31h-10a3.48,3.48,0,0,1-3.47-3.48V12.44A3.48,3.48,0,0,1,5.79,9h8v2.32H6.41a1.77,1.77,0,0,0-1.77,1.77V53.14a1.78,1.78,0,0,0,1.77,1.78H72.69a1.78,1.78,0,0,0,1.78-1.78V13.06a1.78,1.78,0,0,0-1.78-1.77H65.28V9h8a3.48,3.48,0,0,1,3.48,3.47V56.08a3.48,3.48,0,0,1-3.48,3.48H21.18a1.16,1.16,0,1,0,0,2.31H32.89L32,68.43H30.72a2.41,2.41,0,0,0-2.31,1.76l-1.63,5.88a2.4,2.4,0,0,0,2.31,3H50a2.4,2.4,0,0,0,2.31-3L50.7,70.19a2.41,2.41,0,0,0-2.31-1.76H47.1l-.89-6.56h27.1a5.8,5.8,0,0,0,5.8-5.79V12.44a5.8,5.8,0,0,0-5.8-5.79Zm-59.48,46H7v-39h6.88ZM16.15,3a.69.69,0,0,1,.69-.69H62.26A.69.69,0,0,1,63,3V9.27H16.15Zm56,10.59v39H65.28V21.92a1.16,1.16,0,1,0-2.32,0V52.6H16.15v-41H63v4.92a1.16,1.16,0,1,0,2.32,0V13.6ZM35.23,61.87h8.65l.88,6.56H34.35Zm13.16,8.88a.07.07,0,0,1,.07.06l1.64,5.88a.07.07,0,0,1,0,.07.07.07,0,0,1-.06,0H29.09a.08.08,0,0,1-.07,0,.1.1,0,0,1,0-.07l1.63-5.88a.08.08,0,0,1,.08-.06Zm-21.2-25.1H51.92a3.54,3.54,0,0,0,3.53-3.53V17.44a3.53,3.53,0,0,0-3.53-3.53H27.19a3.54,3.54,0,0,0-3.54,3.53V42.12a3.54,3.54,0,0,0,3.54,3.53Zm-.88-28.21a1.22,1.22,0,0,1,1.21-1.22H52.26a1.22,1.22,0,0,1,1.21,1.22V42.12a1.21,1.21,0,0,1-1.21,1.21H27.52a1.21,1.21,0,0,1-1.21-1.21Z"/></g></g></svg>