<svg xmlns="http://www.w3.org/2000/svg" viewBox="0 0 38.53 38.53"><defs><style>.cls-1{fill:#00ae82;}</style></defs><title>programacionGreen</title><g id="Capa_2" data-name="Capa 2"><g id="Layer_1" data-name="Layer 1"><path class="cls-1" d="M11.81,2.26a.56.56,0,0,0-.56.56.57.57,0,1,0,1.13,0,.56.56,0,0,0-.57-.56Zm2.26,0a.56.56,0,0,0-.56.56.57.57,0,0,0,.56.57.58.58,0,0,0,.57-.57.57.57,0,0,0-.57-.56Zm-4.51,0A.57.57,0,0,0,9,2.82a.58.58,0,0,0,.57.57.57.57,0,0,0,.56-.57.56.56,0,0,0-.56-.56Zm6.33,14.59a.56.56,0,0,0,.79,0,.57.57,0,0,0,0-.8L15.14,14.5,16.68,13a.57.57,0,0,0,0-.8.56.56,0,0,0-.79,0l-1.68,1.68a.94.94,0,0,0,0,1.33ZM29,23.36H9.56a.57.57,0,1,0,0,1.13H29a.57.57,0,0,0,0-1.13ZM35.71,3.24H31.79V1.47A1.47,1.47,0,0,0,30.32,0H8.2A1.46,1.46,0,0,0,6.74,1.47V3.24H2.82A2.82,2.82,0,0,0,0,6.06V27.31a2.82,2.82,0,0,0,2.82,2.82H7.68a.56.56,0,1,0,0-1.12H2.82a1.7,1.7,0,0,1-1.69-1.7V6.06A1.69,1.69,0,0,1,2.82,4.37H6.74V5.5H3.12a.86.86,0,0,0-.86.86V25.88a.87.87,0,0,0,.86.87H35.4a.87.87,0,0,0,.87-.87V6.36a.86.86,0,0,0-.87-.86H31.79V4.37h3.92A1.69,1.69,0,0,1,37.4,6.06V27.31A1.7,1.7,0,0,1,35.71,29H10.31a.56.56,0,0,0,0,1.12H16l-.43,3.2H15a1.17,1.17,0,0,0-1.12.85L13,37.05a1.14,1.14,0,0,0,.2,1,1.16,1.16,0,0,0,.93.46H24.36a1.16,1.16,0,0,0,.93-.46,1.21,1.21,0,0,0,.2-1l-.8-2.87a1.17,1.17,0,0,0-1.12-.85h-.63l-.43-3.2h13.2a2.82,2.82,0,0,0,2.82-2.82V6.06a2.82,2.82,0,0,0-2.82-2.82Zm-29,22.38H3.39v-19H6.74ZM7.86,1.47a.34.34,0,0,1,.34-.34H30.32a.34.34,0,0,1,.34.34v3H7.86ZM35.14,6.62v19H31.79V10.68a.56.56,0,0,0-.56-.57.57.57,0,0,0-.57.57V25.62H7.86v-20h22.8V8a.58.58,0,0,0,.57.57A.57.57,0,0,0,31.79,8V6.62Zm-18,23.51h4.21l.43,3.2H16.73Zm6.41,4.33a0,0,0,0,1,0,0l.8,2.86a0,0,0,0,1,0,0s0,0,0,0H14.17s0,0,0,0,0,0,0,0l.79-2.86s0,0,0,0ZM18,16.6a.56.56,0,0,0,.77-.21l1.86-3.22a.56.56,0,0,0-.2-.77.57.57,0,0,0-.77.21l-1.86,3.22a.56.56,0,0,0,.2.77Zm3.8.25a.57.57,0,0,0,.8,0l1.68-1.68a.94.94,0,0,0,0-1.33l-1.68-1.68a.57.57,0,0,0-.8.8l1.55,1.54-1.55,1.55a.57.57,0,0,0,0,.8Zm-8.6,5.38h12A1.72,1.72,0,0,0,27,20.51v-12a1.72,1.72,0,0,0-1.72-1.72h-12a1.72,1.72,0,0,0-1.72,1.72v12a1.72,1.72,0,0,0,1.72,1.72ZM12.65,8.49a.59.59,0,0,1,.59-.59h12a.6.6,0,0,1,.59.59v12a.59.59,0,0,1-.59.59h-12a.58.58,0,0,1-.59-.59Z"/></g></g></svg>