<svg xmlns="http://www.w3.org/2000/svg" viewBox="0 0 131.89 145.29"><defs><style>.cls-1{isolation:isolate;}.cls-2{fill:#d1d3d4;opacity:0.41;mix-blend-mode:multiply;}.cls-3{fill:#fff;}.cls-4,.cls-5,.cls-6,.cls-8{fill:none;stroke-miterlimit:10;}.cls-4{stroke:#725fa9;}.cls-4,.cls-5{stroke-width:4.32px;}.cls-5{stroke:#eceff1;}.cls-6{stroke:#fff;}.cls-7{fill:#f1f2f2;}.cls-8{stroke:#00ae82;stroke-width:2px;}.cls-9{fill:#00ae82;}</style></defs><title>progressProgramacion</title><g class="cls-1"><g id="Capa_2" data-name="Capa 2"><g id="Layer_1" data-name="Layer 1"><circle class="cls-2" cx="65.94" cy="65.94" r="65.94" transform="translate(-27.32 65.94) rotate(-45)"/><circle class="cls-3" cx="65.94" cy="65.94" r="50.68" transform="translate(-27.32 65.94) rotate(-45)"/><path class="cls-4" d="M65.94,5.35a60.6,60.6,0,0,1,60.6,60.59"/><path class="cls-5" d="M126.54,65.94A60.6,60.6,0,1,1,65.94,5.35"/><path class="cls-4" d="M126.54,65.94a60.6,60.6,0,0,1-60.6,60.6"/><line class="cls-6" x1="65.94" y1="15.26" x2="65.94" y2="0.85"/><line class="cls-6" x1="48.6" y1="18.29" x2="47.1" y2="14.16"/><line class="cls-6" x1="33.35" y1="27.1" x2="30.52" y2="23.73"/><line class="cls-6" x1="22.03" y1="40.59" x2="18.22" y2="38.39"/><line class="cls-6" x1="16.01" y1="57.14" x2="11.68" y2="56.38"/><line class="cls-6" x1="15.26" y1="65.94" x2="0.85" y2="65.94"/><line class="cls-6" x1="16.01" y1="74.75" x2="11.68" y2="75.51"/><line class="cls-6" x1="22.03" y1="91.3" x2="18.22" y2="93.5"/><line class="cls-6" x1="33.35" y1="104.79" x2="30.52" y2="108.16"/><line class="cls-6" x1="48.6" y1="113.6" x2="47.1" y2="117.73"/><line class="cls-6" x1="65.94" y1="116.63" x2="65.94" y2="131.04"/><line class="cls-6" x1="83.29" y1="113.6" x2="84.79" y2="117.73"/><line class="cls-6" x1="98.54" y1="104.79" x2="101.37" y2="108.16"/><line class="cls-6" x1="109.86" y1="91.3" x2="113.67" y2="93.5"/><line class="cls-6" x1="115.88" y1="74.75" x2="120.21" y2="75.51"/><line class="cls-6" x1="116.63" y1="65.94" x2="131.04" y2="65.94"/><line class="cls-6" x1="115.88" y1="57.14" x2="120.21" y2="56.38"/><line class="cls-6" x1="109.86" y1="40.59" x2="113.67" y2="38.39"/><line class="cls-6" x1="98.54" y1="27.1" x2="101.37" y2="23.73"/><line class="cls-6" x1="83.29" y1="18.29" x2="84.79" y2="14.16"/><circle class="cls-7" cx="65.94" cy="65.67" r="47.28"/><path class="cls-8" d="M26.26,65.67A39.69,39.69,0,0,1,65.05,26h.89"/><circle class="cls-9" cx="65.94" cy="25.99" r="2.52"/><polygon class="cls-9" points="72.45 145.28 66.29 137.58 60.12 145.28 72.45 145.28"/></g></g></g></svg>