<svg xmlns="http://www.w3.org/2000/svg" viewBox="0 0 85.51 85.51"><defs><style>.cls-1{fill:#00ae82;}</style></defs><title>servicio</title><g id="Capa_2" data-name="Capa 2"><g id="Layer_1" data-name="Layer 1"><path class="cls-1" d="M14.44,62.2H39a1.25,1.25,0,0,0,0-2.5H14.44a1.25,1.25,0,1,0,0,2.5ZM17.1,5a1.26,1.26,0,1,0,1.25,1.25A1.25,1.25,0,0,0,17.1,5ZM79.25,0h-73A6.27,6.27,0,0,0,0,6.26V63.68a1.26,1.26,0,1,0,2.51,0V12.53H83V79.25A3.77,3.77,0,0,1,79.25,83h-73a3.76,3.76,0,0,1-3.75-3.76V69.53a1.26,1.26,0,0,0-2.51,0v9.72a6.27,6.27,0,0,0,6.26,6.26h73a6.27,6.27,0,0,0,6.26-6.26v-73A6.27,6.27,0,0,0,79.25,0ZM83,10H2.51V6.26A3.75,3.75,0,0,1,6.26,2.51h73A3.76,3.76,0,0,1,83,6.26ZM12.09,5a1.26,1.26,0,1,0,1.25,1.25A1.25,1.25,0,0,0,12.09,5Zm2.35,62.2H39a1.25,1.25,0,0,0,0-2.5H14.44a1.25,1.25,0,1,0,0,2.5ZM7.07,5A1.26,1.26,0,1,0,8.33,6.26,1.25,1.25,0,0,0,7.07,5Zm47.5,16.3h-9.8a5.15,5.15,0,0,0-5.15,5.14v8.88a5.15,5.15,0,0,0,5.15,5.14h2.48v2.4a1.77,1.77,0,0,0,1.09,1.64,1.79,1.79,0,0,0,1.94-.38l3.65-3.66H72.85A5.15,5.15,0,0,0,78,35.33V26.45a5.15,5.15,0,0,0-5.15-5.14H60.41a1.25,1.25,0,0,0,0,2.5H72.85a2.64,2.64,0,0,1,2.64,2.64v8.88A2.64,2.64,0,0,1,72.85,38H53.79a2.14,2.14,0,0,0-1.53.63l-2.5,2.5v-1A2.16,2.16,0,0,0,47.59,38H44.77a2.64,2.64,0,0,1-2.64-2.64V26.45a2.64,2.64,0,0,1,2.64-2.64h9.8a1.25,1.25,0,0,0,0-2.5ZM64.83,50.89A13.16,13.16,0,1,0,78,64.05,13.17,13.17,0,0,0,64.83,50.89Zm0,23.82a10.56,10.56,0,0,1-5.67-1.64,5.2,5.2,0,0,1,5.2-5.13h1a5.19,5.19,0,0,1,5.19,5.13,10.54,10.54,0,0,1-5.67,1.64ZM61.67,62.27a3.16,3.16,0,1,1,3.16,3.16,3.16,3.16,0,0,1-3.16-3.16Zm11.09,8.9a7.73,7.73,0,0,0-3.94-4.88,5.66,5.66,0,1,0-8,0,7.68,7.68,0,0,0-3.93,4.88,10.66,10.66,0,1,1,15.85,0Zm-1.68-39H46.54a1.26,1.26,0,0,0,0,2.51H71.08a1.26,1.26,0,0,0,0-2.51ZM20.68,44.65A13.17,13.17,0,1,0,7.52,31.48,13.24,13.24,0,0,0,20.68,44.65Zm0-2.51A10.56,10.56,0,0,1,15,40.5a5.2,5.2,0,0,1,5.19-5.13h1a5.2,5.2,0,0,1,5.19,5.13,10.56,10.56,0,0,1-5.67,1.64ZM17.52,29.71a3.16,3.16,0,1,1,3.16,3.16,3.17,3.17,0,0,1-3.16-3.16Zm3.16-8.89A10.65,10.65,0,0,1,28.6,38.6a7.73,7.73,0,0,0-3.93-4.88,5.66,5.66,0,1,0-8,0,7.73,7.73,0,0,0-3.93,4.88,10.65,10.65,0,0,1,7.92-17.78Zm50.4,6.31H46.54a1.26,1.26,0,0,0,0,2.51H71.08a1.26,1.26,0,0,0,0-2.51ZM7.52,67.89A5.15,5.15,0,0,0,12.66,73H31.58l3.66,3.65a1.76,1.76,0,0,0,1.93.39,1.78,1.78,0,0,0,1.09-1.64V73h2.48a5.16,5.16,0,0,0,5.15-5.15V59a5.16,5.16,0,0,0-5.15-5.15H12.66A5.15,5.15,0,0,0,7.52,59ZM10,59a2.64,2.64,0,0,1,2.64-2.64H40.74A2.64,2.64,0,0,1,43.38,59v8.87a2.64,2.64,0,0,1-2.64,2.64H37.92a2.16,2.16,0,0,0-2.16,2.16v1l-2.51-2.5a2.15,2.15,0,0,0-1.53-.64H12.66A2.64,2.64,0,0,1,10,67.89Z"/></g></g></svg>