<svg xmlns="http://www.w3.org/2000/svg" viewBox="0 0 38.74 38.74"><defs><style>.cls-1{fill:#00ae82;}</style></defs><title>servicioGreen</title><g id="Capa_2" data-name="Capa 2"><g id="Layer_1" data-name="Layer 1"><path class="cls-1" d="M6.54,28.18H17.65a.57.57,0,1,0,0-1.13H6.54a.57.57,0,1,0,0,1.13ZM7.75,2.27a.57.57,0,1,0,.56.57.56.56,0,0,0-.56-.57ZM35.9,0H2.84A2.84,2.84,0,0,0,0,2.84v26a.57.57,0,1,0,1.13,0V5.67H37.61V35.9a1.72,1.72,0,0,1-1.71,1.71H2.84A1.72,1.72,0,0,1,1.13,35.9V31.5a.57.57,0,0,0-.56-.57A.57.57,0,0,0,0,31.5v4.4a2.84,2.84,0,0,0,2.84,2.84H35.9a2.84,2.84,0,0,0,2.84-2.84V2.84A2.84,2.84,0,0,0,35.9,0Zm1.71,4.54H1.13V2.84A1.72,1.72,0,0,1,2.84,1.13H35.9a1.72,1.72,0,0,1,1.71,1.71ZM5.48,2.27A.57.57,0,1,0,6,2.84a.56.56,0,0,0-.56-.57ZM6.54,30.45H17.65a.57.57,0,1,0,0-1.13H6.54a.57.57,0,1,0,0,1.13ZM3.21,2.27a.57.57,0,1,0,.56.57.56.56,0,0,0-.56-.57ZM24.72,9.65H20.28A2.34,2.34,0,0,0,18,12v4a2.34,2.34,0,0,0,2.33,2.34h1.13v1.08a.81.81,0,0,0,.49.75.82.82,0,0,0,.88-.18l1.65-1.65H33A2.34,2.34,0,0,0,35.34,16V12A2.34,2.34,0,0,0,33,9.65H27.37a.57.57,0,0,0,0,1.14H33A1.19,1.19,0,0,1,34.2,12v4A1.2,1.2,0,0,1,33,17.2H24.37a.94.94,0,0,0-.69.29l-1.14,1.13v-.44a1,1,0,0,0-1-1H20.28A1.19,1.19,0,0,1,19.09,16V12a1.19,1.19,0,0,1,1.19-1.19h4.44a.57.57,0,0,0,0-1.14Zm4.65,13.4a6,6,0,1,0,6,6,6,6,0,0,0-6-6Zm0,10.8a4.83,4.83,0,0,1-2.57-.75,2.36,2.36,0,0,1,2.36-2.32h.43a2.35,2.35,0,0,1,2.35,2.32,4.78,4.78,0,0,1-2.57.75Zm-1.43-5.64a1.43,1.43,0,1,1,1.43,1.43,1.44,1.44,0,0,1-1.43-1.43Zm5,4A3.49,3.49,0,0,0,31.18,30a2.56,2.56,0,1,0-4.37-1.82A2.58,2.58,0,0,0,27.56,30a3.53,3.53,0,0,0-1.78,2.21A4.78,4.78,0,0,1,24.54,29a4.83,4.83,0,0,1,9.66,0A4.78,4.78,0,0,1,33,32.24ZM32.2,14.56H21.09a.57.57,0,0,0,0,1.14H32.2a.57.57,0,0,0,0-1.14ZM9.37,20.23a6,6,0,1,0-6-6,6,6,0,0,0,6,6Zm0-1.14a4.77,4.77,0,0,1-2.57-.74A2.36,2.36,0,0,1,9.15,16h.43a2.36,2.36,0,0,1,2.36,2.33,4.82,4.82,0,0,1-2.57.74ZM7.94,13.46a1.43,1.43,0,1,1,1.43,1.43,1.43,1.43,0,0,1-1.43-1.43Zm1.43-4A4.83,4.83,0,0,1,13,17.49a3.5,3.5,0,0,0-1.78-2.21,2.57,2.57,0,1,0-3.62,0,3.47,3.47,0,0,0-1.78,2.21A4.83,4.83,0,0,1,9.37,9.43ZM32.2,12.29H21.09a.57.57,0,0,0,0,1.14H32.2a.57.57,0,0,0,0-1.14ZM3.4,30.76a2.34,2.34,0,0,0,2.34,2.33h8.57L16,34.75a.82.82,0,0,0,.88.17.8.8,0,0,0,.49-.74V33.09h1.13a2.34,2.34,0,0,0,2.33-2.33v-4a2.33,2.33,0,0,0-2.33-2.33H5.74A2.33,2.33,0,0,0,3.4,26.74Zm1.14-4a1.2,1.2,0,0,1,1.2-1.2H18.46a1.19,1.19,0,0,1,1.19,1.2v4A1.19,1.19,0,0,1,18.46,32H17.18a1,1,0,0,0-1,1v.45l-1.14-1.14a1,1,0,0,0-.69-.28H5.74a1.2,1.2,0,0,1-1.2-1.2Z"/></g></g></svg>