<svg xmlns="http://www.w3.org/2000/svg" viewBox="0 0 87.72 87.72"><defs><style>.cls-1{fill:#7d7fbd;}</style></defs><title>sonido</title><g id="Capa_2" data-name="Capa 2"><g id="Layer_1" data-name="Layer 1"><path class="cls-1" d="M21.76,5.14a1.29,1.29,0,1,0,1.29,1.28,1.28,1.28,0,0,0-1.29-1.28ZM32,5.14a1.29,1.29,0,1,0,1.29,1.28A1.28,1.28,0,0,0,32,5.14Zm-5.14,0a1.29,1.29,0,1,0,1.29,1.28A1.28,1.28,0,0,0,26.9,5.14Zm3.25,45.48H33.7a1.29,1.29,0,0,0,0-2.57H30.15A1.34,1.34,0,0,1,28.8,46.7V19.34A1.34,1.34,0,0,1,30.15,18H57.57a1.34,1.34,0,0,1,1.35,1.35V46.7a1.34,1.34,0,0,1-1.35,1.35H39.7a1.29,1.29,0,1,0,0,2.57H57.57a3.93,3.93,0,0,0,3.92-3.92V19.34a3.93,3.93,0,0,0-3.92-3.92H30.15a3.93,3.93,0,0,0-3.92,3.92V46.7a3.93,3.93,0,0,0,3.92,3.92ZM81.3,7.37H72.38v-4A3.34,3.34,0,0,0,69,0H18.68a3.34,3.34,0,0,0-3.34,3.34v4H6.42A6.44,6.44,0,0,0,0,13.8V62.18a6.43,6.43,0,0,0,6.42,6.43H36.47l-1,7.27H34.06a2.66,2.66,0,0,0-2.56,2l-1.81,6.52a2.66,2.66,0,0,0,2.56,3.37H55.47A2.66,2.66,0,0,0,58,84.35l-1.81-6.52a2.66,2.66,0,0,0-2.56-2H52.23l-1-7.27H81.3a6.43,6.43,0,0,0,6.42-6.43V13.8A6.44,6.44,0,0,0,81.3,7.37Zm-63.39-4a.77.77,0,0,1,.77-.77H69a.77.77,0,0,1,.77.77v6.94H17.91Zm0,9.51h51.9V58.33H17.91Zm35.75,65.6a.08.08,0,0,1,.08.07L55.55,85s0,.11-.08.11H32.25s-.1-.07-.08-.11L34,78.52a.08.08,0,0,1,.08-.07ZM38.09,75.88l1-7.27h9.58l1,7.27Zm47.06-13.7A3.86,3.86,0,0,1,81.3,66H6.42a3.86,3.86,0,0,1-3.85-3.86V13.8A3.86,3.86,0,0,1,6.42,9.94h8.92v2.57H7.11a2,2,0,0,0-2,2V58.93a2,2,0,0,0,2,2h73.5a2,2,0,0,0,2-2V27A1.29,1.29,0,1,0,80,27V58.33H72.38V15.08H80v5.55a1.29,1.29,0,1,0,2.57,0V14.48a2,2,0,0,0-2-2H72.38V9.94H81.3a3.86,3.86,0,0,1,3.85,3.86ZM15.34,15.08V58.33H7.71V15.08ZM66,53.19H21.76a1.29,1.29,0,0,0,0,2.57H66a1.29,1.29,0,0,0,0-2.57Zm-14.66-19a4.36,4.36,0,1,0,4.36,4.41h0l.63-15.36a2.54,2.54,0,0,0-2.94-2.58l-13,2.22a2.52,2.52,0,0,0-2.1,2.37l-.49,12a4.28,4.28,0,0,0-2-.46,4.36,4.36,0,1,0,4.36,4.41h0l.43-10.56,12.92-2.2-.25,6.18a4.4,4.4,0,0,0-2-.45Zm0,6.14a1.79,1.79,0,1,1,1.79-1.79,1.8,1.8,0,0,1-1.79,1.79ZM35.79,42.91a1.79,1.79,0,1,1,1.79-1.79,1.79,1.79,0,0,1-1.79,1.79ZM40.69,28l.11-2.64,12.91-2.2-.1,2.65Z"/></g></g></svg>