<svg xmlns="http://www.w3.org/2000/svg" viewBox="0 0 85.23 85.23"><defs><style>.cls-1{fill:#fff;}</style></defs><title>trabajoremoto</title><g id="Capa_2" data-name="Capa 2"><g id="Layer_1" data-name="Layer 1"><path class="cls-1" d="M83.15,70.25H81.48V19.49a6.25,6.25,0,0,0-6.24-6.24h-18V8.59A8.6,8.6,0,0,0,48.62,0h-12A8.6,8.6,0,0,0,28,8.59v4.66H10a6.25,6.25,0,0,0-6.24,6.24V70.25H2.08A2.08,2.08,0,0,0,0,72.33v5.75a7.16,7.16,0,0,0,7.15,7.15H78.08a7.16,7.16,0,0,0,7.15-7.15V72.33a2.08,2.08,0,0,0-2.08-2.08ZM57.21,19.12h.39a1.91,1.91,0,0,1,0,3.81h-.39Zm0,6.3h.39A4.41,4.41,0,0,0,62,20.74H74V62.21h-3.1V55.34a10.38,10.38,0,0,0-8.14-10.12L51.57,42.76A1.79,1.79,0,0,1,50.16,41V38.87a14.6,14.6,0,0,0,7.05-12.49Zm-24.09,20,1.08-.24a4.27,4.27,0,0,0,2.48-1.6l4,2.95-2.57,2.57Zm5,6.36-.65,10.41H16.84V55.34A7.9,7.9,0,0,1,23,47.66l6.87-1.51,7.18,5.28a2,2,0,0,0,1,.37Zm9.6-10.66-5.06,3.72-5-3.72c0-.1,0-1,0-1.06a14.65,14.65,0,0,0,10.11,0c0,.11,0,1,0,1.06Zm-7,9,1.94-1.94,1.93,1.93.71,12.11H39.92Zm3.85-3.56,4-2.95A4.3,4.3,0,0,0,51,45.2l1.07.24-5,3.68Zm3.65,4.88,7.18-5.28,6.87,1.51a7.9,7.9,0,0,1,6.17,7.68v6.87H47.76L47.15,51.8a2,2,0,0,0,1-.37ZM30.52,19.08a30.1,30.1,0,0,0,5.3-.77,1.25,1.25,0,0,0-.58-2.43,27.56,27.56,0,0,1-4.72.7v-8A6.09,6.09,0,0,1,36.61,2.5h12a6.09,6.09,0,0,1,6.09,6.09V16.1a12.68,12.68,0,0,1-5.92-5.29A1.86,1.86,0,0,0,46,10.34,25.21,25.21,0,0,1,40.46,14a1.25,1.25,0,0,0,1.1,2.24A27.47,27.47,0,0,0,47,12.71a14.93,14.93,0,0,0,3.23,3.59,15.36,15.36,0,0,0,4.45,2.49v7.59a12.1,12.1,0,1,1-24.19,0Zm4.55,19.79V41a1.81,1.81,0,0,1-1.41,1.74L22.47,45.22a10.35,10.35,0,0,0-8.13,10.12v6.87h-3.1V20.74h12a4.4,4.4,0,0,0,4.39,4.68H28v1a14.6,14.6,0,0,0,7.05,12.49ZM25.73,21a1.91,1.91,0,0,1,1.9-1.91H28v3.81h-.39a1.91,1.91,0,0,1-1.9-1.9Zm57,57.05a4.66,4.66,0,0,1-4.65,4.65H7.15A4.65,4.65,0,0,1,2.5,78.08V72.74H34.22v2.08a2.91,2.91,0,0,0,2.91,2.92h11A2.91,2.91,0,0,0,51,74.82V72.74H63a1.25,1.25,0,0,0,0-2.49H6.24V19.49A3.75,3.75,0,0,1,10,15.74H28v.89h-.39a4.4,4.4,0,0,0-3.4,1.61H10.65a1.92,1.92,0,0,0-1.91,1.91V63.46A1.25,1.25,0,0,0,10,64.71H75.24a1.25,1.25,0,0,0,1.25-1.25V20.15a1.92,1.92,0,0,0-1.92-1.91H61a4.4,4.4,0,0,0-3.4-1.61h-.39v-.89h18A3.75,3.75,0,0,1,79,19.49V70.25H68.83a1.25,1.25,0,1,0,0,2.49h13.9Zm-46-3.26V72.74H48.52v2.08a.42.42,0,0,1-.42.42h-11a.42.42,0,0,1-.42-.42Zm2.73-40.54a6.6,6.6,0,0,0,3.1.81,6.77,6.77,0,0,0,3.25-.82,1.24,1.24,0,0,0-1.2-2.18,4.15,4.15,0,0,1-4,0,1.25,1.25,0,1,0-1.2,2.19Zm-3.27-8.7a1.24,1.24,0,0,0,1.25-1.25V21.76a1.25,1.25,0,1,0-2.49,0v2.57a1.25,1.25,0,0,0,1.24,1.25Zm12.88,0a1.25,1.25,0,0,0,1.25-1.25V21.76a1.25,1.25,0,0,0-2.5,0v2.57a1.25,1.25,0,0,0,1.25,1.25Z"/></g></g></svg>