<svg xmlns="http://www.w3.org/2000/svg" viewBox="0 0 38.61 38.61"><defs><style>.cls-1{fill:#00ae82;}</style></defs><title>trabajoRemotoGreen</title><g id="Capa_2" data-name="Capa 2"><g id="Layer_1" data-name="Layer 1"><path class="cls-1" d="M37.67,31.83h-.75v-23A2.83,2.83,0,0,0,34.09,6H25.92V3.89A3.9,3.9,0,0,0,22,0H16.59a3.9,3.9,0,0,0-3.9,3.89V6H4.52A2.83,2.83,0,0,0,1.7,8.83v23H.94a.94.94,0,0,0-.94.94v2.6a3.24,3.24,0,0,0,3.24,3.24H35.37a3.24,3.24,0,0,0,3.24-3.24v-2.6a.94.94,0,0,0-.94-.94ZM25.92,8.66h.17a.87.87,0,1,1,0,1.73h-.17Zm0,2.86h.17a2,2,0,0,0,2-2.12h5.44V28.18h-1.4V25.07a4.7,4.7,0,0,0-3.69-4.58l-5.07-1.12a.8.8,0,0,1-.63-.79v-1A6.62,6.62,0,0,0,25.92,12ZM15,20.59l.48-.11a1.94,1.94,0,0,0,1.13-.73l1.82,1.34-1.16,1.16Zm2.24,2.88L17,28.18H7.63V25.07a3.58,3.58,0,0,1,2.79-3.48l3.12-.68,3.25,2.39a.89.89,0,0,0,.46.17Zm4.35-4.83-2.29,1.68L17,18.64v-.48a6.64,6.64,0,0,0,2.29.41,6.73,6.73,0,0,0,2.29-.41,3.84,3.84,0,0,0,0,.48ZM18.43,22.7l.88-.88.87.88.32,5.48H18.09Zm1.74-1.61L22,19.75a2,2,0,0,0,1.13.73l.49.11-2.27,1.66Zm1.65,2.21,3.26-2.39,3.11.68A3.59,3.59,0,0,1,31,25.07v3.11H21.64l-.28-4.71a.89.89,0,0,0,.46-.17Zm-8-14.65a13.76,13.76,0,0,0,2.4-.36.57.57,0,0,0,.42-.68A.58.58,0,0,0,16,7.19a11.65,11.65,0,0,1-2.13.32V3.89a2.76,2.76,0,0,1,2.76-2.76H22a2.77,2.77,0,0,1,2.76,2.76v3.4a5.32,5.32,0,0,1-1.31-.79A5.58,5.58,0,0,1,22.1,4.9a.82.82,0,0,0-.59-.41.86.86,0,0,0-.69.19,10.92,10.92,0,0,1-2.49,1.66.57.57,0,0,0,.5,1,12.89,12.89,0,0,0,2.47-1.6,6.88,6.88,0,0,0,1.47,1.62,6.81,6.81,0,0,0,2,1.13V12a5.48,5.48,0,0,1-11,0Zm2.06,9v1a.82.82,0,0,1-.64.79l-5.07,1.12A4.67,4.67,0,0,0,6.5,25.07v3.11H5.09V9.4h5.44a2,2,0,0,0,2,2.12h.17V12a6.6,6.6,0,0,0,3.2,5.66ZM11.66,9.53a.86.86,0,0,1,.86-.87h.17v1.73h-.17a.86.86,0,0,1-.86-.86ZM37.48,35.37a2.1,2.1,0,0,1-2.11,2.11H3.24a2.11,2.11,0,0,1-2.11-2.11V33H15.5v.94a1.32,1.32,0,0,0,1.32,1.32h5a1.32,1.32,0,0,0,1.32-1.32V33h5.43a.57.57,0,0,0,.57-.57.56.56,0,0,0-.57-.56H2.83v-23a1.7,1.7,0,0,1,1.69-1.7h8.17v.4h-.17A2,2,0,0,0,11,8.26H4.83A.87.87,0,0,0,4,9.13V28.75a.57.57,0,0,0,.56.57H34.09a.57.57,0,0,0,.56-.57V9.13a.87.87,0,0,0-.86-.87H27.64a2,2,0,0,0-1.55-.73h-.17v-.4h8.17a1.7,1.7,0,0,1,1.69,1.7v23h-4.6a.56.56,0,0,0-.56.56.57.57,0,0,0,.56.57h6.3ZM16.63,33.9V33H22v.94a.19.19,0,0,1-.19.19h-5a.2.2,0,0,1-.19-.19Zm1.24-18.37a3.11,3.11,0,0,0,1.4.37,3.19,3.19,0,0,0,1.48-.37.57.57,0,1,0-.55-1,1.91,1.91,0,0,1-.89.23,2,2,0,0,1-.9-.23.56.56,0,1,0-.54,1Zm-1.48-3.94A.56.56,0,0,0,17,11V9.86a.56.56,0,0,0-.56-.57.57.57,0,0,0-.57.57V11a.57.57,0,0,0,.57.57Zm5.83,0a.56.56,0,0,0,.57-.57V9.86a.57.57,0,1,0-1.13,0V11a.56.56,0,0,0,.56.57Z"/></g></g></svg>