<svg xmlns="http://www.w3.org/2000/svg" viewBox="0 0 18.02 18.02"><defs><style>.cls-1{fill:#6d929e;}</style></defs><title>userRanking</title><g id="Capa_2" data-name="Capa 2"><g id="Layer_1" data-name="Layer 1"><path class="cls-1" d="M9,0a9,9,0,1,0,9,9A9,9,0,0,0,9,0ZM9,16.31a7.17,7.17,0,0,1-3.88-1.13,3.56,3.56,0,0,1,3.56-3.51h.65a3.56,3.56,0,0,1,3.55,3.51A7.14,7.14,0,0,1,9,16.31ZM6.85,7.8A2.16,2.16,0,1,1,9,10,2.17,2.17,0,0,1,6.85,7.8Zm7.59,6.09a5.33,5.33,0,0,0-2.69-3.35A3.87,3.87,0,1,0,5.14,7.8a3.83,3.83,0,0,0,1.14,2.74,5.3,5.3,0,0,0-2.69,3.35,7.3,7.3,0,1,1,10.85,0Z"/></g></g></svg>