<svg xmlns="http://www.w3.org/2000/svg" viewBox="0 0 80.17 80.17"><defs><style>.cls-1{fill:#fff;}</style></defs><title>video</title><g id="Capa_2" data-name="Capa 2"><g id="Layer_1" data-name="Layer 1"><path class="cls-1" d="M40.09,37.78a11.13,11.13,0,0,0,0-22.25,10.86,10.86,0,0,0-4.53,1,1.17,1.17,0,1,0,1,2.14,8.54,8.54,0,0,1,3.56-.77,8.76,8.76,0,1,1-7.22,3.87,1.17,1.17,0,1,0-1.95-1.31,11.13,11.13,0,0,0,9.17,17.34Zm-20.2,6.14H60.28a1.18,1.18,0,1,0,0-2.35H19.89a1.18,1.18,0,1,0,0,2.35ZM74.3,6.74H66.16V3.05A3.06,3.06,0,0,0,63.1,0h-46A3.06,3.06,0,0,0,14,3.05V6.74H5.87A5.87,5.87,0,0,0,0,12.61V40.06a1.18,1.18,0,0,0,2.35,0V12.61A3.53,3.53,0,0,1,5.87,9.09H14v2.35H6.5a1.8,1.8,0,0,0-1.8,1.8V53.86a1.81,1.81,0,0,0,1.8,1.8H73.67a1.81,1.81,0,0,0,1.81-1.8V13.24a1.8,1.8,0,0,0-1.81-1.8H66.16V9.09H74.3a3.53,3.53,0,0,1,3.52,3.52V56.84a3.53,3.53,0,0,1-3.52,3.52H5.87a3.53,3.53,0,0,1-3.52-3.52V45.54a1.18,1.18,0,0,0-2.35,0v11.3a5.88,5.88,0,0,0,5.87,5.87H33.34l-.9,6.65H31.13a2.44,2.44,0,0,0-2.34,1.77l-1.65,6a2.38,2.38,0,0,0,.41,2.12,2.41,2.41,0,0,0,1.93,1H50.7a2.44,2.44,0,0,0,1.93-1A2.41,2.41,0,0,0,53,77.1l-1.65-6A2.43,2.43,0,0,0,49,69.36H47.73l-.89-6.65H74.3a5.88,5.88,0,0,0,5.87-5.87V12.61A5.87,5.87,0,0,0,74.3,6.74ZM14,53.31h-7V13.79h7Zm49.79,0H16.37V11.74H63.81Zm0-43.91H16.37V3.05a.7.7,0,0,1,.7-.7h46a.71.71,0,0,1,.71.7Zm9.32,4.39V53.31h-7V13.79ZM35.71,62.71h8.76l.89,6.65H34.81ZM49,71.7a.09.09,0,0,1,.08.06l1.65,6s0,.11-.07.1H29.48s-.09-.06-.08-.1l1.66-6a.09.09,0,0,1,.07-.06ZM40.33,31.82l3.88-3.92a1.77,1.77,0,0,0,0-2.49L40.33,21.5a1.77,1.77,0,0,0-3,1.24v7.83a1.75,1.75,0,0,0,1.1,1.63,1.78,1.78,0,0,0,1.93-.38Zm-.68-7.67,2.49,2.51-2.49,2.5ZM29.28,4.7a1.18,1.18,0,1,0,1.18,1.17A1.17,1.17,0,0,0,29.28,4.7Zm-4.69,0a1.18,1.18,0,1,0,1.17,1.17A1.17,1.17,0,0,0,24.59,4.7Zm-4.7,43.92H60.28a1.18,1.18,0,1,0,0-2.35H19.89a1.18,1.18,0,1,0,0,2.35Zm0-43.92a1.18,1.18,0,1,0,1.17,1.17A1.17,1.17,0,0,0,19.89,4.7Z"/></g></g></svg>